SplineFontDB: 3.2
FontName: NV-Jost-Italic
FullName: NV Jost Italic
FamilyName: NV Jost
Weight: Book
Copyright: Copyright 2020 The Jost Project Authors (https://github.com/indestructible-type/Jost)
Version: 3.710
ItalicAngle: -5
UnderlinePosition: -125
UnderlineWidth: 50
Ascent: 800
Descent: 200
InvalidEm: 0
sfntRevision: 0x0003b5c3
LayerCount: 2
Layer: 0 1 "Back" 1
Layer: 1 1 "Fore" 0
XUID: [1021 434 -963152094 9325]
StyleMap: 0x0001
FSType: 0
OS2Version: 4
OS2_WeightWidthSlopeOnly: 0
OS2_UseTypoMetrics: 1
CreationTime: 1465610489
ModificationTime: 1735857076
PfmFamily: 81
TTFWeight: 400
TTFWidth: 5
LineGap: 0
VLineGap: 0
Panose: 0 0 0 0 0 0 0 0 0 0
OS2TypoAscent: 1070
OS2TypoAOffset: 0
OS2TypoDescent: -375
OS2TypoDOffset: 0
OS2TypoLinegap: 0
OS2WinAscent: 1070
OS2WinAOffset: 0
OS2WinDescent: 375
OS2WinDOffset: 0
HheadAscent: 1070
HheadAOffset: 0
HheadDescent: -375
HheadDOffset: 0
OS2SubXSize: 650
OS2SubYSize: 600
OS2SubXOff: -7
OS2SubYOff: 75
OS2SupXSize: 650
OS2SupYSize: 600
OS2SupXOff: 31
OS2SupYOff: 350
OS2StrikeYSize: 50
OS2StrikeYPos: 276
OS2CapHeight: 700
OS2XHeight: 460
OS2Vendor: 'it* '
OS2CodePages: 20000097.00000000
OS2UnicodeRanges: a00002ef.0000205b.00000010.00000000
Lookup: 1 0 0 "'ss01' Style Set 1 in Latin lookup 0" { "'ss01' Style Set 1 in Latin lookup 0 subtable"  } ['ss01' ('DFLT' <'dflt' > 'latn' <'dflt' > ) ]
Lookup: 1 0 0 "'tnum' Tabular Numbers lookup 1" { "'tnum' Tabular Numbers lookup 1 subtable"  } ['tnum' ('DFLT' <'dflt' > 'grek' <'dflt' > 'latn' <'dflt' > ) ]
Lookup: 258 0 0 "'kern' Horizontal Kerning in Latin lookup 0" { "'kern' Horizontal Kerning in Latin lookup 0 subtable"  } ['kern' ('DFLT' <'dflt' > 'latn' <'dflt' > ) ]
MarkAttachClasses: 1
DEI: 91125
KernClass2: 15+ 14 "'kern' Horizontal Kerning in Latin lookup 0 subtable"

StartChar: A
Encoding: 65 65 3
Width: 640
GlyphClass: 2
Flags: W
LayerCount: 2
Fore
SplineSet
152 210 m 1,0,-1
 512 210 l 1,1,-1
 496 290 l 1,2,-1
 193 290 l 1,3,-1
 152 210 l 1,0,-1
388 542 m 1,4,-1
 455 260 l 1,5,-1
 459 240 l 1,6,-1
 517 0 l 1,7,-1
 608 0 l 1,8,-1
 419 737 l 1,9,-1
 -25 0 l 1,10,-1
 71 0 l 1,11,-1
 215 246 l 1,12,-1
 226 264 l 1,13,-1
 388 542 l 1,4,-1
EndSplineSet
EndChar

StartChar: Agrave
Encoding: 192 192 4
Width: 640
GlyphClass: 2
Flags: W
LayerCount: 2
Fore
SplineSet
152 211 m 1,0,-1
 512 210 l 1,1,-1
 496 290 l 1,2,-1
 193 290 l 1,3,-1
 152 211 l 1,0,-1
388 542 m 1,4,-1
 455 260 l 1,5,-1
 459 240 l 1,6,-1
 517 0 l 1,7,-1
 608 0 l 1,8,-1
 419 737 l 1,9,-1
 -25 0 l 1,10,-1
 71 0 l 1,11,-1
 215 246 l 1,12,-1
 226 264 l 1,13,-1
 388 542 l 1,4,-1
328 946 m 1,14,-1
 480 795 l 1,15,-1
 527 824 l 1,16,-1
 407 985 l 1,17,-1
 328 946 l 1,14,-1
EndSplineSet
EndChar

StartChar: Aacute
Encoding: 193 193 5
Width: 640
GlyphClass: 2
Flags: W
LayerCount: 2
Fore
SplineSet
152 211 m 1,0,-1
 512 210 l 1,1,-1
 496 290 l 1,2,-1
 193 290 l 1,3,-1
 152 211 l 1,0,-1
388 542 m 1,4,-1
 455 260 l 1,5,-1
 459 240 l 1,6,-1
 517 0 l 1,7,-1
 608 0 l 1,8,-1
 419 737 l 1,9,-1
 -25 0 l 1,10,-1
 71 0 l 1,11,-1
 215 246 l 1,12,-1
 226 264 l 1,13,-1
 388 542 l 1,4,-1
582 943 m 1,14,-1
 513 985 l 1,15,-1
 341 827 l 1,16,-1
 383 796 l 1,17,-1
 582 943 l 1,14,-1
EndSplineSet
EndChar

StartChar: Acircumflex
Encoding: 194 194 6
Width: 640
GlyphClass: 2
Flags: W
LayerCount: 2
Fore
SplineSet
152 211 m 1,0,-1
 512 210 l 1,1,-1
 496 290 l 1,2,-1
 193 290 l 1,3,-1
 152 211 l 1,0,-1
388 542 m 1,4,-1
 455 260 l 1,5,-1
 459 240 l 1,6,-1
 517 0 l 1,7,-1
 608 0 l 1,8,-1
 419 737 l 1,9,-1
 -25 0 l 1,10,-1
 71 0 l 1,11,-1
 215 246 l 1,12,-1
 226 264 l 1,13,-1
 388 542 l 1,4,-1
441 850 m 1,14,-1
 531 756 l 1,15,-1
 585 794 l 1,16,-1
 451 935 l 1,17,-1
 273 797 l 1,18,-1
 317 756 l 1,19,-1
 441 850 l 1,14,-1
EndSplineSet
EndChar

StartChar: Atilde
Encoding: 195 195 7
Width: 640
GlyphClass: 2
Flags: W
LayerCount: 2
Fore
SplineSet
152 211 m 1,0,-1
 512 210 l 1,1,-1
 496 290 l 1,2,-1
 193 290 l 1,3,-1
 152 211 l 1,0,-1
388 542 m 1,4,-1
 455 260 l 1,5,-1
 459 240 l 1,6,-1
 517 0 l 1,7,-1
 608 0 l 1,8,-1
 419 737 l 1,9,-1
 -25 0 l 1,10,-1
 71 0 l 1,11,-1
 215 246 l 1,12,-1
 226 264 l 1,13,-1
 388 542 l 1,4,-1
271 814 m 1,14,-1
 319 776 l 1,15,16
 325 790 325 790 337.5 807.5 c 128,-1,17
 350 825 350 825 377 826 c 0,18,19
 398 827 398 827 414 815.5 c 128,-1,20
 430 804 430 804 446.5 792.5 c 128,-1,21
 463 781 463 781 486 780 c 0,22,23
 511 779 511 779 532.5 790 c 128,-1,24
 554 801 554 801 571.5 817.5 c 128,-1,25
 589 834 589 834 600 851 c 1,26,-1
 560 895 l 1,27,28
 546 876 546 876 530 862.5 c 128,-1,29
 514 849 514 849 496 848 c 0,30,31
 473 847 473 847 458 858.5 c 128,-1,32
 443 870 443 870 426.5 882 c 128,-1,33
 410 894 410 894 384 894 c 0,34,35
 360 895 360 895 337.5 883.5 c 128,-1,36
 315 872 315 872 298 853.5 c 128,-1,37
 281 835 281 835 271 814 c 1,14,-1
EndSplineSet
EndChar

StartChar: Adieresis
Encoding: 196 196 8
Width: 640
GlyphClass: 2
Flags: W
LayerCount: 2
Fore
SplineSet
152 211 m 1,0,-1
 512 210 l 1,1,-1
 496 290 l 1,2,-1
 193 290 l 1,3,-1
 152 211 l 1,0,-1
388 542 m 1,4,-1
 455 260 l 1,5,-1
 459 240 l 1,6,-1
 517 0 l 1,7,-1
 608 0 l 1,8,-1
 419 737 l 1,9,-1
 -25 0 l 1,10,-1
 71 0 l 1,11,-1
 215 246 l 1,12,-1
 226 264 l 1,13,-1
 388 542 l 1,4,-1
482 851 m 0,14,15
 480 830 480 830 493 813.5 c 128,-1,16
 506 797 506 797 527 796 c 256,17,18
 548 795 548 795 567.5 812 c 128,-1,19
 587 829 587 829 589 849 c 0,20,21
 591 870 591 870 578 887 c 128,-1,22
 565 904 565 904 544 905 c 256,23,24
 523 906 523 906 503.5 888.5 c 128,-1,25
 484 871 484 871 482 851 c 0,14,15
287 851 m 0,26,27
 285 830 285 830 298.5 813.5 c 128,-1,28
 312 797 312 797 333 796 c 256,29,30
 354 795 354 795 373.5 812 c 128,-1,31
 393 829 393 829 395 849 c 0,32,33
 397 870 397 870 384 887 c 128,-1,34
 371 904 371 904 350 905 c 256,35,36
 329 906 329 906 309 888.5 c 128,-1,37
 289 871 289 871 287 851 c 0,26,27
EndSplineSet
EndChar

StartChar: Aring
Encoding: 197 197 9
Width: 640
GlyphClass: 2
Flags: W
LayerCount: 2
Fore
SplineSet
152 211 m 1,0,-1
 512 210 l 1,1,-1
 496 290 l 1,2,-1
 193 290 l 1,3,-1
 152 211 l 1,0,-1
388 542 m 1,4,-1
 455 260 l 1,5,-1
 459 240 l 1,6,-1
 517 0 l 1,7,-1
 608 0 l 1,8,-1
 419 737 l 1,9,-1
 -25 0 l 1,10,-1
 71 0 l 1,11,-1
 215 246 l 1,12,-1
 226 264 l 1,13,-1
 388 542 l 1,4,-1
330 799 m 0,14,15
 326 772 326 772 336.5 749.5 c 128,-1,16
 347 727 347 727 367.5 713 c 128,-1,17
 388 699 388 699 414 699 c 0,18,19
 441 699 441 699 466 712 c 128,-1,20
 491 725 491 725 508.5 747.5 c 128,-1,21
 526 770 526 770 529 797 c 0,22,23
 533 825 533 825 522.5 847.5 c 128,-1,24
 512 870 512 870 492 884 c 128,-1,25
 472 898 472 898 445 898 c 0,26,27
 419 898 419 898 393.5 884.5 c 128,-1,28
 368 871 368 871 351 849 c 128,-1,29
 334 827 334 827 330 799 c 0,14,15
380 798 m 0,30,31
 382 812 382 812 391.5 824.5 c 128,-1,32
 401 837 401 837 414.5 844.5 c 128,-1,33
 428 852 428 852 440 851 c 0,34,35
 458 850 458 850 469.5 834.5 c 128,-1,36
 481 819 481 819 479 799 c 0,37,38
 477 778 477 778 457 761.5 c 128,-1,39
 437 745 437 745 419 746 c 256,40,41
 401 747 401 747 389.5 762.5 c 128,-1,42
 378 778 378 778 380 798 c 0,30,31
EndSplineSet
EndChar

StartChar: Amacron
Encoding: 256 256 10
Width: 640
GlyphClass: 2
Flags: W
LayerCount: 2
Fore
SplineSet
152 211 m 1,0,-1
 512 210 l 1,1,-1
 496 290 l 1,2,-1
 193 290 l 1,3,-1
 152 211 l 1,0,-1
388 542 m 1,4,-1
 455 260 l 1,5,-1
 459 240 l 1,6,-1
 517 0 l 1,7,-1
 608 0 l 1,8,-1
 419 737 l 1,9,-1
 -25 0 l 1,10,-1
 71 0 l 1,11,-1
 215 246 l 1,12,-1
 226 264 l 1,13,-1
 388 542 l 1,4,-1
260 796 m 1,14,-1
 601 795 l 1,15,-1
 613 870 l 1,16,-1
 272 870 l 1,17,-1
 260 796 l 1,14,-1
EndSplineSet
EndChar

StartChar: Abreve
Encoding: 258 258 11
Width: 640
GlyphClass: 2
Flags: W
LayerCount: 2
Fore
SplineSet
152 211 m 1,0,-1
 512 210 l 1,1,-1
 496 290 l 1,2,-1
 193 290 l 1,3,-1
 152 211 l 1,0,-1
388 542 m 1,4,-1
 455 260 l 1,5,-1
 459 240 l 1,6,-1
 517 0 l 1,7,-1
 608 0 l 1,8,-1
 419 737 l 1,9,-1
 -25 0 l 1,10,-1
 71 0 l 1,11,-1
 215 246 l 1,12,-1
 226 264 l 1,13,-1
 388 542 l 1,4,-1
299 935 m 1,14,15
 296 899 296 899 309.5 867 c 128,-1,16
 323 835 323 835 353.5 815.5 c 128,-1,17
 384 796 384 796 432 796 c 0,18,19
 481 796 481 796 516.5 815.5 c 128,-1,20
 552 835 552 835 575 866.5 c 128,-1,21
 598 898 598 898 607 934 c 1,22,-1
 536 935 l 1,23,24
 530 919 530 919 518 901.5 c 128,-1,25
 506 884 506 884 487 872.5 c 128,-1,26
 468 861 468 861 437 861 c 0,27,28
 408 861 408 861 392.5 872.5 c 128,-1,29
 377 884 377 884 372 901.5 c 128,-1,30
 367 919 367 919 368 935 c 1,31,-1
 299 935 l 1,14,15
EndSplineSet
EndChar

StartChar: Aogonek
Encoding: 260 260 12
Width: 640
GlyphClass: 2
Flags: W
LayerCount: 2
Fore
SplineSet
152 211 m 1,0,-1
 512 210 l 1,1,-1
 496 290 l 1,2,-1
 193 290 l 1,3,-1
 152 211 l 1,0,-1
388 542 m 1,4,-1
 455 260 l 1,5,-1
 459 240 l 1,6,-1
 517 0 l 1,7,-1
 608 0 l 1,8,-1
 419 737 l 1,9,-1
 -25 0 l 1,10,-1
 71 0 l 1,11,-1
 215 246 l 1,12,-1
 226 264 l 1,13,-1
 388 542 l 1,4,-1
590 -130 m 1,14,15
 580 -137 580 -137 567.5 -143.5 c 128,-1,16
 555 -150 555 -150 538 -149 c 0,17,18
 517 -147 517 -147 508 -134.5 c 128,-1,19
 499 -122 499 -122 501 -100 c 0,20,21
 505 -78 505 -78 522 -59.5 c 128,-1,22
 539 -41 539 -41 563 -26 c 128,-1,23
 587 -11 587 -11 610 0 c 1,24,-1
 571 25 l 1,25,26
 538 9 538 9 505.5 -12 c 128,-1,27
 473 -33 473 -33 449.5 -59.5 c 128,-1,28
 426 -86 426 -86 420 -119 c 0,29,30
 413 -165 413 -165 442 -192.5 c 128,-1,31
 471 -220 471 -220 525 -219 c 0,32,33
 554 -219 554 -219 576.5 -207.5 c 128,-1,34
 599 -196 599 -196 615 -181 c 1,35,-1
 590 -130 l 1,14,15
EndSplineSet
EndChar

StartChar: B
Encoding: 66 66 13
Width: 542
GlyphClass: 2
Flags: W
LayerCount: 2
Fore
SplineSet
179 371 m 1,0,-1
 291 371 l 2,1,2
 348 372 348 372 396.5 389 c 128,-1,3
 445 406 445 406 477.5 440 c 128,-1,4
 510 474 510 474 518 525 c 0,5,6
 525 568 525 568 514.5 600.5 c 128,-1,7
 504 633 504 633 479.5 655 c 128,-1,8
 455 677 455 677 420 688.5 c 128,-1,9
 385 700 385 700 342 700 c 2,10,-1
 170 700 l 1,11,-1
 50 0 l 1,12,-1
 238 0 l 2,13,14
 304 0 304 0 360 23.5 c 128,-1,15
 416 47 416 47 454 93 c 128,-1,16
 492 139 492 139 502 205 c 0,17,18
 509 252 509 252 495.5 286.5 c 128,-1,19
 482 321 482 321 453.5 344 c 128,-1,20
 425 367 425 367 385 378.5 c 128,-1,21
 345 390 345 390 299 390 c 2,22,-1
 182 390 l 1,23,-1
 174 344 l 1,24,-1
 296 343 l 2,25,26
 338 343 338 343 368 327 c 128,-1,27
 398 311 398 311 412 281 c 128,-1,28
 426 251 426 251 419 210 c 256,29,30
 412 169 412 169 387 138.5 c 128,-1,31
 362 108 362 108 325.5 92 c 128,-1,32
 289 76 289 76 245 76 c 2,33,-1
 147 75 l 1,34,-1
 241 625 l 1,35,-1
 335 625 l 2,36,37
 383 624 383 624 412 595.5 c 128,-1,38
 441 567 441 567 433 520 c 0,39,40
 428 488 428 488 407.5 465 c 128,-1,41
 387 442 387 442 357.5 430 c 128,-1,42
 328 418 328 418 294 417 c 2,43,-1
 186 417 l 1,44,-1
 179 371 l 1,0,-1
EndSplineSet
EndChar

StartChar: C
Encoding: 67 67 14
Width: 665
GlyphClass: 2
Flags: W
LayerCount: 2
Fore
SplineSet
160 350 m 0,0,1
 169 407 169 407 196.5 456.5 c 128,-1,2
 224 506 224 506 265 544 c 128,-1,3
 306 582 306 582 356 603.5 c 128,-1,4
 406 625 406 625 461 625 c 0,5,6
 528 625 528 625 578 597.5 c 128,-1,7
 628 570 628 570 660 521 c 1,8,-1
 678 633 l 1,9,10
 636 673 636 673 586.5 692 c 128,-1,11
 537 711 537 711 470 710 c 0,12,13
 395 710 395 710 328 681.5 c 128,-1,14
 261 653 261 653 207 603.5 c 128,-1,15
 153 554 153 554 117.5 489 c 128,-1,16
 82 424 82 424 71 350 c 0,17,18
 61 280 61 280 76 215 c 128,-1,19
 91 150 91 150 128 99.5 c 128,-1,20
 165 49 165 49 222.5 19.5 c 128,-1,21
 280 -10 280 -10 353 -10 c 0,22,23
 424 -10 424 -10 479 10 c 128,-1,24
 534 30 534 30 583 67 c 1,25,-1
 600 178 l 1,26,27
 554 135 554 135 494 105 c 128,-1,28
 434 75 434 75 361 76 c 0,29,30
 307 76 307 76 266 99 c 128,-1,31
 225 122 225 122 198.5 160.5 c 128,-1,32
 172 199 172 199 162 248 c 128,-1,33
 152 297 152 297 160 350 c 0,0,1
EndSplineSet
EndChar

StartChar: Ccedilla
Encoding: 199 199 15
Width: 665
GlyphClass: 2
Flags: W
LayerCount: 2
Fore
SplineSet
160 350 m 0,0,1
 169 407 169 407 196.5 456.5 c 128,-1,2
 224 506 224 506 265 544 c 128,-1,3
 306 582 306 582 356 603.5 c 128,-1,4
 406 625 406 625 461 625 c 0,5,6
 528 625 528 625 578 597.5 c 128,-1,7
 628 570 628 570 660 521 c 1,8,-1
 678 633 l 1,9,10
 636 673 636 673 586.5 692 c 128,-1,11
 537 711 537 711 470 710 c 0,12,13
 395 710 395 710 328 681.5 c 128,-1,14
 261 653 261 653 207 603.5 c 128,-1,15
 153 554 153 554 117.5 489 c 128,-1,16
 82 424 82 424 71 350 c 0,17,18
 61 280 61 280 76 215 c 128,-1,19
 91 150 91 150 128 99.5 c 128,-1,20
 165 49 165 49 222.5 19.5 c 128,-1,21
 280 -10 280 -10 353 -10 c 0,22,23
 424 -10 424 -10 479 10 c 128,-1,24
 534 30 534 30 583 67 c 1,25,-1
 600 178 l 1,26,27
 554 135 554 135 494 105 c 128,-1,28
 434 75 434 75 361 76 c 0,29,30
 307 76 307 76 266 99 c 128,-1,31
 225 122 225 122 198.5 160.5 c 128,-1,32
 172 199 172 199 162 248 c 128,-1,33
 152 297 152 297 160 350 c 0,0,1
350 58 m 1,34,-1
 240 -108 l 1,35,36
 255 -100 255 -100 272 -95 c 128,-1,37
 289 -90 289 -90 301 -91 c 0,38,39
 314 -91 314 -91 323.5 -95 c 128,-1,40
 333 -99 333 -99 338 -107 c 128,-1,41
 343 -115 343 -115 341 -126 c 0,42,43
 340 -137 340 -137 331.5 -146.5 c 128,-1,44
 323 -156 323 -156 310.5 -161.5 c 128,-1,45
 298 -167 298 -167 284 -167 c 0,46,47
 268 -167 268 -167 257 -160 c 128,-1,48
 246 -153 246 -153 234 -143 c 1,49,-1
 196 -181 l 1,50,51
 215 -200 215 -200 234 -210 c 128,-1,52
 253 -220 253 -220 279 -220 c 0,53,54
 306 -220 306 -220 332 -208.5 c 128,-1,55
 358 -197 358 -197 376 -176.5 c 128,-1,56
 394 -156 394 -156 397 -128 c 0,57,58
 401 -95 401 -95 382 -75 c 128,-1,59
 363 -55 363 -55 337 -53 c 0,60,61
 335 -53 335 -53 333 -53 c 128,-1,62
 331 -53 331 -53 329 -53 c 1,63,-1
 411 58 l 1,64,-1
 350 58 l 1,34,-1
EndSplineSet
EndChar

StartChar: Cacute
Encoding: 262 262 16
Width: 665
GlyphClass: 2
Flags: W
LayerCount: 2
Fore
SplineSet
160 350 m 0,0,1
 169 407 169 407 196.5 456.5 c 128,-1,2
 224 506 224 506 265 544 c 128,-1,3
 306 582 306 582 356 603.5 c 128,-1,4
 406 625 406 625 461 625 c 0,5,6
 528 625 528 625 578 597.5 c 128,-1,7
 628 570 628 570 660 521 c 1,8,-1
 678 633 l 1,9,10
 636 673 636 673 586.5 692 c 128,-1,11
 537 711 537 711 470 710 c 0,12,13
 395 710 395 710 328 681.5 c 128,-1,14
 261 653 261 653 207 603.5 c 128,-1,15
 153 554 153 554 117.5 489 c 128,-1,16
 82 424 82 424 71 350 c 0,17,18
 61 280 61 280 76 215 c 128,-1,19
 91 150 91 150 128 99.5 c 128,-1,20
 165 49 165 49 222.5 19.5 c 128,-1,21
 280 -10 280 -10 353 -10 c 0,22,23
 424 -10 424 -10 479 10 c 128,-1,24
 534 30 534 30 583 67 c 1,25,-1
 600 178 l 1,26,27
 554 135 554 135 494 105 c 128,-1,28
 434 75 434 75 361 76 c 0,29,30
 307 76 307 76 266 99 c 128,-1,31
 225 122 225 122 198.5 160.5 c 128,-1,32
 172 199 172 199 162 248 c 128,-1,33
 152 297 152 297 160 350 c 0,0,1
635 918 m 1,34,-1
 567 960 l 1,35,-1
 395 802 l 1,36,-1
 437 771 l 1,37,-1
 635 918 l 1,34,-1
EndSplineSet
EndChar

StartChar: Ccircumflex
Encoding: 264 264 17
Width: 665
GlyphClass: 2
Flags: W
LayerCount: 2
Fore
SplineSet
160 350 m 0,0,1
 169 407 169 407 196.5 456.5 c 128,-1,2
 224 506 224 506 265 544 c 128,-1,3
 306 582 306 582 356 603.5 c 128,-1,4
 406 625 406 625 461 625 c 0,5,6
 528 625 528 625 578 597.5 c 128,-1,7
 628 570 628 570 660 521 c 1,8,-1
 678 633 l 1,9,10
 636 673 636 673 586.5 692 c 128,-1,11
 537 711 537 711 470 710 c 0,12,13
 395 710 395 710 328 681.5 c 128,-1,14
 261 653 261 653 207 603.5 c 128,-1,15
 153 554 153 554 117.5 489 c 128,-1,16
 82 424 82 424 71 350 c 0,17,18
 61 280 61 280 76 215 c 128,-1,19
 91 150 91 150 128 99.5 c 128,-1,20
 165 49 165 49 222.5 19.5 c 128,-1,21
 280 -10 280 -10 353 -10 c 0,22,23
 424 -10 424 -10 479 10 c 128,-1,24
 534 30 534 30 583 67 c 1,25,-1
 600 178 l 1,26,27
 554 135 554 135 494 105 c 128,-1,28
 434 75 434 75 361 76 c 0,29,30
 307 76 307 76 266 99 c 128,-1,31
 225 122 225 122 198.5 160.5 c 128,-1,32
 172 199 172 199 162 248 c 128,-1,33
 152 297 152 297 160 350 c 0,0,1
502 865 m 1,34,-1
 592 771 l 1,35,-1
 646 809 l 1,36,-1
 512 950 l 1,37,-1
 334 812 l 1,38,-1
 378 771 l 1,39,-1
 502 865 l 1,34,-1
EndSplineSet
EndChar

StartChar: Cdotaccent
Encoding: 266 266 18
Width: 665
GlyphClass: 2
Flags: W
LayerCount: 2
Fore
SplineSet
160 350 m 0,0,1
 169 407 169 407 196.5 456.5 c 128,-1,2
 224 506 224 506 265 544 c 128,-1,3
 306 582 306 582 356 603.5 c 128,-1,4
 406 625 406 625 461 625 c 0,5,6
 528 625 528 625 578 597.5 c 128,-1,7
 628 570 628 570 660 521 c 1,8,-1
 678 633 l 1,9,10
 636 673 636 673 586.5 692 c 128,-1,11
 537 711 537 711 470 710 c 0,12,13
 395 710 395 710 328 681.5 c 128,-1,14
 261 653 261 653 207 603.5 c 128,-1,15
 153 554 153 554 117.5 489 c 128,-1,16
 82 424 82 424 71 350 c 0,17,18
 61 280 61 280 76 215 c 128,-1,19
 91 150 91 150 128 99.5 c 128,-1,20
 165 49 165 49 222.5 19.5 c 128,-1,21
 280 -10 280 -10 353 -10 c 0,22,23
 424 -10 424 -10 479 10 c 128,-1,24
 534 30 534 30 583 67 c 1,25,-1
 600 178 l 1,26,27
 554 135 554 135 494 105 c 128,-1,28
 434 75 434 75 361 76 c 0,29,30
 307 76 307 76 266 99 c 128,-1,31
 225 122 225 122 198.5 160.5 c 128,-1,32
 172 199 172 199 162 248 c 128,-1,33
 152 297 152 297 160 350 c 0,0,1
439 826 m 0,34,35
 437 805 437 805 450 788.5 c 128,-1,36
 463 772 463 772 484 771 c 256,37,38
 505 770 505 770 524.5 787 c 128,-1,39
 544 804 544 804 546 824 c 0,40,41
 548 845 548 845 535 862 c 128,-1,42
 522 879 522 879 501 880 c 256,43,44
 480 881 480 881 460.5 863.5 c 128,-1,45
 441 846 441 846 439 826 c 0,34,35
EndSplineSet
EndChar

StartChar: Ccaron
Encoding: 268 268 19
Width: 665
GlyphClass: 2
Flags: W
LayerCount: 2
Fore
SplineSet
160 350 m 0,0,1
 169 407 169 407 196.5 456.5 c 128,-1,2
 224 506 224 506 265 544 c 128,-1,3
 306 582 306 582 356 603.5 c 128,-1,4
 406 625 406 625 461 625 c 0,5,6
 528 625 528 625 578 597.5 c 128,-1,7
 628 570 628 570 660 521 c 1,8,-1
 678 633 l 1,9,10
 636 673 636 673 586.5 692 c 128,-1,11
 537 711 537 711 470 710 c 0,12,13
 395 710 395 710 328 681.5 c 128,-1,14
 261 653 261 653 207 603.5 c 128,-1,15
 153 554 153 554 117.5 489 c 128,-1,16
 82 424 82 424 71 350 c 0,17,18
 61 280 61 280 76 215 c 128,-1,19
 91 150 91 150 128 99.5 c 128,-1,20
 165 49 165 49 222.5 19.5 c 128,-1,21
 280 -10 280 -10 353 -10 c 0,22,23
 424 -10 424 -10 479 10 c 128,-1,24
 534 30 534 30 583 67 c 1,25,-1
 600 178 l 1,26,27
 554 135 554 135 494 105 c 128,-1,28
 434 75 434 75 361 76 c 0,29,30
 307 76 307 76 266 99 c 128,-1,31
 225 122 225 122 198.5 160.5 c 128,-1,32
 172 199 172 199 162 248 c 128,-1,33
 152 297 152 297 160 350 c 0,0,1
495 856 m 1,34,-1
 405 950 l 1,35,-1
 351 911 l 1,36,-1
 485 770 l 1,37,-1
 663 909 l 1,38,-1
 619 950 l 1,39,-1
 495 856 l 1,34,-1
EndSplineSet
EndChar

StartChar: D
Encoding: 68 68 20
Width: 660
GlyphClass: 2
Flags: W
LayerCount: 2
Fore
SplineSet
169 700 m 1,0,-1
 51 0 l 1,1,-1
 133 0 l 1,2,-1
 254 700 l 1,3,-1
 169 700 l 1,0,-1
258 0 m 2,4,5
 335 0 335 0 402 26.5 c 128,-1,6
 469 53 469 53 521.5 100 c 128,-1,7
 574 147 574 147 608.5 211 c 128,-1,8
 643 275 643 275 655 350 c 0,9,10
 666 422 666 422 651 485.5 c 128,-1,11
 636 549 636 549 598.5 597 c 128,-1,12
 561 645 561 645 503.5 672.5 c 128,-1,13
 446 700 446 700 371 700 c 2,14,-1
 215 700 l 1,15,-1
 200 615 l 1,16,-1
 362 615 l 2,17,18
 420 615 420 615 463 594.5 c 128,-1,19
 506 574 506 574 533 537.5 c 128,-1,20
 560 501 560 501 570 453 c 128,-1,21
 580 405 580 405 571 350 c 0,22,23
 558 273 558 273 515.5 213 c 128,-1,24
 473 153 473 153 409 119 c 128,-1,25
 345 85 345 85 266 85 c 2,26,-1
 110 85 l 1,27,-1
 95 0 l 1,28,-1
 258 0 l 2,4,5
EndSplineSet
EndChar

StartChar: Dcaron
Encoding: 270 270 21
Width: 660
GlyphClass: 2
Flags: W
LayerCount: 2
Fore
SplineSet
169 700 m 1,0,-1
 51 0 l 1,1,-1
 133 0 l 1,2,-1
 254 700 l 1,3,-1
 169 700 l 1,0,-1
258 0 m 2,4,5
 360 2 360 2 444.5 47.5 c 128,-1,6
 529 93 529 93 584.5 171.5 c 128,-1,7
 640 250 640 250 655 350 c 0,8,9
 669 446 669 446 638.5 525 c 128,-1,10
 608 604 608 604 539.5 651.5 c 128,-1,11
 471 699 471 699 371 700 c 2,12,-1
 215 700 l 1,13,-1
 200 615 l 1,14,-1
 362 615 l 2,15,16
 440 614 440 614 490.5 578.5 c 128,-1,17
 541 543 541 543 562 483.5 c 128,-1,18
 583 424 583 424 571 350 c 0,19,20
 558 273 558 273 515.5 214 c 128,-1,21
 473 155 473 155 409 121 c 128,-1,22
 345 87 345 87 266 85 c 2,23,-1
 110 85 l 1,24,-1
 95 0 l 1,25,-1
 258 0 l 2,4,5
437 856 m 1,26,-1
 346 950 l 1,27,-1
 293 911 l 1,28,-1
 427 770 l 1,29,-1
 605 909 l 1,30,-1
 560 950 l 1,31,-1
 437 856 l 1,26,-1
EndSplineSet
EndChar

StartChar: E
Encoding: 69 69 22
Width: 534
GlyphClass: 2
Flags: W
LayerCount: 2
Fore
SplineSet
97 0 m 1,0,-1
 441 0 l 1,1,-1
 454 80 l 1,2,-1
 110 80 l 1,3,-1
 97 0 l 1,0,-1
203 620 m 1,4,-1
 546 620 l 1,5,-1
 560 700 l 1,6,-1
 216 700 l 1,7,-1
 203 620 l 1,4,-1
155 341 m 1,8,-1
 479 341 l 1,9,-1
 493 420 l 1,10,-1
 168 420 l 1,11,-1
 155 341 l 1,8,-1
169 700 m 1,12,-1
 51 0 l 1,13,-1
 133 0 l 1,14,-1
 254 700 l 1,15,-1
 169 700 l 1,12,-1
EndSplineSet
EndChar

StartChar: Egrave
Encoding: 200 200 23
Width: 534
GlyphClass: 2
Flags: W
LayerCount: 2
Fore
SplineSet
97 0 m 1,0,-1
 441 0 l 1,1,-1
 454 80 l 1,2,-1
 110 80 l 1,3,-1
 97 0 l 1,0,-1
203 621 m 1,4,-1
 546 620 l 1,5,-1
 560 700 l 1,6,-1
 216 700 l 1,7,-1
 203 621 l 1,4,-1
155 341 m 1,8,-1
 479 340 l 1,9,-1
 493 420 l 1,10,-1
 168 420 l 1,11,-1
 155 341 l 1,8,-1
169 700 m 1,12,-1
 51 0 l 1,13,-1
 133 0 l 1,14,-1
 254 700 l 1,15,-1
 169 700 l 1,12,-1
275 921 m 1,16,-1
 427 770 l 1,17,-1
 474 799 l 1,18,-1
 354 960 l 1,19,-1
 275 921 l 1,16,-1
EndSplineSet
EndChar

StartChar: Eacute
Encoding: 201 201 24
Width: 534
GlyphClass: 2
Flags: W
LayerCount: 2
Fore
SplineSet
97 0 m 1,0,-1
 441 0 l 1,1,-1
 454 80 l 1,2,-1
 110 80 l 1,3,-1
 97 0 l 1,0,-1
203 621 m 1,4,-1
 546 620 l 1,5,-1
 560 700 l 1,6,-1
 216 700 l 1,7,-1
 203 621 l 1,4,-1
155 341 m 1,8,-1
 479 340 l 1,9,-1
 493 420 l 1,10,-1
 168 420 l 1,11,-1
 155 341 l 1,8,-1
169 700 m 1,12,-1
 51 0 l 1,13,-1
 133 0 l 1,14,-1
 254 700 l 1,15,-1
 169 700 l 1,12,-1
529 918 m 1,16,-1
 460 960 l 1,17,-1
 288 802 l 1,18,-1
 330 771 l 1,19,-1
 529 918 l 1,16,-1
EndSplineSet
EndChar

StartChar: Ecircumflex
Encoding: 202 202 25
Width: 534
GlyphClass: 2
Flags: W
LayerCount: 2
Fore
SplineSet
97 0 m 1,0,-1
 441 0 l 1,1,-1
 454 80 l 1,2,-1
 110 80 l 1,3,-1
 97 0 l 1,0,-1
203 621 m 1,4,-1
 546 620 l 1,5,-1
 560 700 l 1,6,-1
 216 700 l 1,7,-1
 203 621 l 1,4,-1
155 341 m 1,8,-1
 479 340 l 1,9,-1
 493 420 l 1,10,-1
 168 420 l 1,11,-1
 155 341 l 1,8,-1
169 700 m 1,12,-1
 51 0 l 1,13,-1
 133 0 l 1,14,-1
 254 700 l 1,15,-1
 169 700 l 1,12,-1
405 865 m 1,16,-1
 495 771 l 1,17,-1
 549 809 l 1,18,-1
 415 950 l 1,19,-1
 237 812 l 1,20,-1
 281 771 l 1,21,-1
 405 865 l 1,16,-1
EndSplineSet
EndChar

StartChar: Edieresis
Encoding: 203 203 26
Width: 534
GlyphClass: 2
Flags: W
LayerCount: 2
Fore
SplineSet
97 0 m 1,0,-1
 441 0 l 1,1,-1
 454 80 l 1,2,-1
 110 80 l 1,3,-1
 97 0 l 1,0,-1
203 621 m 1,4,-1
 546 620 l 1,5,-1
 560 700 l 1,6,-1
 216 700 l 1,7,-1
 203 621 l 1,4,-1
155 341 m 1,8,-1
 479 340 l 1,9,-1
 493 420 l 1,10,-1
 168 420 l 1,11,-1
 155 341 l 1,8,-1
169 700 m 1,12,-1
 51 0 l 1,13,-1
 133 0 l 1,14,-1
 254 700 l 1,15,-1
 169 700 l 1,12,-1
442 846 m 0,16,17
 440 825 440 825 453 808.5 c 128,-1,18
 466 792 466 792 488 791 c 0,19,20
 508 790 508 790 528 807 c 128,-1,21
 548 824 548 824 550 844 c 0,22,23
 552 865 552 865 539 882 c 128,-1,24
 526 899 526 899 504 900 c 0,25,26
 484 901 484 901 464 883.5 c 128,-1,27
 444 866 444 866 442 846 c 0,16,17
248 846 m 0,28,29
 246 825 246 825 259 808.5 c 128,-1,30
 272 792 272 792 294 791 c 0,31,32
 314 790 314 790 334 807 c 128,-1,33
 354 824 354 824 356 844 c 0,34,35
 358 865 358 865 344.5 882 c 128,-1,36
 331 899 331 899 310 900 c 256,37,38
 289 901 289 901 269.5 883.5 c 128,-1,39
 250 866 250 866 248 846 c 0,28,29
EndSplineSet
EndChar

StartChar: Emacron
Encoding: 274 274 27
Width: 534
GlyphClass: 2
Flags: W
LayerCount: 2
Fore
SplineSet
97 0 m 1,0,-1
 441 0 l 1,1,-1
 454 80 l 1,2,-1
 110 80 l 1,3,-1
 97 0 l 1,0,-1
203 621 m 1,4,-1
 546 620 l 1,5,-1
 560 700 l 1,6,-1
 216 700 l 1,7,-1
 203 621 l 1,4,-1
155 341 m 1,8,-1
 479 340 l 1,9,-1
 493 420 l 1,10,-1
 168 420 l 1,11,-1
 155 341 l 1,8,-1
169 700 m 1,12,-1
 51 0 l 1,13,-1
 133 0 l 1,14,-1
 254 700 l 1,15,-1
 169 700 l 1,12,-1
207 771 m 1,16,-1
 548 770 l 1,17,-1
 560 845 l 1,18,-1
 219 845 l 1,19,-1
 207 771 l 1,16,-1
EndSplineSet
EndChar

StartChar: Ebreve
Encoding: 276 276 28
Width: 534
GlyphClass: 2
Flags: W
LayerCount: 2
Fore
SplineSet
97 0 m 1,0,-1
 441 0 l 1,1,-1
 454 80 l 1,2,-1
 110 80 l 1,3,-1
 97 0 l 1,0,-1
203 621 m 1,4,-1
 546 620 l 1,5,-1
 560 700 l 1,6,-1
 216 700 l 1,7,-1
 203 621 l 1,4,-1
155 341 m 1,8,-1
 479 340 l 1,9,-1
 493 420 l 1,10,-1
 168 420 l 1,11,-1
 155 341 l 1,8,-1
169 700 m 1,12,-1
 51 0 l 1,13,-1
 133 0 l 1,14,-1
 254 700 l 1,15,-1
 169 700 l 1,12,-1
246 910 m 1,16,17
 243 874 243 874 256.5 842 c 128,-1,18
 270 810 270 810 300.5 790.5 c 128,-1,19
 331 771 331 771 379 771 c 0,20,21
 428 771 428 771 463.5 790.5 c 128,-1,22
 499 810 499 810 522 841.5 c 128,-1,23
 545 873 545 873 554 909 c 1,24,-1
 483 910 l 1,25,26
 477 894 477 894 465 876.5 c 128,-1,27
 453 859 453 859 434 847.5 c 128,-1,28
 415 836 415 836 384 836 c 0,29,30
 355 836 355 836 339.5 847.5 c 128,-1,31
 324 859 324 859 319 876.5 c 128,-1,32
 314 894 314 894 315 910 c 1,33,-1
 246 910 l 1,16,17
EndSplineSet
EndChar

StartChar: Edotaccent
Encoding: 278 278 29
Width: 534
GlyphClass: 2
Flags: W
LayerCount: 2
Fore
SplineSet
97 0 m 1,0,-1
 441 0 l 1,1,-1
 454 80 l 1,2,-1
 110 80 l 1,3,-1
 97 0 l 1,0,-1
203 621 m 1,4,-1
 546 620 l 1,5,-1
 560 700 l 1,6,-1
 216 700 l 1,7,-1
 203 621 l 1,4,-1
155 341 m 1,8,-1
 479 340 l 1,9,-1
 493 420 l 1,10,-1
 168 420 l 1,11,-1
 155 341 l 1,8,-1
169 700 m 1,12,-1
 51 0 l 1,13,-1
 133 0 l 1,14,-1
 254 700 l 1,15,-1
 169 700 l 1,12,-1
332 826 m 0,16,17
 330 805 330 805 343 788.5 c 128,-1,18
 356 772 356 772 377 771 c 256,19,20
 398 770 398 770 418 787 c 128,-1,21
 438 804 438 804 440 824 c 0,22,23
 442 845 442 845 428.5 862 c 128,-1,24
 415 879 415 879 394 880 c 256,25,26
 373 881 373 881 353.5 863.5 c 128,-1,27
 334 846 334 846 332 826 c 0,16,17
EndSplineSet
EndChar

StartChar: Eogonek
Encoding: 280 280 30
Width: 534
GlyphClass: 2
Flags: W
LayerCount: 2
Fore
SplineSet
97 0 m 1,0,-1
 441 0 l 1,1,-1
 454 80 l 1,2,-1
 110 80 l 1,3,-1
 97 0 l 1,0,-1
203 621 m 1,4,-1
 546 620 l 1,5,-1
 560 700 l 1,6,-1
 216 700 l 1,7,-1
 203 621 l 1,4,-1
155 341 m 1,8,-1
 479 340 l 1,9,-1
 493 420 l 1,10,-1
 168 420 l 1,11,-1
 155 341 l 1,8,-1
169 700 m 1,12,-1
 51 0 l 1,13,-1
 133 0 l 1,14,-1
 254 700 l 1,15,-1
 169 700 l 1,12,-1
304 -130 m 1,16,17
 294 -137 294 -137 281.5 -143.5 c 128,-1,18
 269 -150 269 -150 252 -149 c 0,19,20
 231 -147 231 -147 222 -134.5 c 128,-1,21
 213 -122 213 -122 215 -100 c 0,22,23
 219 -78 219 -78 236 -59.5 c 128,-1,24
 253 -41 253 -41 276.5 -26 c 128,-1,25
 300 -11 300 -11 323 0 c 1,26,-1
 285 25 l 1,27,28
 252 9 252 9 219 -12 c 128,-1,29
 186 -33 186 -33 162.5 -59.5 c 128,-1,30
 139 -86 139 -86 133 -119 c 0,31,32
 126 -165 126 -165 155 -192.5 c 128,-1,33
 184 -220 184 -220 238 -219 c 0,34,35
 267 -219 267 -219 290 -207.5 c 128,-1,36
 313 -196 313 -196 329 -181 c 1,37,-1
 304 -130 l 1,16,17
EndSplineSet
EndChar

StartChar: Ecaron
Encoding: 282 282 31
Width: 534
GlyphClass: 2
Flags: W
LayerCount: 2
Fore
SplineSet
97 0 m 1,0,-1
 441 0 l 1,1,-1
 454 80 l 1,2,-1
 110 80 l 1,3,-1
 97 0 l 1,0,-1
203 621 m 1,4,-1
 546 620 l 1,5,-1
 560 700 l 1,6,-1
 216 700 l 1,7,-1
 203 621 l 1,4,-1
155 341 m 1,8,-1
 479 340 l 1,9,-1
 493 420 l 1,10,-1
 168 420 l 1,11,-1
 155 341 l 1,8,-1
169 700 m 1,12,-1
 51 0 l 1,13,-1
 133 0 l 1,14,-1
 254 700 l 1,15,-1
 169 700 l 1,12,-1
388 856 m 1,16,-1
 298 950 l 1,17,-1
 244 911 l 1,18,-1
 378 770 l 1,19,-1
 556 909 l 1,20,-1
 512 950 l 1,21,-1
 388 856 l 1,16,-1
EndSplineSet
EndChar

StartChar: F
Encoding: 70 70 32
Width: 485
GlyphClass: 2
Flags: W
LayerCount: 2
Fore
SplineSet
203 620 m 1,0,-1
 508 620 l 1,1,-1
 521 700 l 1,2,-1
 216 700 l 1,3,-1
 203 620 l 1,0,-1
155 341 m 1,4,-1
 450 340 l 1,5,-1
 464 420 l 1,6,-1
 168 420 l 1,7,-1
 155 341 l 1,4,-1
169 700 m 1,8,-1
 51 0 l 1,9,-1
 133 0 l 1,10,-1
 254 700 l 1,11,-1
 169 700 l 1,8,-1
EndSplineSet
EndChar

StartChar: G
Encoding: 71 71 33
Width: 752
GlyphClass: 2
Flags: W
LayerCount: 2
Fore
SplineSet
412 275 m 1,0,-1
 635 275 l 1,1,2
 618 236 618 236 593 200 c 128,-1,3
 568 164 568 164 534.5 136 c 128,-1,4
 501 108 501 108 459 92 c 128,-1,5
 417 76 417 76 366 76 c 0,6,7
 310 76 310 76 267.5 98.5 c 128,-1,8
 225 121 225 121 198.5 159.5 c 128,-1,9
 172 198 172 198 162 247 c 128,-1,10
 152 296 152 296 160 350 c 0,11,12
 169 407 169 407 196.5 457 c 128,-1,13
 224 507 224 507 265.5 544.5 c 128,-1,14
 307 582 307 582 358 603.5 c 128,-1,15
 409 625 409 625 466 625 c 0,16,17
 538 625 538 625 590 594.5 c 128,-1,18
 642 564 642 564 669 507 c 1,19,-1
 735 560 l 1,20,21
 698 634 698 634 631 672.5 c 128,-1,22
 564 711 564 711 475 710 c 0,23,24
 398 710 398 710 329.5 682 c 128,-1,25
 261 654 261 654 207 605 c 128,-1,26
 153 556 153 556 118 490.5 c 128,-1,27
 83 425 83 425 71 350 c 0,28,29
 61 279 61 279 75.5 214 c 128,-1,30
 90 149 90 149 128 98.5 c 128,-1,31
 166 48 166 48 224 19 c 128,-1,32
 282 -10 282 -10 358 -10 c 0,33,34
 438 -10 438 -10 503 20 c 128,-1,35
 568 50 568 50 617 101.5 c 128,-1,36
 666 153 666 153 697.5 218.5 c 128,-1,37
 729 284 729 284 742 355 c 1,38,-1
 426 355 l 1,39,-1
 412 275 l 1,0,-1
EndSplineSet
EndChar

StartChar: Gcircumflex
Encoding: 284 284 34
Width: 752
GlyphClass: 2
Flags: W
LayerCount: 2
Fore
SplineSet
412 275 m 1,0,-1
 640 275 l 1,1,2
 622 236 622 236 596.5 200 c 128,-1,3
 571 164 571 164 536.5 136 c 128,-1,4
 502 108 502 108 459.5 92 c 128,-1,5
 417 76 417 76 366 76 c 0,6,7
 310 76 310 76 267.5 98.5 c 128,-1,8
 225 121 225 121 198.5 159.5 c 128,-1,9
 172 198 172 198 162 247 c 128,-1,10
 152 296 152 296 160 350 c 0,11,12
 169 407 169 407 196.5 457 c 128,-1,13
 224 507 224 507 265.5 544.5 c 128,-1,14
 307 582 307 582 358 603.5 c 128,-1,15
 409 625 409 625 466 625 c 0,16,17
 538 625 538 625 590 594.5 c 128,-1,18
 642 564 642 564 669 507 c 1,19,-1
 735 560 l 1,20,21
 698 634 698 634 631 672.5 c 128,-1,22
 564 711 564 711 475 710 c 0,23,24
 398 710 398 710 329.5 682 c 128,-1,25
 261 654 261 654 207 605 c 128,-1,26
 153 556 153 556 118 490.5 c 128,-1,27
 83 425 83 425 71 350 c 0,28,29
 61 279 61 279 75.5 214 c 128,-1,30
 90 149 90 149 128 98.5 c 128,-1,31
 166 48 166 48 224 19 c 128,-1,32
 282 -10 282 -10 358 -10 c 0,33,34
 438 -10 438 -10 503 20 c 128,-1,35
 568 50 568 50 617 101.5 c 128,-1,36
 666 153 666 153 697.5 218.5 c 128,-1,37
 729 284 729 284 742 355 c 1,38,-1
 426 355 l 1,39,-1
 412 275 l 1,0,-1
507 865 m 1,40,-1
 597 771 l 1,41,-1
 651 809 l 1,42,-1
 517 950 l 1,43,-1
 339 812 l 1,44,-1
 383 771 l 1,45,-1
 507 865 l 1,40,-1
EndSplineSet
EndChar

StartChar: Gbreve
Encoding: 286 286 35
Width: 752
GlyphClass: 2
Flags: W
LayerCount: 2
Fore
SplineSet
412 275 m 1,0,-1
 640 275 l 1,1,2
 622 236 622 236 596.5 200 c 128,-1,3
 571 164 571 164 536.5 136 c 128,-1,4
 502 108 502 108 459.5 92 c 128,-1,5
 417 76 417 76 366 76 c 0,6,7
 310 76 310 76 267.5 98.5 c 128,-1,8
 225 121 225 121 198.5 159.5 c 128,-1,9
 172 198 172 198 162 247 c 128,-1,10
 152 296 152 296 160 350 c 0,11,12
 169 407 169 407 196.5 457 c 128,-1,13
 224 507 224 507 265.5 544.5 c 128,-1,14
 307 582 307 582 358 603.5 c 128,-1,15
 409 625 409 625 466 625 c 0,16,17
 538 625 538 625 590 594.5 c 128,-1,18
 642 564 642 564 669 507 c 1,19,-1
 735 560 l 1,20,21
 698 634 698 634 631 672.5 c 128,-1,22
 564 711 564 711 475 710 c 0,23,24
 398 710 398 710 329.5 682 c 128,-1,25
 261 654 261 654 207 605 c 128,-1,26
 153 556 153 556 118 490.5 c 128,-1,27
 83 425 83 425 71 350 c 0,28,29
 61 279 61 279 75.5 214 c 128,-1,30
 90 149 90 149 128 98.5 c 128,-1,31
 166 48 166 48 224 19 c 128,-1,32
 282 -10 282 -10 358 -10 c 0,33,34
 438 -10 438 -10 503 20 c 128,-1,35
 568 50 568 50 617 101.5 c 128,-1,36
 666 153 666 153 697.5 218.5 c 128,-1,37
 729 284 729 284 742 355 c 1,38,-1
 426 355 l 1,39,-1
 412 275 l 1,0,-1
358 910 m 1,40,41
 355 874 355 874 368.5 842 c 128,-1,42
 382 810 382 810 412 790.5 c 128,-1,43
 442 771 442 771 490 771 c 0,44,45
 539 771 539 771 574.5 790.5 c 128,-1,46
 610 810 610 810 633.5 841.5 c 128,-1,47
 657 873 657 873 666 909 c 1,48,-1
 595 910 l 1,49,50
 589 894 589 894 577.5 876.5 c 128,-1,51
 566 859 566 859 546.5 847.5 c 128,-1,52
 527 836 527 836 496 836 c 0,53,54
 467 836 467 836 451.5 847.5 c 128,-1,55
 436 859 436 859 431 876.5 c 128,-1,56
 426 894 426 894 427 910 c 1,57,-1
 358 910 l 1,40,41
EndSplineSet
EndChar

StartChar: Gdotaccent
Encoding: 288 288 36
Width: 752
GlyphClass: 2
Flags: W
LayerCount: 2
Fore
SplineSet
412 275 m 1,0,-1
 640 275 l 1,1,2
 622 236 622 236 596.5 200 c 128,-1,3
 571 164 571 164 536.5 136 c 128,-1,4
 502 108 502 108 459.5 92 c 128,-1,5
 417 76 417 76 366 76 c 0,6,7
 310 76 310 76 267.5 98.5 c 128,-1,8
 225 121 225 121 198.5 159.5 c 128,-1,9
 172 198 172 198 162 247 c 128,-1,10
 152 296 152 296 160 350 c 0,11,12
 169 407 169 407 196.5 457 c 128,-1,13
 224 507 224 507 265.5 544.5 c 128,-1,14
 307 582 307 582 358 603.5 c 128,-1,15
 409 625 409 625 466 625 c 0,16,17
 538 625 538 625 590 594.5 c 128,-1,18
 642 564 642 564 669 507 c 1,19,-1
 735 560 l 1,20,21
 698 634 698 634 631 672.5 c 128,-1,22
 564 711 564 711 475 710 c 0,23,24
 398 710 398 710 329.5 682 c 128,-1,25
 261 654 261 654 207 605 c 128,-1,26
 153 556 153 556 118 490.5 c 128,-1,27
 83 425 83 425 71 350 c 0,28,29
 61 279 61 279 75.5 214 c 128,-1,30
 90 149 90 149 128 98.5 c 128,-1,31
 166 48 166 48 224 19 c 128,-1,32
 282 -10 282 -10 358 -10 c 0,33,34
 438 -10 438 -10 503 20 c 128,-1,35
 568 50 568 50 617 101.5 c 128,-1,36
 666 153 666 153 697.5 218.5 c 128,-1,37
 729 284 729 284 742 355 c 1,38,-1
 426 355 l 1,39,-1
 412 275 l 1,0,-1
443 826 m 0,40,41
 441 805 441 805 454.5 788.5 c 128,-1,42
 468 772 468 772 489 771 c 256,43,44
 510 770 510 770 529.5 787 c 128,-1,45
 549 804 549 804 551 824 c 0,46,47
 553 845 553 845 540 862 c 128,-1,48
 527 879 527 879 505 880 c 0,49,50
 485 881 485 881 465 863.5 c 128,-1,51
 445 846 445 846 443 826 c 0,40,41
EndSplineSet
EndChar

StartChar: uni0122
Encoding: 290 290 37
Width: 752
GlyphClass: 2
Flags: W
LayerCount: 2
Fore
SplineSet
412 275 m 1,0,-1
 640 275 l 1,1,2
 622 236 622 236 596.5 200 c 128,-1,3
 571 164 571 164 536.5 136 c 128,-1,4
 502 108 502 108 459.5 92 c 128,-1,5
 417 76 417 76 366 76 c 0,6,7
 310 76 310 76 267.5 98.5 c 128,-1,8
 225 121 225 121 198.5 159.5 c 128,-1,9
 172 198 172 198 162 247 c 128,-1,10
 152 296 152 296 160 350 c 0,11,12
 169 407 169 407 196.5 457 c 128,-1,13
 224 507 224 507 265.5 544.5 c 128,-1,14
 307 582 307 582 358 603.5 c 128,-1,15
 409 625 409 625 466 625 c 0,16,17
 538 625 538 625 590 594.5 c 128,-1,18
 642 564 642 564 669 507 c 1,19,-1
 735 560 l 1,20,21
 698 634 698 634 631 672.5 c 128,-1,22
 564 711 564 711 475 710 c 0,23,24
 398 710 398 710 329.5 682 c 128,-1,25
 261 654 261 654 207 605 c 128,-1,26
 153 556 153 556 118 490.5 c 128,-1,27
 83 425 83 425 71 350 c 0,28,29
 61 279 61 279 75.5 214 c 128,-1,30
 90 149 90 149 128 98.5 c 128,-1,31
 166 48 166 48 224 19 c 128,-1,32
 282 -10 282 -10 358 -10 c 0,33,34
 438 -10 438 -10 503 20 c 128,-1,35
 568 50 568 50 617 101.5 c 128,-1,36
 666 153 666 153 697.5 218.5 c 128,-1,37
 729 284 729 284 742 355 c 1,38,-1
 426 355 l 1,39,-1
 412 275 l 1,0,-1
346 -71 m 1,40,-1
 218 -328 l 1,41,-1
 273 -349 l 1,42,-1
 423 -102 l 1,43,-1
 346 -71 l 1,40,-1
EndSplineSet
EndChar

StartChar: H
Encoding: 72 72 38
Width: 694
GlyphClass: 2
Flags: W
LayerCount: 2
Fore
SplineSet
155 341 m 1,0,-1
 622 341 l 1,1,-1
 635 420 l 1,2,-1
 168 420 l 1,3,-1
 155 341 l 1,0,-1
625 700 m 1,4,-1
 507 0 l 1,5,-1
 589 0 l 1,6,-1
 711 700 l 1,7,-1
 625 700 l 1,4,-1
169 700 m 1,8,-1
 51 0 l 1,9,-1
 133 0 l 1,10,-1
 254 700 l 1,11,-1
 169 700 l 1,8,-1
EndSplineSet
EndChar

StartChar: Hcircumflex
Encoding: 292 292 39
Width: 694
GlyphClass: 2
Flags: W
LayerCount: 2
Fore
SplineSet
155 341 m 1,0,-1
 622 340 l 1,1,-1
 635 420 l 1,2,-1
 168 420 l 1,3,-1
 155 341 l 1,0,-1
625 700 m 1,4,-1
 507 0 l 1,5,-1
 589 0 l 1,6,-1
 711 700 l 1,7,-1
 625 700 l 1,4,-1
169 700 m 1,8,-1
 51 0 l 1,9,-1
 133 0 l 1,10,-1
 254 700 l 1,11,-1
 169 700 l 1,8,-1
471 865 m 1,12,-1
 561 771 l 1,13,-1
 615 809 l 1,14,-1
 481 950 l 1,15,-1
 303 812 l 1,16,-1
 347 771 l 1,17,-1
 471 865 l 1,12,-1
EndSplineSet
EndChar

StartChar: I
Encoding: 73 73 40
Width: 238
GlyphClass: 2
Flags: W
LayerCount: 2
Fore
SplineSet
169 700 m 1,0,-1
 51 0 l 1,1,-1
 133 0 l 1,2,-1
 254 700 l 1,3,-1
 169 700 l 1,0,-1
EndSplineSet
EndChar

StartChar: Igrave
Encoding: 204 204 41
Width: 238
GlyphClass: 2
Flags: W
LayerCount: 2
Fore
SplineSet
169 700 m 1,0,-1
 51 0 l 1,1,-1
 133 0 l 1,2,-1
 254 700 l 1,3,-1
 169 700 l 1,0,-1
122 921 m 1,4,-1
 274 770 l 1,5,-1
 322 799 l 1,6,-1
 201 960 l 1,7,-1
 122 921 l 1,4,-1
EndSplineSet
EndChar

StartChar: Iacute
Encoding: 205 205 42
Width: 238
GlyphClass: 2
Flags: W
LayerCount: 2
Fore
SplineSet
169 700 m 1,0,-1
 51 0 l 1,1,-1
 133 0 l 1,2,-1
 254 700 l 1,3,-1
 169 700 l 1,0,-1
375 918 m 1,4,-1
 308 960 l 1,5,-1
 136 802 l 1,6,-1
 176 771 l 1,7,-1
 375 918 l 1,4,-1
EndSplineSet
EndChar

StartChar: Icircumflex
Encoding: 206 206 43
Width: 238
GlyphClass: 2
Flags: W
LayerCount: 2
Fore
SplineSet
169 700 m 1,0,-1
 51 0 l 1,1,-1
 133 0 l 1,2,-1
 254 700 l 1,3,-1
 169 700 l 1,0,-1
242 865 m 1,4,-1
 332 771 l 1,5,-1
 386 809 l 1,6,-1
 252 950 l 1,7,-1
 74 812 l 1,8,-1
 118 771 l 1,9,-1
 242 865 l 1,4,-1
EndSplineSet
EndChar

StartChar: Idieresis
Encoding: 207 207 44
Width: 238
GlyphClass: 2
Flags: W
LayerCount: 2
Fore
SplineSet
169 700 m 1,0,-1
 51 0 l 1,1,-1
 133 0 l 1,2,-1
 254 700 l 1,3,-1
 169 700 l 1,0,-1
276 826 m 256,4,5
 274 806 274 806 286.5 789 c 128,-1,6
 299 772 299 772 321 771 c 0,7,8
 342 770 342 770 362 787 c 128,-1,9
 382 804 382 804 384 824 c 0,10,11
 386 845 386 845 372.5 862 c 128,-1,12
 359 879 359 879 338 880 c 256,13,14
 317 881 317 881 297.5 863.5 c 128,-1,15
 278 846 278 846 276 826 c 256,4,5
82 826 m 256,16,17
 80 806 80 806 92.5 789 c 128,-1,18
 105 772 105 772 127 771 c 0,19,20
 148 770 148 770 168 787 c 128,-1,21
 188 804 188 804 190 824 c 0,22,23
 192 845 192 845 178.5 862 c 128,-1,24
 165 879 165 879 143 880 c 0,25,26
 123 881 123 881 103.5 863.5 c 128,-1,27
 84 846 84 846 82 826 c 256,16,17
EndSplineSet
EndChar

StartChar: Itilde
Encoding: 296 296 45
Width: 238
GlyphClass: 2
Flags: W
LayerCount: 2
Fore
SplineSet
169 700 m 1,0,-1
 51 0 l 1,1,-1
 133 0 l 1,2,-1
 254 700 l 1,3,-1
 169 700 l 1,0,-1
69 809 m 1,4,-1
 117 771 l 1,5,6
 123 785 123 785 136 802.5 c 128,-1,7
 149 820 149 820 175 821 c 0,8,9
 196 822 196 822 212 810.5 c 128,-1,10
 228 799 228 799 245 787.5 c 128,-1,11
 262 776 262 776 285 775 c 0,12,13
 310 774 310 774 331 785 c 128,-1,14
 352 796 352 796 369.5 812.5 c 128,-1,15
 387 829 387 829 398 846 c 1,16,-1
 358 890 l 1,17,18
 344 871 344 871 328 857.5 c 128,-1,19
 312 844 312 844 295 843 c 0,20,21
 272 842 272 842 256.5 853.5 c 128,-1,22
 241 865 241 865 224.5 877 c 128,-1,23
 208 889 208 889 182 889 c 0,24,25
 158 890 158 890 136 878.5 c 128,-1,26
 114 867 114 867 96.5 848.5 c 128,-1,27
 79 830 79 830 69 809 c 1,4,-1
EndSplineSet
EndChar

StartChar: Imacron
Encoding: 298 298 46
Width: 238
GlyphClass: 2
Flags: W
LayerCount: 2
Fore
SplineSet
169 700 m 1,0,-1
 51 0 l 1,1,-1
 133 0 l 1,2,-1
 254 700 l 1,3,-1
 169 700 l 1,0,-1
54 771 m 1,4,-1
 395 770 l 1,5,-1
 408 845 l 1,6,-1
 67 845 l 1,7,-1
 54 771 l 1,4,-1
EndSplineSet
EndChar

StartChar: Ibreve
Encoding: 300 300 47
Width: 238
GlyphClass: 2
Flags: W
LayerCount: 2
Fore
SplineSet
169 700 m 1,0,-1
 51 0 l 1,1,-1
 133 0 l 1,2,-1
 254 700 l 1,3,-1
 169 700 l 1,0,-1
94 910 m 1,4,5
 91 874 91 874 104.5 842 c 128,-1,6
 118 810 118 810 148.5 790.5 c 128,-1,7
 179 771 179 771 227 771 c 0,8,9
 276 771 276 771 311.5 790.5 c 128,-1,10
 347 810 347 810 370 841.5 c 128,-1,11
 393 873 393 873 402 909 c 1,12,-1
 331 910 l 1,13,14
 325 894 325 894 313 876.5 c 128,-1,15
 301 859 301 859 282 847.5 c 128,-1,16
 263 836 263 836 232 836 c 0,17,18
 203 836 203 836 188 847.5 c 128,-1,19
 173 859 173 859 167.5 876.5 c 128,-1,20
 162 894 162 894 163 910 c 1,21,-1
 94 910 l 1,4,5
EndSplineSet
EndChar

StartChar: Iogonek
Encoding: 302 302 48
Width: 238
GlyphClass: 2
Flags: W
LayerCount: 2
Fore
SplineSet
169 700 m 1,0,-1
 51 0 l 1,1,-1
 133 0 l 1,2,-1
 254 700 l 1,3,-1
 169 700 l 1,0,-1
115 -130 m 1,4,5
 104 -137 104 -137 91.5 -143.5 c 128,-1,6
 79 -150 79 -150 62 -149 c 0,7,8
 42 -147 42 -147 33 -134.5 c 128,-1,9
 24 -122 24 -122 26 -100 c 0,10,11
 30 -78 30 -78 47 -59.5 c 128,-1,12
 64 -41 64 -41 87.5 -26 c 128,-1,13
 111 -11 111 -11 134 0 c 1,14,-1
 96 25 l 1,15,16
 63 9 63 9 30 -12 c 128,-1,17
 -3 -33 -3 -33 -26.5 -59.5 c 128,-1,18
 -50 -86 -50 -86 -56 -119 c 0,19,20
 -60 -149 -60 -149 -48.5 -172 c 128,-1,21
 -37 -195 -37 -195 -12 -207 c 128,-1,22
 13 -219 13 -219 49 -219 c 0,23,24
 78 -219 78 -219 101 -207.5 c 128,-1,25
 124 -196 124 -196 140 -181 c 1,26,-1
 115 -130 l 1,4,5
EndSplineSet
EndChar

StartChar: Idotaccent
Encoding: 304 304 49
Width: 238
GlyphClass: 2
Flags: W
LayerCount: 2
Fore
SplineSet
169 700 m 1,0,-1
 51 0 l 1,1,-1
 133 0 l 1,2,-1
 254 700 l 1,3,-1
 169 700 l 1,0,-1
178 826 m 0,4,5
 176 805 176 805 189.5 788.5 c 128,-1,6
 203 772 203 772 224 771 c 256,7,8
 245 770 245 770 264.5 787 c 128,-1,9
 284 804 284 804 286 824 c 0,10,11
 288 845 288 845 275 862 c 128,-1,12
 262 879 262 879 241 880 c 256,13,14
 220 881 220 881 200 863.5 c 128,-1,15
 180 846 180 846 178 826 c 0,4,5
EndSplineSet
EndChar

StartChar: J
Encoding: 74 74 50
Width: 233
GlyphClass: 2
Flags: W
LayerCount: 2
Fore
SplineSet
-112 -104 m 1,0,-1
 -164 -169 l 1,1,2
 -148 -188 -148 -188 -119.5 -203.5 c 128,-1,3
 -91 -219 -91 -219 -55 -219 c 0,4,5
 -7 -219 -7 -219 29 -199.5 c 128,-1,6
 65 -180 65 -180 88.5 -144 c 128,-1,7
 112 -108 112 -108 120 -60 c 2,8,-1
 249 700 l 1,9,-1
 170 700 l 1,10,-1
 41 -50 l 2,11,12
 36 -90 36 -90 11.5 -114 c 128,-1,13
 -13 -138 -13 -138 -42 -140 c 0,14,15
 -66 -141 -66 -141 -83.5 -130.5 c 128,-1,16
 -101 -120 -101 -120 -112 -104 c 1,0,-1
EndSplineSet
EndChar

StartChar: Jcircumflex
Encoding: 308 308 51
Width: 233
GlyphClass: 2
Flags: W
LayerCount: 2
Fore
SplineSet
-112 -104 m 1,0,-1
 -164 -169 l 1,1,2
 -148 -188 -148 -188 -119.5 -203.5 c 128,-1,3
 -91 -219 -91 -219 -55 -219 c 0,4,5
 -7 -219 -7 -219 29 -199.5 c 128,-1,6
 65 -180 65 -180 88.5 -144 c 128,-1,7
 112 -108 112 -108 120 -60 c 2,8,-1
 249 700 l 1,9,-1
 170 700 l 1,10,-1
 41 -50 l 2,11,12
 35 -90 35 -90 11 -114 c 128,-1,13
 -13 -138 -13 -138 -42 -140 c 0,14,15
 -66 -141 -66 -141 -83.5 -130.5 c 128,-1,16
 -101 -120 -101 -120 -112 -104 c 1,0,-1
240 865 m 1,17,-1
 330 771 l 1,18,-1
 384 809 l 1,19,-1
 250 950 l 1,20,-1
 72 812 l 1,21,-1
 116 771 l 1,22,-1
 240 865 l 1,17,-1
EndSplineSet
EndChar

StartChar: K
Encoding: 75 75 52
Width: 548
GlyphClass: 2
Flags: W
LayerCount: 2
Fore
SplineSet
169 700 m 1,0,-1
 51 0 l 1,1,-1
 133 0 l 1,2,-1
 254 700 l 1,3,-1
 169 700 l 1,0,-1
517 700 m 1,4,-1
 171 373 l 1,5,-1
 416 0 l 1,6,-1
 515 0 l 1,7,-1
 271 370 l 1,8,-1
 624 700 l 1,9,-1
 517 700 l 1,4,-1
EndSplineSet
EndChar

StartChar: uni0136
Encoding: 310 310 53
Width: 548
GlyphClass: 2
Flags: W
LayerCount: 2
Fore
SplineSet
169 700 m 1,0,-1
 51 0 l 1,1,-1
 133 0 l 1,2,-1
 254 700 l 1,3,-1
 169 700 l 1,0,-1
517 700 m 1,4,-1
 171 373 l 1,5,-1
 416 0 l 1,6,-1
 515 0 l 1,7,-1
 271 370 l 1,8,-1
 624 700 l 1,9,-1
 517 700 l 1,4,-1
275 -61 m 1,10,-1
 147 -318 l 1,11,-1
 202 -339 l 1,12,-1
 352 -92 l 1,13,-1
 275 -61 l 1,10,-1
EndSplineSet
EndChar

StartChar: L
Encoding: 76 76 54
Width: 437
GlyphClass: 2
Flags: W
LayerCount: 2
Fore
SplineSet
170 700 m 1,0,-1
 50 0 l 1,1,-1
 401 0 l 1,2,-1
 415 80 l 1,3,-1
 148 80 l 1,4,-1
 254 700 l 1,5,-1
 170 700 l 1,0,-1
EndSplineSet
EndChar

StartChar: Lacute
Encoding: 313 313 55
Width: 437
GlyphClass: 2
Flags: W
LayerCount: 2
Fore
SplineSet
170 700 m 1,0,-1
 50 0 l 1,1,-1
 401 0 l 1,2,-1
 415 80 l 1,3,-1
 148 80 l 1,4,-1
 254 700 l 1,5,-1
 170 700 l 1,0,-1
509 918 m 1,6,-1
 441 960 l 1,7,-1
 269 802 l 1,8,-1
 310 771 l 1,9,-1
 509 918 l 1,6,-1
EndSplineSet
EndChar

StartChar: uni013B
Encoding: 315 315 56
Width: 437
GlyphClass: 2
Flags: W
LayerCount: 2
Fore
SplineSet
170 700 m 1,0,-1
 50 0 l 1,1,-1
 401 0 l 1,2,-1
 415 80 l 1,3,-1
 148 80 l 1,4,-1
 254 700 l 1,5,-1
 170 700 l 1,0,-1
217 -61 m 1,6,-1
 88 -318 l 1,7,-1
 144 -339 l 1,8,-1
 293 -92 l 1,9,-1
 217 -61 l 1,6,-1
EndSplineSet
EndChar

StartChar: Lcaron
Encoding: 317 317 57
Width: 437
GlyphClass: 2
Flags: W
LayerCount: 2
Fore
SplineSet
170 700 m 1,0,-1
 50 0 l 1,1,-1
 401 0 l 1,2,-1
 415 80 l 1,3,-1
 148 80 l 1,4,-1
 254 700 l 1,5,-1
 170 700 l 1,0,-1
411 709 m 1,6,-1
 282 452 l 1,7,-1
 337 431 l 1,8,-1
 487 678 l 1,9,-1
 411 709 l 1,6,-1
EndSplineSet
EndChar

StartChar: M
Encoding: 77 77 58
Width: 786
GlyphClass: 2
Flags: W
LayerCount: 2
Fore
SplineSet
227 473 m 1,0,-1
 378 64 l 1,1,-1
 667 469 l 1,2,-1
 637 0 l 1,3,-1
 720 0 l 1,4,-1
 766 739 l 1,5,-1
 404 230 l 1,6,-1
 220 736 l 1,7,-1
 10 0 l 1,8,-1
 95 0 l 1,9,-1
 227 473 l 1,0,-1
EndSplineSet
EndChar

StartChar: N
Encoding: 78 78 59
Width: 752
GlyphClass: 2
Flags: W
LayerCount: 2
Fore
SplineSet
684 700 m 1,0,-1
 594 179 l 1,1,-1
 175 734 l 1,2,-1
 49 0 l 1,3,-1
 134 0 l 1,4,-1
 224 522 l 1,5,-1
 642 -34 l 1,6,-1
 768 700 l 1,7,-1
 684 700 l 1,0,-1
EndSplineSet
EndChar

StartChar: Ntilde
Encoding: 209 209 60
Width: 752
GlyphClass: 2
Flags: W
LayerCount: 2
Fore
SplineSet
684 700 m 1,0,-1
 594 179 l 1,1,-1
 175 734 l 1,2,-1
 49 0 l 1,3,-1
 134 0 l 1,4,-1
 224 522 l 1,5,-1
 642 -34 l 1,6,-1
 768 700 l 1,7,-1
 684 700 l 1,0,-1
316 794 m 1,8,-1
 364 756 l 1,9,10
 370 770 370 770 383 787.5 c 128,-1,11
 396 805 396 805 422 806 c 0,12,13
 443 807 443 807 459 795.5 c 128,-1,14
 475 784 475 784 491.5 772.5 c 128,-1,15
 508 761 508 761 531 760 c 0,16,17
 556 759 556 759 577.5 770 c 128,-1,18
 599 781 599 781 616.5 797.5 c 128,-1,19
 634 814 634 814 645 831 c 1,20,-1
 605 875 l 1,21,22
 591 856 591 856 575 842.5 c 128,-1,23
 559 829 559 829 542 828 c 0,24,25
 519 827 519 827 503.5 838.5 c 128,-1,26
 488 850 488 850 471.5 862 c 128,-1,27
 455 874 455 874 429 874 c 0,28,29
 405 875 405 875 383 863.5 c 128,-1,30
 361 852 361 852 343.5 833.5 c 128,-1,31
 326 815 326 815 316 794 c 1,8,-1
EndSplineSet
EndChar

StartChar: Nacute
Encoding: 323 323 61
Width: 752
GlyphClass: 2
Flags: W
LayerCount: 2
Fore
SplineSet
684 700 m 1,0,-1
 594 179 l 1,1,-1
 175 734 l 1,2,-1
 49 0 l 1,3,-1
 134 0 l 1,4,-1
 224 522 l 1,5,-1
 642 -34 l 1,6,-1
 768 700 l 1,7,-1
 684 700 l 1,0,-1
672 903 m 1,8,-1
 603 945 l 1,9,-1
 431 787 l 1,10,-1
 473 756 l 1,11,-1
 672 903 l 1,8,-1
EndSplineSet
EndChar

StartChar: uni0145
Encoding: 325 325 62
Width: 752
GlyphClass: 2
Flags: W
LayerCount: 2
Fore
SplineSet
352 -36 m 1,0,-1
 224 -293 l 1,1,-1
 279 -314 l 1,2,-1
 429 -67 l 1,3,-1
 352 -36 l 1,0,-1
684 700 m 1,4,-1
 594 179 l 1,5,-1
 175 734 l 1,6,-1
 49 0 l 1,7,-1
 134 0 l 1,8,-1
 224 522 l 1,9,-1
 642 -34 l 1,10,-1
 768 700 l 1,11,-1
 684 700 l 1,4,-1
EndSplineSet
EndChar

StartChar: Ncaron
Encoding: 327 327 63
Width: 752
GlyphClass: 2
Flags: W
LayerCount: 2
Fore
SplineSet
509 881 m 1,0,-1
 419 975 l 1,1,-1
 365 936 l 1,2,-1
 499 795 l 1,3,-1
 677 934 l 1,4,-1
 633 975 l 1,5,-1
 509 881 l 1,0,-1
684 700 m 1,6,-1
 594 179 l 1,7,-1
 175 734 l 1,8,-1
 49 0 l 1,9,-1
 134 0 l 1,10,-1
 224 522 l 1,11,-1
 642 -34 l 1,12,-1
 768 700 l 1,13,-1
 684 700 l 1,6,-1
EndSplineSet
EndChar

StartChar: O
Encoding: 79 79 64
Width: 767
GlyphClass: 2
Flags: W
LayerCount: 2
Fore
SplineSet
160 350 m 0,0,1
 169 406 169 406 196 456 c 128,-1,2
 223 506 223 506 264 544 c 128,-1,3
 305 582 305 582 356.5 603.5 c 128,-1,4
 408 625 408 625 466 625 c 0,5,6
 523 625 523 625 565.5 602 c 128,-1,7
 608 579 608 579 635 540 c 128,-1,8
 662 501 662 501 671.5 452 c 128,-1,9
 681 403 681 403 673 350 c 0,10,11
 664 294 664 294 636.5 244.5 c 128,-1,12
 609 195 609 195 568 157 c 128,-1,13
 527 119 527 119 475.5 97.5 c 128,-1,14
 424 76 424 76 366 76 c 0,15,16
 309 76 309 76 266.5 99 c 128,-1,17
 224 122 224 122 197.5 160.5 c 128,-1,18
 171 199 171 199 161.5 248 c 128,-1,19
 152 297 152 297 160 350 c 0,0,1
71 350 m 0,20,21
 61 280 61 280 75.5 215.5 c 128,-1,22
 90 151 90 151 128 100.5 c 128,-1,23
 166 50 166 50 224 20 c 128,-1,24
 282 -10 282 -10 358 -10 c 0,25,26
 435 -10 435 -10 503 18.5 c 128,-1,27
 571 47 571 47 625 96.5 c 128,-1,28
 679 146 679 146 714.5 211.5 c 128,-1,29
 750 277 750 277 762 350 c 0,30,31
 772 421 772 421 757 485.5 c 128,-1,32
 742 550 742 550 704 600.5 c 128,-1,33
 666 651 666 651 608 680.5 c 128,-1,34
 550 710 550 710 474 710 c 256,35,36
 398 710 398 710 329.5 682 c 128,-1,37
 261 654 261 654 207 604 c 128,-1,38
 153 554 153 554 117.5 489 c 128,-1,39
 82 424 82 424 71 350 c 0,20,21
EndSplineSet
EndChar

StartChar: Ograve
Encoding: 210 210 65
Width: 767
GlyphClass: 2
Flags: W
LayerCount: 2
Fore
SplineSet
160 350 m 0,0,1
 169 406 169 406 196 456 c 128,-1,2
 223 506 223 506 264 544 c 128,-1,3
 305 582 305 582 356.5 603.5 c 128,-1,4
 408 625 408 625 466 625 c 0,5,6
 523 625 523 625 565.5 602 c 128,-1,7
 608 579 608 579 635 540 c 128,-1,8
 662 501 662 501 671.5 452 c 128,-1,9
 681 403 681 403 673 350 c 0,10,11
 664 294 664 294 636.5 244.5 c 128,-1,12
 609 195 609 195 568 157 c 128,-1,13
 527 119 527 119 475.5 97.5 c 128,-1,14
 424 76 424 76 366 76 c 0,15,16
 309 76 309 76 266.5 99 c 128,-1,17
 224 122 224 122 197.5 160.5 c 128,-1,18
 171 199 171 199 161.5 248 c 128,-1,19
 152 297 152 297 160 350 c 0,0,1
71 350 m 0,20,21
 61 280 61 280 75.5 215.5 c 128,-1,22
 90 151 90 151 128 100.5 c 128,-1,23
 166 50 166 50 224 20 c 128,-1,24
 282 -10 282 -10 358 -10 c 0,25,26
 435 -10 435 -10 503 18.5 c 128,-1,27
 571 47 571 47 625 96.5 c 128,-1,28
 679 146 679 146 714.5 211.5 c 128,-1,29
 750 277 750 277 762 350 c 0,30,31
 772 421 772 421 757 485.5 c 128,-1,32
 742 550 742 550 704 600.5 c 128,-1,33
 666 651 666 651 608 680.5 c 128,-1,34
 550 710 550 710 474 710 c 256,35,36
 398 710 398 710 329.5 682 c 128,-1,37
 261 654 261 654 207 604 c 128,-1,38
 153 554 153 554 117.5 489 c 128,-1,39
 82 424 82 424 71 350 c 0,20,21
396 921 m 1,40,-1
 548 770 l 1,41,-1
 596 799 l 1,42,-1
 475 960 l 1,43,-1
 396 921 l 1,40,-1
EndSplineSet
EndChar

StartChar: Oacute
Encoding: 211 211 66
Width: 767
GlyphClass: 2
Flags: W
LayerCount: 2
Fore
SplineSet
160 350 m 0,0,1
 169 406 169 406 196 456 c 128,-1,2
 223 506 223 506 264 544 c 128,-1,3
 305 582 305 582 356.5 603.5 c 128,-1,4
 408 625 408 625 466 625 c 0,5,6
 523 625 523 625 565.5 602 c 128,-1,7
 608 579 608 579 635 540 c 128,-1,8
 662 501 662 501 671.5 452 c 128,-1,9
 681 403 681 403 673 350 c 0,10,11
 664 294 664 294 636.5 244.5 c 128,-1,12
 609 195 609 195 568 157 c 128,-1,13
 527 119 527 119 475.5 97.5 c 128,-1,14
 424 76 424 76 366 76 c 0,15,16
 309 76 309 76 266.5 99 c 128,-1,17
 224 122 224 122 197.5 160.5 c 128,-1,18
 171 199 171 199 161.5 248 c 128,-1,19
 152 297 152 297 160 350 c 0,0,1
71 350 m 0,20,21
 61 280 61 280 75.5 215.5 c 128,-1,22
 90 151 90 151 128 100.5 c 128,-1,23
 166 50 166 50 224 20 c 128,-1,24
 282 -10 282 -10 358 -10 c 0,25,26
 435 -10 435 -10 503 18.5 c 128,-1,27
 571 47 571 47 625 96.5 c 128,-1,28
 679 146 679 146 714.5 211.5 c 128,-1,29
 750 277 750 277 762 350 c 0,30,31
 772 421 772 421 757 485.5 c 128,-1,32
 742 550 742 550 704 600.5 c 128,-1,33
 666 651 666 651 608 680.5 c 128,-1,34
 550 710 550 710 474 710 c 256,35,36
 398 710 398 710 329.5 682 c 128,-1,37
 261 654 261 654 207 604 c 128,-1,38
 153 554 153 554 117.5 489 c 128,-1,39
 82 424 82 424 71 350 c 0,20,21
631 918 m 1,40,-1
 562 960 l 1,41,-1
 390 802 l 1,42,-1
 432 771 l 1,43,-1
 631 918 l 1,40,-1
EndSplineSet
EndChar

StartChar: Ocircumflex
Encoding: 212 212 67
Width: 767
GlyphClass: 2
Flags: W
LayerCount: 2
Fore
SplineSet
160 350 m 0,0,1
 169 406 169 406 196 456 c 128,-1,2
 223 506 223 506 264 544 c 128,-1,3
 305 582 305 582 356.5 603.5 c 128,-1,4
 408 625 408 625 466 625 c 0,5,6
 523 625 523 625 565.5 602 c 128,-1,7
 608 579 608 579 635 540 c 128,-1,8
 662 501 662 501 671.5 452 c 128,-1,9
 681 403 681 403 673 350 c 0,10,11
 664 294 664 294 636.5 244.5 c 128,-1,12
 609 195 609 195 568 157 c 128,-1,13
 527 119 527 119 475.5 97.5 c 128,-1,14
 424 76 424 76 366 76 c 0,15,16
 309 76 309 76 266.5 99 c 128,-1,17
 224 122 224 122 197.5 160.5 c 128,-1,18
 171 199 171 199 161.5 248 c 128,-1,19
 152 297 152 297 160 350 c 0,0,1
71 350 m 0,20,21
 61 280 61 280 75.5 215.5 c 128,-1,22
 90 151 90 151 128 100.5 c 128,-1,23
 166 50 166 50 224 20 c 128,-1,24
 282 -10 282 -10 358 -10 c 0,25,26
 435 -10 435 -10 503 18.5 c 128,-1,27
 571 47 571 47 625 96.5 c 128,-1,28
 679 146 679 146 714.5 211.5 c 128,-1,29
 750 277 750 277 762 350 c 0,30,31
 772 421 772 421 757 485.5 c 128,-1,32
 742 550 742 550 704 600.5 c 128,-1,33
 666 651 666 651 608 680.5 c 128,-1,34
 550 710 550 710 475 710 c 0,35,36
 398 710 398 710 330 682 c 128,-1,37
 262 654 262 654 207.5 604 c 128,-1,38
 153 554 153 554 117.5 489 c 128,-1,39
 82 424 82 424 71 350 c 0,20,21
507 865 m 1,40,-1
 597 771 l 1,41,-1
 651 809 l 1,42,-1
 517 950 l 1,43,-1
 339 812 l 1,44,-1
 383 771 l 1,45,-1
 507 865 l 1,40,-1
EndSplineSet
EndChar

StartChar: Otilde
Encoding: 213 213 68
Width: 767
GlyphClass: 2
Flags: W
LayerCount: 2
Fore
SplineSet
160 350 m 0,0,1
 169 406 169 406 196 456 c 128,-1,2
 223 506 223 506 264 544 c 128,-1,3
 305 582 305 582 356.5 603.5 c 128,-1,4
 408 625 408 625 466 625 c 0,5,6
 523 625 523 625 565.5 602 c 128,-1,7
 608 579 608 579 635 540 c 128,-1,8
 662 501 662 501 671.5 452 c 128,-1,9
 681 403 681 403 673 350 c 0,10,11
 664 294 664 294 636.5 244.5 c 128,-1,12
 609 195 609 195 568 157 c 128,-1,13
 527 119 527 119 475.5 97.5 c 128,-1,14
 424 76 424 76 366 76 c 0,15,16
 309 76 309 76 266.5 99 c 128,-1,17
 224 122 224 122 197.5 160.5 c 128,-1,18
 171 199 171 199 161.5 248 c 128,-1,19
 152 297 152 297 160 350 c 0,0,1
71 350 m 0,20,21
 61 280 61 280 75.5 215.5 c 128,-1,22
 90 151 90 151 128 100.5 c 128,-1,23
 166 50 166 50 224 20 c 128,-1,24
 282 -10 282 -10 358 -10 c 0,25,26
 435 -10 435 -10 503 18.5 c 128,-1,27
 571 47 571 47 625 96.5 c 128,-1,28
 679 146 679 146 714.5 211.5 c 128,-1,29
 750 277 750 277 762 350 c 0,30,31
 772 421 772 421 757 485.5 c 128,-1,32
 742 550 742 550 704 600.5 c 128,-1,33
 666 651 666 651 608 680.5 c 128,-1,34
 550 710 550 710 475 710 c 0,35,36
 398 710 398 710 330 682 c 128,-1,37
 262 654 262 654 207.5 604 c 128,-1,38
 153 554 153 554 117.5 489 c 128,-1,39
 82 424 82 424 71 350 c 0,20,21
333 809 m 1,40,-1
 381 771 l 1,41,42
 387 785 387 785 400 802.5 c 128,-1,43
 413 820 413 820 439 821 c 0,44,45
 460 822 460 822 476 810.5 c 128,-1,46
 492 799 492 799 509 787.5 c 128,-1,47
 526 776 526 776 549 775 c 0,48,49
 574 774 574 774 595 785 c 128,-1,50
 616 796 616 796 633.5 812.5 c 128,-1,51
 651 829 651 829 662 846 c 1,52,-1
 622 890 l 1,53,54
 608 871 608 871 592 857.5 c 128,-1,55
 576 844 576 844 559 843 c 0,56,57
 536 842 536 842 520.5 853.5 c 128,-1,58
 505 865 505 865 488.5 877 c 128,-1,59
 472 889 472 889 446 889 c 0,60,61
 428 889 428 889 401.5 878 c 128,-1,62
 375 867 375 867 354.5 849 c 128,-1,63
 334 831 334 831 333 809 c 1,40,-1
EndSplineSet
EndChar

StartChar: Odieresis
Encoding: 214 214 69
Width: 767
GlyphClass: 2
Flags: W
LayerCount: 2
Fore
SplineSet
160 350 m 0,0,1
 169 406 169 406 196 456 c 128,-1,2
 223 506 223 506 264 544 c 128,-1,3
 305 582 305 582 356.5 603.5 c 128,-1,4
 408 625 408 625 466 625 c 0,5,6
 523 625 523 625 565.5 602 c 128,-1,7
 608 579 608 579 635 540 c 128,-1,8
 662 501 662 501 671.5 452 c 128,-1,9
 681 403 681 403 673 350 c 0,10,11
 664 294 664 294 636.5 244.5 c 128,-1,12
 609 195 609 195 568 157 c 128,-1,13
 527 119 527 119 475.5 97.5 c 128,-1,14
 424 76 424 76 366 76 c 0,15,16
 309 76 309 76 266.5 99 c 128,-1,17
 224 122 224 122 197.5 160.5 c 128,-1,18
 171 199 171 199 161.5 248 c 128,-1,19
 152 297 152 297 160 350 c 0,0,1
71 350 m 0,20,21
 61 280 61 280 75.5 215.5 c 128,-1,22
 90 151 90 151 128 100.5 c 128,-1,23
 166 50 166 50 224 20 c 128,-1,24
 282 -10 282 -10 358 -10 c 0,25,26
 435 -10 435 -10 503 18.5 c 128,-1,27
 571 47 571 47 625 96.5 c 128,-1,28
 679 146 679 146 714.5 211.5 c 128,-1,29
 750 277 750 277 762 350 c 0,30,31
 772 421 772 421 757 485.5 c 128,-1,32
 742 550 742 550 704 600.5 c 128,-1,33
 666 651 666 651 608 680.5 c 128,-1,34
 550 710 550 710 474 710 c 256,35,36
 398 710 398 710 329.5 682 c 128,-1,37
 261 654 261 654 207 604 c 128,-1,38
 153 554 153 554 117.5 489 c 128,-1,39
 82 424 82 424 71 350 c 0,20,21
540 826 m 0,40,41
 538 805 538 805 551.5 788.5 c 128,-1,42
 565 772 565 772 586 771 c 256,43,44
 607 770 607 770 626.5 787 c 128,-1,45
 646 804 646 804 648 824 c 0,46,47
 650 845 650 845 637 862 c 128,-1,48
 624 879 624 879 602 880 c 0,49,50
 582 881 582 881 562 863.5 c 128,-1,51
 542 846 542 846 540 826 c 0,40,41
346 826 m 0,52,53
 344 805 344 805 357.5 788.5 c 128,-1,54
 371 772 371 772 392 771 c 256,55,56
 413 770 413 770 432.5 787 c 128,-1,57
 452 804 452 804 454 824 c 0,58,59
 456 845 456 845 443 862 c 128,-1,60
 430 879 430 879 408 880 c 0,61,62
 388 881 388 881 368 863.5 c 128,-1,63
 348 846 348 846 346 826 c 0,52,53
EndSplineSet
EndChar

StartChar: Omacron
Encoding: 332 332 70
Width: 767
GlyphClass: 2
Flags: W
LayerCount: 2
Fore
SplineSet
160 350 m 0,0,1
 169 406 169 406 196 456 c 128,-1,2
 223 506 223 506 264 544 c 128,-1,3
 305 582 305 582 356.5 603.5 c 128,-1,4
 408 625 408 625 466 625 c 0,5,6
 523 625 523 625 565.5 602 c 128,-1,7
 608 579 608 579 635 540 c 128,-1,8
 662 501 662 501 671.5 452 c 128,-1,9
 681 403 681 403 673 350 c 0,10,11
 664 294 664 294 636.5 244.5 c 128,-1,12
 609 195 609 195 568 157 c 128,-1,13
 527 119 527 119 475.5 97.5 c 128,-1,14
 424 76 424 76 366 76 c 0,15,16
 309 76 309 76 266.5 99 c 128,-1,17
 224 122 224 122 197.5 160.5 c 128,-1,18
 171 199 171 199 161.5 248 c 128,-1,19
 152 297 152 297 160 350 c 0,0,1
71 350 m 0,20,21
 61 280 61 280 75.5 215.5 c 128,-1,22
 90 151 90 151 128 100.5 c 128,-1,23
 166 50 166 50 224 20 c 128,-1,24
 282 -10 282 -10 358 -10 c 0,25,26
 435 -10 435 -10 503 18.5 c 128,-1,27
 571 47 571 47 625 96.5 c 128,-1,28
 679 146 679 146 714.5 211.5 c 128,-1,29
 750 277 750 277 762 350 c 0,30,31
 772 421 772 421 757 485.5 c 128,-1,32
 742 550 742 550 704 600.5 c 128,-1,33
 666 651 666 651 608 680.5 c 128,-1,34
 550 710 550 710 475 710 c 0,35,36
 398 710 398 710 330 682 c 128,-1,37
 262 654 262 654 207.5 604 c 128,-1,38
 153 554 153 554 117.5 489 c 128,-1,39
 82 424 82 424 71 350 c 0,20,21
318 771 m 1,40,-1
 659 770 l 1,41,-1
 672 845 l 1,42,-1
 331 845 l 1,43,-1
 318 771 l 1,40,-1
EndSplineSet
EndChar

StartChar: Obreve
Encoding: 334 334 71
Width: 767
GlyphClass: 2
Flags: W
LayerCount: 2
Fore
SplineSet
160 350 m 0,0,1
 169 406 169 406 196 456 c 128,-1,2
 223 506 223 506 264 544 c 128,-1,3
 305 582 305 582 356.5 603.5 c 128,-1,4
 408 625 408 625 466 625 c 0,5,6
 523 625 523 625 565.5 602 c 128,-1,7
 608 579 608 579 635 540 c 128,-1,8
 662 501 662 501 671.5 452 c 128,-1,9
 681 403 681 403 673 350 c 0,10,11
 664 294 664 294 636.5 244.5 c 128,-1,12
 609 195 609 195 568 157 c 128,-1,13
 527 119 527 119 475.5 97.5 c 128,-1,14
 424 76 424 76 366 76 c 0,15,16
 309 76 309 76 266.5 99 c 128,-1,17
 224 122 224 122 197.5 160.5 c 128,-1,18
 171 199 171 199 161.5 248 c 128,-1,19
 152 297 152 297 160 350 c 0,0,1
71 350 m 0,20,21
 61 280 61 280 75.5 215.5 c 128,-1,22
 90 151 90 151 128 100.5 c 128,-1,23
 166 50 166 50 224 20 c 128,-1,24
 282 -10 282 -10 358 -10 c 0,25,26
 435 -10 435 -10 503 18.5 c 128,-1,27
 571 47 571 47 625 96.5 c 128,-1,28
 679 146 679 146 714.5 211.5 c 128,-1,29
 750 277 750 277 762 350 c 0,30,31
 772 421 772 421 757 485.5 c 128,-1,32
 742 550 742 550 704 600.5 c 128,-1,33
 666 651 666 651 608 680.5 c 128,-1,34
 550 710 550 710 475 710 c 0,35,36
 398 710 398 710 330 682 c 128,-1,37
 262 654 262 654 207.5 604 c 128,-1,38
 153 554 153 554 117.5 489 c 128,-1,39
 82 424 82 424 71 350 c 0,20,21
358 910 m 1,40,41
 355 874 355 874 368.5 842 c 128,-1,42
 382 810 382 810 412 790.5 c 128,-1,43
 442 771 442 771 490 771 c 0,44,45
 539 771 539 771 574.5 790.5 c 128,-1,46
 610 810 610 810 633.5 841.5 c 128,-1,47
 657 873 657 873 666 909 c 1,48,-1
 595 910 l 1,49,50
 589 894 589 894 577.5 876.5 c 128,-1,51
 566 859 566 859 546.5 847.5 c 128,-1,52
 527 836 527 836 496 836 c 0,53,54
 467 836 467 836 451.5 847.5 c 128,-1,55
 436 859 436 859 431 876.5 c 128,-1,56
 426 894 426 894 427 910 c 1,57,-1
 358 910 l 1,40,41
EndSplineSet
EndChar

StartChar: P
Encoding: 80 80 73
Width: 532
GlyphClass: 2
Flags: W
LayerCount: 2
Fore
SplineSet
169 700 m 1,0,-1
 51 0 l 1,1,-1
 133 0 l 1,2,-1
 254 700 l 1,3,-1
 169 700 l 1,0,-1
201 620 m 1,4,-1
 344 620 l 2,5,6
 386 620 386 620 416 604.5 c 128,-1,7
 446 589 446 589 460 560 c 128,-1,8
 474 531 474 531 467 490 c 256,9,10
 460 449 460 449 435 420 c 128,-1,11
 410 391 410 391 373.5 376 c 128,-1,12
 337 361 337 361 294 360 c 2,13,-1
 157 360 l 1,14,-1
 143 280 l 1,15,-1
 286 280 l 2,16,17
 352 280 352 280 408.5 306 c 128,-1,18
 465 332 465 332 503 379.5 c 128,-1,19
 541 427 541 427 551 490 c 0,20,21
 561 552 561 552 536.5 599.5 c 128,-1,22
 512 647 512 647 464 673.5 c 128,-1,23
 416 700 416 700 352 700 c 2,24,-1
 215 700 l 1,25,-1
 201 620 l 1,4,-1
EndSplineSet
EndChar

StartChar: Q
Encoding: 81 81 74
Width: 767
GlyphClass: 2
Flags: W
LayerCount: 2
Fore
SplineSet
160 350 m 0,0,1
 169 406 169 406 196 456 c 128,-1,2
 223 506 223 506 264 544 c 128,-1,3
 305 582 305 582 356.5 603.5 c 128,-1,4
 408 625 408 625 466 625 c 0,5,6
 523 625 523 625 565.5 602 c 128,-1,7
 608 579 608 579 635 540 c 128,-1,8
 662 501 662 501 671.5 452 c 128,-1,9
 681 403 681 403 673 350 c 0,10,11
 664 294 664 294 636.5 244.5 c 128,-1,12
 609 195 609 195 568 157 c 128,-1,13
 527 119 527 119 475.5 97.5 c 128,-1,14
 424 76 424 76 366 76 c 0,15,16
 309 76 309 76 266.5 99 c 128,-1,17
 224 122 224 122 197.5 160.5 c 128,-1,18
 171 199 171 199 161.5 248 c 128,-1,19
 152 297 152 297 160 350 c 0,0,1
71 350 m 0,20,21
 61 280 61 280 75.5 215.5 c 128,-1,22
 90 151 90 151 128 100.5 c 128,-1,23
 166 50 166 50 224 20 c 128,-1,24
 282 -10 282 -10 358 -10 c 0,25,26
 435 -10 435 -10 503 18.5 c 128,-1,27
 571 47 571 47 625 96.5 c 128,-1,28
 679 146 679 146 714.5 211.5 c 128,-1,29
 750 277 750 277 762 350 c 0,30,31
 772 421 772 421 757 485.5 c 128,-1,32
 742 550 742 550 704 600.5 c 128,-1,33
 666 651 666 651 608 680.5 c 128,-1,34
 550 710 550 710 475 710 c 0,35,36
 398 710 398 710 330 682 c 128,-1,37
 262 654 262 654 207.5 604 c 128,-1,38
 153 554 153 554 117.5 489 c 128,-1,39
 82 424 82 424 71 350 c 0,20,21
394 300 m 1,40,-1
 634 0 l 1,41,-1
 737 0 l 1,42,-1
 497 300 l 1,43,-1
 394 300 l 1,40,-1
EndSplineSet
EndChar

StartChar: R
Encoding: 82 82 75
Width: 543
GlyphClass: 2
Flags: W
LayerCount: 2
Fore
SplineSet
231 345 m 1,0,-1
 407 0 l 1,1,-1
 506 0 l 1,2,-1
 322 345 l 1,3,-1
 231 345 l 1,0,-1
169 700 m 1,4,-1
 51 0 l 1,5,-1
 133 0 l 1,6,-1
 254 700 l 1,7,-1
 169 700 l 1,4,-1
202 625 m 1,8,-1
 345 625 l 2,9,10
 387 625 387 625 416.5 608 c 128,-1,11
 446 591 446 591 460 561 c 128,-1,12
 474 531 474 531 467 490 c 256,13,14
 460 449 460 449 435 418.5 c 128,-1,15
 410 388 410 388 373.5 371.5 c 128,-1,16
 337 355 337 355 293 355 c 2,17,-1
 156 355 l 1,18,-1
 143 280 l 1,19,-1
 286 280 l 2,20,21
 352 280 352 280 408.5 306 c 128,-1,22
 465 332 465 332 503 379.5 c 128,-1,23
 541 427 541 427 551 490 c 0,24,25
 561 552 561 552 536.5 599.5 c 128,-1,26
 512 647 512 647 464 673.5 c 128,-1,27
 416 700 416 700 352 700 c 2,28,-1
 215 700 l 1,29,-1
 202 625 l 1,8,-1
EndSplineSet
EndChar

StartChar: Racute
Encoding: 340 340 76
Width: 543
GlyphClass: 2
Flags: W
LayerCount: 2
Fore
SplineSet
231 345 m 1,0,-1
 407 0 l 1,1,-1
 506 0 l 1,2,-1
 322 345 l 1,3,-1
 231 345 l 1,0,-1
169 700 m 1,4,-1
 51 0 l 1,5,-1
 133 0 l 1,6,-1
 254 700 l 1,7,-1
 169 700 l 1,4,-1
202 625 m 1,8,-1
 345 625 l 2,9,10
 387 624 387 624 416.5 607 c 128,-1,11
 446 590 446 590 460 560.5 c 128,-1,12
 474 531 474 531 467 490 c 256,13,14
 460 449 460 449 435 419 c 128,-1,15
 410 389 410 389 373.5 373 c 128,-1,16
 337 357 337 357 293 355 c 2,17,-1
 156 355 l 1,18,-1
 143 280 l 1,19,-1
 286 280 l 2,20,21
 352 282 352 282 408.5 307.5 c 128,-1,22
 465 333 465 333 503 380 c 128,-1,23
 541 427 541 427 551 490 c 0,24,25
 561 552 561 552 536.5 599 c 128,-1,26
 512 646 512 646 464 672.5 c 128,-1,27
 416 699 416 699 352 700 c 2,28,-1
 215 700 l 1,29,-1
 202 625 l 1,8,-1
524 918 m 1,30,-1
 455 960 l 1,31,-1
 283 802 l 1,32,-1
 325 771 l 1,33,-1
 524 918 l 1,30,-1
EndSplineSet
EndChar

StartChar: uni0156
Encoding: 342 342 77
Width: 543
GlyphClass: 2
Flags: W
LayerCount: 2
Fore
SplineSet
231 345 m 1,0,-1
 407 0 l 1,1,-1
 506 0 l 1,2,-1
 322 345 l 1,3,-1
 231 345 l 1,0,-1
169 700 m 1,4,-1
 51 0 l 1,5,-1
 133 0 l 1,6,-1
 254 700 l 1,7,-1
 169 700 l 1,4,-1
202 625 m 1,8,-1
 345 625 l 2,9,10
 387 624 387 624 416.5 607 c 128,-1,11
 446 590 446 590 460 560.5 c 128,-1,12
 474 531 474 531 467 490 c 256,13,14
 460 449 460 449 435 419 c 128,-1,15
 410 389 410 389 373.5 373 c 128,-1,16
 337 357 337 357 293 355 c 2,17,-1
 156 355 l 1,18,-1
 143 280 l 1,19,-1
 286 280 l 2,20,21
 352 282 352 282 408.5 307.5 c 128,-1,22
 465 333 465 333 503 380 c 128,-1,23
 541 427 541 427 551 490 c 0,24,25
 561 552 561 552 536.5 599 c 128,-1,26
 512 646 512 646 464 672.5 c 128,-1,27
 416 699 416 699 352 700 c 2,28,-1
 215 700 l 1,29,-1
 202 625 l 1,8,-1
270 -61 m 1,30,-1
 142 -318 l 1,31,-1
 197 -339 l 1,32,-1
 347 -92 l 1,33,-1
 270 -61 l 1,30,-1
EndSplineSet
EndChar

StartChar: Rcaron
Encoding: 344 344 78
Width: 543
GlyphClass: 2
Flags: W
LayerCount: 2
Fore
SplineSet
231 345 m 1,0,-1
 407 0 l 1,1,-1
 506 0 l 1,2,-1
 322 345 l 1,3,-1
 231 345 l 1,0,-1
169 700 m 1,4,-1
 51 0 l 1,5,-1
 133 0 l 1,6,-1
 254 700 l 1,7,-1
 169 700 l 1,4,-1
202 625 m 1,8,-1
 345 625 l 2,9,10
 387 624 387 624 416.5 607 c 128,-1,11
 446 590 446 590 460 560.5 c 128,-1,12
 474 531 474 531 467 490 c 256,13,14
 460 449 460 449 435 419 c 128,-1,15
 410 389 410 389 373.5 373 c 128,-1,16
 337 357 337 357 293 355 c 2,17,-1
 156 355 l 1,18,-1
 143 280 l 1,19,-1
 286 280 l 2,20,21
 352 282 352 282 408.5 307.5 c 128,-1,22
 465 333 465 333 503 380 c 128,-1,23
 541 427 541 427 551 490 c 0,24,25
 561 552 561 552 536.5 599 c 128,-1,26
 512 646 512 646 464 672.5 c 128,-1,27
 416 699 416 699 352 700 c 2,28,-1
 215 700 l 1,29,-1
 202 625 l 1,8,-1
364 856 m 1,30,-1
 274 950 l 1,31,-1
 220 911 l 1,32,-1
 354 770 l 1,33,-1
 532 909 l 1,34,-1
 488 950 l 1,35,-1
 364 856 l 1,30,-1
EndSplineSet
EndChar

StartChar: uni0212
Encoding: 530 530 79
Width: 543
GlyphClass: 2
Flags: W
LayerCount: 2
Fore
SplineSet
231 345 m 1,0,-1
 407 0 l 1,1,-1
 506 0 l 1,2,-1
 322 345 l 1,3,-1
 231 345 l 1,0,-1
169 700 m 1,4,-1
 51 0 l 1,5,-1
 133 0 l 1,6,-1
 254 700 l 1,7,-1
 169 700 l 1,4,-1
202 625 m 1,8,-1
 345 625 l 2,9,10
 387 624 387 624 416.5 607 c 128,-1,11
 446 590 446 590 460 560.5 c 128,-1,12
 474 531 474 531 467 490 c 256,13,14
 460 449 460 449 435 419 c 128,-1,15
 410 389 410 389 373.5 373 c 128,-1,16
 337 357 337 357 293 355 c 2,17,-1
 156 355 l 1,18,-1
 143 280 l 1,19,-1
 286 280 l 2,20,21
 352 282 352 282 408.5 307.5 c 128,-1,22
 465 333 465 333 503 380 c 128,-1,23
 541 427 541 427 551 490 c 0,24,25
 561 552 561 552 536.5 599 c 128,-1,26
 512 646 512 646 464 672.5 c 128,-1,27
 416 699 416 699 352 700 c 2,28,-1
 215 700 l 1,29,-1
 202 625 l 1,8,-1
217 770 m 1,30,31
 228 806 228 806 252 838 c 128,-1,32
 276 870 276 870 312.5 890.5 c 128,-1,33
 349 911 349 911 398 910 c 0,34,35
 446 910 446 910 475 890 c 128,-1,36
 504 870 504 870 516 838 c 128,-1,37
 528 806 528 806 523 770 c 1,38,-1
 460 770 l 1,39,40
 461 787 461 787 455 804.5 c 128,-1,41
 449 822 449 822 433 833.5 c 128,-1,42
 417 845 417 845 387 845 c 256,43,44
 357 845 357 845 338 833 c 128,-1,45
 319 821 319 821 308 804 c 128,-1,46
 297 787 297 787 290 771 c 1,47,-1
 217 770 l 1,30,31
EndSplineSet
EndChar

StartChar: S
Encoding: 83 83 80
Width: 532
GlyphClass: 2
Flags: W
LayerCount: 2
Fore
SplineSet
106 212 m 1,0,-1
 38 166 l 1,1,2
 56 120 56 120 88 79.5 c 128,-1,3
 120 39 120 39 165.5 14.5 c 128,-1,4
 211 -10 211 -10 268 -10 c 0,5,6
 331 -10 331 -10 384.5 19.5 c 128,-1,7
 438 49 438 49 470.5 99 c 128,-1,8
 503 149 503 149 503 210 c 0,9,10
 503 266 503 266 479.5 302 c 128,-1,11
 456 338 456 338 421 360.5 c 128,-1,12
 386 383 386 383 351 397 c 0,13,14
 318 410 318 410 293.5 424 c 128,-1,15
 269 438 269 438 252 454 c 128,-1,16
 235 470 235 470 226.5 489 c 128,-1,17
 218 508 218 508 218 530 c 0,18,19
 218 558 218 558 231 580.5 c 128,-1,20
 244 603 244 603 269.5 616.5 c 128,-1,21
 295 630 295 630 333 630 c 0,22,23
 377 630 377 630 405 614 c 128,-1,24
 433 598 433 598 450.5 573 c 128,-1,25
 468 548 468 548 479 522 c 1,26,-1
 552 561 l 1,27,28
 537 600 537 600 509.5 634 c 128,-1,29
 482 668 482 668 441 689 c 128,-1,30
 400 710 400 710 343 710 c 0,31,32
 279 710 279 710 231 684 c 128,-1,33
 183 658 183 658 156.5 614.5 c 128,-1,34
 130 571 130 571 130 519 c 0,35,36
 130 479 130 479 145.5 449 c 128,-1,37
 161 419 161 419 185 398 c 128,-1,38
 209 377 209 377 235.5 362 c 128,-1,39
 262 347 262 347 285 337 c 0,40,41
 321 321 321 321 350.5 304.5 c 128,-1,42
 380 288 380 288 398 264 c 128,-1,43
 416 240 416 240 416 200 c 0,44,45
 416 168 416 168 398.5 138 c 128,-1,46
 381 108 381 108 348.5 89 c 128,-1,47
 316 70 316 70 271 70 c 0,48,49
 229 70 229 70 199 88 c 128,-1,50
 169 106 169 106 147 138 c 128,-1,51
 125 170 125 170 106 212 c 1,0,-1
EndSplineSet
EndChar

StartChar: Sacute
Encoding: 346 346 81
Width: 532
GlyphClass: 2
Flags: W
LayerCount: 2
Fore
SplineSet
119 226 m 1,0,-1
 43 184 l 1,1,2
 57 130 57 130 85 86.5 c 128,-1,3
 113 43 113 43 156 17 c 128,-1,4
 199 -9 199 -9 256 -9 c 0,5,6
 321 -9 321 -9 371.5 16 c 128,-1,7
 422 41 422 41 454.5 86.5 c 128,-1,8
 487 132 487 132 495 190 c 0,9,10
 502 246 502 246 482.5 285.5 c 128,-1,11
 463 325 463 325 428.5 352 c 128,-1,12
 394 379 394 379 355 396 c 0,13,14
 329 407 329 407 303.5 419.5 c 128,-1,15
 278 432 278 432 258 447.5 c 128,-1,16
 238 463 238 463 228 483 c 128,-1,17
 218 503 218 503 223 529 c 0,18,19
 228 559 228 559 247 581.5 c 128,-1,20
 266 604 266 604 294 616.5 c 128,-1,21
 322 629 322 629 354 629 c 0,22,23
 390 629 390 629 413 612 c 128,-1,24
 436 595 436 595 450.5 569 c 128,-1,25
 465 543 465 543 475 514 c 1,26,-1
 549 559 l 1,27,28
 538 598 538 598 513.5 632.5 c 128,-1,29
 489 667 489 667 451 688.5 c 128,-1,30
 413 710 413 710 361 710 c 0,31,32
 307 710 307 710 258.5 688 c 128,-1,33
 210 666 210 666 177 627 c 128,-1,34
 144 588 144 588 136 536 c 0,35,36
 129 483 129 483 149 445 c 128,-1,37
 169 407 169 407 204.5 381 c 128,-1,38
 240 355 240 355 277 338 c 0,39,40
 313 323 313 323 345.5 303.5 c 128,-1,41
 378 284 378 284 396.5 255 c 128,-1,42
 415 226 415 226 407 183 c 0,43,44
 401 150 401 150 382.5 124.5 c 128,-1,45
 364 99 364 99 335 85 c 128,-1,46
 306 71 306 71 268 71 c 0,47,48
 235 71 235 71 211 83.5 c 128,-1,49
 187 96 187 96 170 117.5 c 128,-1,50
 153 139 153 139 140.5 167 c 128,-1,51
 128 195 128 195 119 226 c 1,0,-1
575 918 m 1,52,-1
 507 960 l 1,53,-1
 335 802 l 1,54,-1
 376 771 l 1,55,-1
 575 918 l 1,52,-1
EndSplineSet
EndChar

StartChar: Scircumflex
Encoding: 348 348 82
Width: 532
GlyphClass: 2
Flags: W
LayerCount: 2
Fore
SplineSet
119 226 m 1,0,-1
 43 184 l 1,1,2
 57 130 57 130 85 86.5 c 128,-1,3
 113 43 113 43 156 17 c 128,-1,4
 199 -9 199 -9 256 -9 c 0,5,6
 321 -9 321 -9 371.5 16 c 128,-1,7
 422 41 422 41 454 86.5 c 128,-1,8
 486 132 486 132 494 190 c 0,9,10
 502 246 502 246 482.5 285.5 c 128,-1,11
 463 325 463 325 428.5 352 c 128,-1,12
 394 379 394 379 355 396 c 0,13,14
 329 407 329 407 303.5 419.5 c 128,-1,15
 278 432 278 432 258 447.5 c 128,-1,16
 238 463 238 463 228 483 c 128,-1,17
 218 503 218 503 223 529 c 0,18,19
 228 559 228 559 247 581.5 c 128,-1,20
 266 604 266 604 294 616.5 c 128,-1,21
 322 629 322 629 354 629 c 0,22,23
 390 629 390 629 413 612 c 128,-1,24
 436 595 436 595 450.5 569 c 128,-1,25
 465 543 465 543 475 514 c 1,26,-1
 549 559 l 1,27,28
 538 598 538 598 513.5 632.5 c 128,-1,29
 489 667 489 667 451 688.5 c 128,-1,30
 413 710 413 710 361 710 c 0,31,32
 307 710 307 710 258.5 688 c 128,-1,33
 210 666 210 666 177 627 c 128,-1,34
 144 588 144 588 136 536 c 0,35,36
 129 483 129 483 149 445 c 128,-1,37
 169 407 169 407 204.5 381 c 128,-1,38
 240 355 240 355 277 338 c 0,39,40
 313 323 313 323 345.5 303.5 c 128,-1,41
 378 284 378 284 396.5 255 c 128,-1,42
 415 226 415 226 407 183 c 0,43,44
 401 150 401 150 382.5 124.5 c 128,-1,45
 364 99 364 99 335 85 c 128,-1,46
 306 71 306 71 268 71 c 0,47,48
 235 71 235 71 211 83.5 c 128,-1,49
 187 96 187 96 170 117.5 c 128,-1,50
 153 139 153 139 140.5 167 c 128,-1,51
 128 195 128 195 119 226 c 1,0,-1
393 865 m 1,52,-1
 484 771 l 1,53,-1
 537 809 l 1,54,-1
 403 950 l 1,55,-1
 225 812 l 1,56,-1
 269 771 l 1,57,-1
 393 865 l 1,52,-1
EndSplineSet
EndChar

StartChar: Scedilla
Encoding: 350 350 83
Width: 532
GlyphClass: 2
Flags: W
LayerCount: 2
Fore
SplineSet
119 226 m 1,0,-1
 43 184 l 1,1,2
 57 130 57 130 85 86.5 c 128,-1,3
 113 43 113 43 156 17 c 128,-1,4
 199 -9 199 -9 256 -9 c 0,5,6
 318 -9 318 -9 369 16.5 c 128,-1,7
 420 42 420 42 453.5 87 c 128,-1,8
 487 132 487 132 495 190 c 0,9,10
 502 246 502 246 482.5 285.5 c 128,-1,11
 463 325 463 325 428.5 352 c 128,-1,12
 394 379 394 379 355 396 c 0,13,14
 329 407 329 407 303.5 419.5 c 128,-1,15
 278 432 278 432 258 447 c 128,-1,16
 238 462 238 462 228 482 c 128,-1,17
 218 502 218 502 223 529 c 0,18,19
 228 559 228 559 244.5 581.5 c 128,-1,20
 261 604 261 604 286.5 616.5 c 128,-1,21
 312 629 312 629 344 629 c 0,22,23
 380 629 380 629 405.5 612 c 128,-1,24
 431 595 431 595 448 569.5 c 128,-1,25
 465 544 465 544 475 515 c 1,26,-1
 549 559 l 1,27,28
 535 601 535 601 511 635 c 128,-1,29
 487 669 487 669 450 689.5 c 128,-1,30
 413 710 413 710 361 710 c 0,31,32
 303 710 303 710 255 687 c 128,-1,33
 207 664 207 664 175.5 624 c 128,-1,34
 144 584 144 584 136 531 c 0,35,36
 129 475 129 475 149 438 c 128,-1,37
 169 401 169 401 204 377.5 c 128,-1,38
 239 354 239 354 277 338 c 0,39,40
 313 323 313 323 345.5 303.5 c 128,-1,41
 378 284 378 284 396.5 255 c 128,-1,42
 415 226 415 226 407 183 c 0,43,44
 401 150 401 150 382.5 124.5 c 128,-1,45
 364 99 364 99 335 85 c 128,-1,46
 306 71 306 71 268 71 c 0,47,48
 235 71 235 71 211 83.5 c 128,-1,49
 187 96 187 96 170 117.5 c 128,-1,50
 153 139 153 139 140.5 167 c 128,-1,51
 128 195 128 195 119 226 c 1,0,-1
273 58 m 1,52,-1
 162 -108 l 1,53,54
 177 -100 177 -100 194.5 -95 c 128,-1,55
 212 -90 212 -90 223 -91 c 0,56,57
 236 -91 236 -91 246 -95 c 128,-1,58
 256 -99 256 -99 261 -107 c 128,-1,59
 266 -115 266 -115 264 -126 c 0,60,61
 263 -137 263 -137 254.5 -146.5 c 128,-1,62
 246 -156 246 -156 233.5 -161.5 c 128,-1,63
 221 -167 221 -167 207 -167 c 0,64,65
 190 -167 190 -167 179 -160 c 128,-1,66
 168 -153 168 -153 156 -143 c 1,67,-1
 118 -181 l 1,68,69
 137 -200 137 -200 156 -210 c 128,-1,70
 175 -220 175 -220 201 -220 c 0,71,72
 228 -220 228 -220 254 -208.5 c 128,-1,73
 280 -197 280 -197 298 -176.5 c 128,-1,74
 316 -156 316 -156 319 -128 c 0,75,76
 323 -95 323 -95 304 -75 c 128,-1,77
 285 -55 285 -55 259 -53 c 0,78,79
 257 -53 257 -53 255.5 -53 c 128,-1,80
 254 -53 254 -53 252 -53 c 1,81,-1
 333 58 l 1,82,-1
 273 58 l 1,52,-1
EndSplineSet
EndChar

StartChar: Scaron
Encoding: 352 352 84
Width: 532
GlyphClass: 2
Flags: W
LayerCount: 2
Fore
SplineSet
119 226 m 1,0,-1
 43 184 l 1,1,2
 57 130 57 130 85 86.5 c 128,-1,3
 113 43 113 43 156 17 c 128,-1,4
 199 -9 199 -9 256 -9 c 0,5,6
 321 -9 321 -9 371.5 16 c 128,-1,7
 422 41 422 41 454 86.5 c 128,-1,8
 486 132 486 132 494 190 c 0,9,10
 502 246 502 246 482.5 285.5 c 128,-1,11
 463 325 463 325 428.5 352 c 128,-1,12
 394 379 394 379 355 396 c 0,13,14
 329 407 329 407 303.5 419.5 c 128,-1,15
 278 432 278 432 258 447.5 c 128,-1,16
 238 463 238 463 228 483 c 128,-1,17
 218 503 218 503 223 529 c 0,18,19
 228 559 228 559 247 581.5 c 128,-1,20
 266 604 266 604 294 616.5 c 128,-1,21
 322 629 322 629 354 629 c 0,22,23
 390 629 390 629 413 612 c 128,-1,24
 436 595 436 595 450.5 569 c 128,-1,25
 465 543 465 543 475 514 c 1,26,-1
 549 559 l 1,27,28
 538 598 538 598 513.5 632.5 c 128,-1,29
 489 667 489 667 451 688.5 c 128,-1,30
 413 710 413 710 361 710 c 0,31,32
 307 710 307 710 258.5 688 c 128,-1,33
 210 666 210 666 177 627 c 128,-1,34
 144 588 144 588 136 536 c 0,35,36
 129 483 129 483 149 445 c 128,-1,37
 169 407 169 407 204.5 381 c 128,-1,38
 240 355 240 355 277 338 c 0,39,40
 313 323 313 323 345.5 303.5 c 128,-1,41
 378 284 378 284 396.5 255 c 128,-1,42
 415 226 415 226 407 183 c 0,43,44
 401 150 401 150 382.5 124.5 c 128,-1,45
 364 99 364 99 335 85 c 128,-1,46
 306 71 306 71 268 71 c 0,47,48
 235 71 235 71 211 83.5 c 128,-1,49
 187 96 187 96 170 117.5 c 128,-1,50
 153 139 153 139 140.5 167 c 128,-1,51
 128 195 128 195 119 226 c 1,0,-1
386 856 m 1,52,-1
 296 950 l 1,53,-1
 242 911 l 1,54,-1
 376 770 l 1,55,-1
 554 909 l 1,56,-1
 510 950 l 1,57,-1
 386 856 l 1,52,-1
EndSplineSet
EndChar

StartChar: uni0218
Encoding: 536 536 85
Width: 532
GlyphClass: 2
Flags: W
LayerCount: 2
Fore
SplineSet
119 226 m 1,0,-1
 43 184 l 1,1,2
 57 130 57 130 85 86.5 c 128,-1,3
 113 43 113 43 156 17 c 128,-1,4
 199 -9 199 -9 256 -9 c 0,5,6
 321 -9 321 -9 371.5 16 c 128,-1,7
 422 41 422 41 454.5 86.5 c 128,-1,8
 487 132 487 132 495 190 c 0,9,10
 502 246 502 246 482.5 285.5 c 128,-1,11
 463 325 463 325 428.5 352 c 128,-1,12
 394 379 394 379 355 396 c 0,13,14
 329 407 329 407 303.5 419.5 c 128,-1,15
 278 432 278 432 258 447.5 c 128,-1,16
 238 463 238 463 228 483 c 128,-1,17
 218 503 218 503 223 529 c 0,18,19
 228 559 228 559 247 581.5 c 128,-1,20
 266 604 266 604 294 616.5 c 128,-1,21
 322 629 322 629 354 629 c 0,22,23
 390 629 390 629 413 612 c 128,-1,24
 436 595 436 595 450.5 569 c 128,-1,25
 465 543 465 543 475 514 c 1,26,-1
 549 559 l 1,27,28
 538 598 538 598 513.5 632.5 c 128,-1,29
 489 667 489 667 451 688.5 c 128,-1,30
 413 710 413 710 361 710 c 0,31,32
 307 710 307 710 258.5 688 c 128,-1,33
 210 666 210 666 177 627 c 128,-1,34
 144 588 144 588 136 536 c 0,35,36
 129 483 129 483 149 445 c 128,-1,37
 169 407 169 407 204.5 381 c 128,-1,38
 240 355 240 355 277 338 c 0,39,40
 313 323 313 323 345.5 303.5 c 128,-1,41
 378 284 378 284 396.5 255 c 128,-1,42
 415 226 415 226 407 183 c 0,43,44
 401 150 401 150 382.5 124.5 c 128,-1,45
 364 99 364 99 335 85 c 128,-1,46
 306 71 306 71 268 71 c 0,47,48
 235 71 235 71 211 83.5 c 128,-1,49
 187 96 187 96 170 117.5 c 128,-1,50
 153 139 153 139 140.5 167 c 128,-1,51
 128 195 128 195 119 226 c 1,0,-1
245 -71 m 1,52,-1
 116 -328 l 1,53,-1
 171 -349 l 1,54,-1
 321 -102 l 1,55,-1
 245 -71 l 1,52,-1
EndSplineSet
EndChar

StartChar: T
Encoding: 84 84 86
Width: 451
GlyphClass: 2
Flags: W
LayerCount: 2
Fore
SplineSet
87 620 m 1,0,-1
 263 620 l 1,1,-1
 156 0 l 1,2,-1
 240 0 l 1,3,-1
 347 620 l 1,4,-1
 521 620 l 1,5,-1
 535 700 l 1,6,-1
 102 700 l 1,7,-1
 87 620 l 1,0,-1
EndSplineSet
EndChar

StartChar: Tcaron
Encoding: 356 356 88
Width: 451
GlyphClass: 2
Flags: W
LayerCount: 2
Fore
SplineSet
87 620 m 1,0,-1
 263 620 l 1,1,-1
 156 0 l 1,2,-1
 240 0 l 1,3,-1
 347 620 l 1,4,-1
 521 620 l 1,5,-1
 535 700 l 1,6,-1
 102 700 l 1,7,-1
 87 620 l 1,0,-1
342 856 m 1,8,-1
 251 950 l 1,9,-1
 198 911 l 1,10,-1
 332 770 l 1,11,-1
 510 909 l 1,12,-1
 466 950 l 1,13,-1
 342 856 l 1,8,-1
EndSplineSet
EndChar

StartChar: uni021A
Encoding: 538 538 89
Width: 451
GlyphClass: 2
Flags: W
LayerCount: 2
Fore
SplineSet
87 620 m 1,0,-1
 263 620 l 1,1,-1
 156 0 l 1,2,-1
 240 0 l 1,3,-1
 347 620 l 1,4,-1
 521 620 l 1,5,-1
 535 700 l 1,6,-1
 102 700 l 1,7,-1
 87 620 l 1,0,-1
191 -60 m 1,8,-1
 62 -317 l 1,9,-1
 117 -338 l 1,10,-1
 267 -91 l 1,11,-1
 191 -60 l 1,8,-1
EndSplineSet
EndChar

StartChar: U
Encoding: 85 85 90
Width: 608
GlyphClass: 2
Flags: W
LayerCount: 2
Fore
SplineSet
165 700 m 1,0,-1
 85 230 l 2,1,2
 75 166 75 166 95 111.5 c 128,-1,3
 115 57 115 57 162 24 c 128,-1,4
 209 -9 209 -9 279 -9 c 0,5,6
 359 -9 359 -9 415 23 c 128,-1,7
 471 55 471 55 504 109.5 c 128,-1,8
 537 164 537 164 548 230 c 2,9,-1
 629 700 l 1,10,-1
 545 700 l 1,11,-1
 464 230 l 2,12,13
 457 185 457 185 435.5 149 c 128,-1,14
 414 113 414 113 377 92 c 128,-1,15
 340 71 340 71 286 71 c 0,16,17
 238 71 238 71 210 93 c 128,-1,18
 182 115 182 115 172 151.5 c 128,-1,19
 162 188 162 188 168 230 c 2,20,-1
 249 700 l 1,21,-1
 165 700 l 1,0,-1
EndSplineSet
EndChar

StartChar: Ugrave
Encoding: 217 217 91
Width: 608
GlyphClass: 2
Flags: W
LayerCount: 2
Fore
SplineSet
165 700 m 1,0,-1
 85 230 l 2,1,2
 76 166 76 166 95.5 111.5 c 128,-1,3
 115 57 115 57 161.5 24 c 128,-1,4
 208 -9 208 -9 278 -9 c 0,5,6
 350 -9 350 -9 406.5 23.5 c 128,-1,7
 463 56 463 56 500 110 c 128,-1,8
 537 164 537 164 548 230 c 2,9,-1
 629 700 l 1,10,-1
 545 700 l 1,11,-1
 464 230 l 2,12,13
 456 186 456 186 432.5 149.5 c 128,-1,14
 409 113 409 113 372 92 c 128,-1,15
 335 71 335 71 286 71 c 0,16,17
 238 72 238 72 210 94 c 128,-1,18
 182 116 182 116 172 152 c 128,-1,19
 162 188 162 188 168 230 c 2,20,-1
 249 700 l 1,21,-1
 165 700 l 1,0,-1
307 921 m 1,22,-1
 459 770 l 1,23,-1
 506 799 l 1,24,-1
 386 960 l 1,25,-1
 307 921 l 1,22,-1
EndSplineSet
EndChar

StartChar: Uacute
Encoding: 218 218 92
Width: 608
GlyphClass: 2
Flags: W
LayerCount: 2
Fore
SplineSet
165 700 m 1,0,-1
 85 230 l 2,1,2
 76 166 76 166 95.5 111.5 c 128,-1,3
 115 57 115 57 161.5 24 c 128,-1,4
 208 -9 208 -9 278 -9 c 0,5,6
 350 -9 350 -9 406.5 23.5 c 128,-1,7
 463 56 463 56 500 110 c 128,-1,8
 537 164 537 164 548 230 c 2,9,-1
 629 700 l 1,10,-1
 545 700 l 1,11,-1
 464 230 l 2,12,13
 456 186 456 186 432.5 149.5 c 128,-1,14
 409 113 409 113 372 92 c 128,-1,15
 335 71 335 71 286 71 c 0,16,17
 238 72 238 72 210 94 c 128,-1,18
 182 116 182 116 172 152 c 128,-1,19
 162 188 162 188 168 230 c 2,20,-1
 249 700 l 1,21,-1
 165 700 l 1,0,-1
561 918 m 1,22,-1
 492 960 l 1,23,-1
 320 802 l 1,24,-1
 362 771 l 1,25,-1
 561 918 l 1,22,-1
EndSplineSet
EndChar

StartChar: Ucircumflex
Encoding: 219 219 93
Width: 608
GlyphClass: 2
Flags: W
LayerCount: 2
Fore
SplineSet
165 700 m 1,0,-1
 85 230 l 2,1,2
 76 166 76 166 95.5 111.5 c 128,-1,3
 115 57 115 57 161.5 24 c 128,-1,4
 208 -9 208 -9 278 -9 c 0,5,6
 350 -9 350 -9 406.5 23.5 c 128,-1,7
 463 56 463 56 500 110 c 128,-1,8
 537 164 537 164 548 230 c 2,9,-1
 629 700 l 1,10,-1
 545 700 l 1,11,-1
 464 230 l 2,12,13
 456 186 456 186 432.5 149.5 c 128,-1,14
 409 113 409 113 372 92 c 128,-1,15
 335 71 335 71 286 71 c 0,16,17
 238 72 238 72 210 94 c 128,-1,18
 182 116 182 116 172 152 c 128,-1,19
 162 188 162 188 168 230 c 2,20,-1
 249 700 l 1,21,-1
 165 700 l 1,0,-1
427 865 m 1,22,-1
 517 771 l 1,23,-1
 571 809 l 1,24,-1
 437 950 l 1,25,-1
 259 812 l 1,26,-1
 303 771 l 1,27,-1
 427 865 l 1,22,-1
EndSplineSet
EndChar

StartChar: Udieresis
Encoding: 220 220 94
Width: 608
GlyphClass: 2
Flags: W
LayerCount: 2
Fore
SplineSet
165 700 m 1,0,-1
 85 230 l 2,1,2
 76 166 76 166 95.5 111.5 c 128,-1,3
 115 57 115 57 161.5 24 c 128,-1,4
 208 -9 208 -9 278 -9 c 0,5,6
 350 -9 350 -9 406.5 23.5 c 128,-1,7
 463 56 463 56 500 110 c 128,-1,8
 537 164 537 164 548 230 c 2,9,-1
 629 700 l 1,10,-1
 545 700 l 1,11,-1
 464 230 l 2,12,13
 456 186 456 186 432.5 149.5 c 128,-1,14
 409 113 409 113 372 92 c 128,-1,15
 335 71 335 71 286 71 c 0,16,17
 238 72 238 72 210 94 c 128,-1,18
 182 116 182 116 172 152 c 128,-1,19
 162 188 162 188 168 230 c 2,20,-1
 249 700 l 1,21,-1
 165 700 l 1,0,-1
461 826 m 0,22,23
 459 805 459 805 472 788.5 c 128,-1,24
 485 772 485 772 507 771 c 0,25,26
 527 770 527 770 547 787 c 128,-1,27
 567 804 567 804 569 824 c 0,28,29
 571 845 571 845 557.5 862 c 128,-1,30
 544 879 544 879 523 880 c 256,31,32
 502 881 502 881 482.5 863.5 c 128,-1,33
 463 846 463 846 461 826 c 0,22,23
267 826 m 0,34,35
 265 805 265 805 278 788.5 c 128,-1,36
 291 772 291 772 312 771 c 256,37,38
 333 770 333 770 353 787 c 128,-1,39
 373 804 373 804 375 824 c 0,40,41
 377 845 377 845 363.5 862 c 128,-1,42
 350 879 350 879 329 880 c 256,43,44
 308 881 308 881 288.5 863.5 c 128,-1,45
 269 846 269 846 267 826 c 0,34,35
EndSplineSet
EndChar

StartChar: Utilde
Encoding: 360 360 95
Width: 608
GlyphClass: 2
Flags: W
LayerCount: 2
Fore
SplineSet
165 700 m 1,0,-1
 84 230 l 2,1,2
 76 166 76 166 96 111.5 c 128,-1,3
 116 57 116 57 163 24 c 128,-1,4
 210 -9 210 -9 280 -9 c 0,5,6
 352 -9 352 -9 408.5 23.5 c 128,-1,7
 465 56 465 56 501.5 110 c 128,-1,8
 538 164 538 164 549 230 c 2,9,-1
 629 700 l 1,10,-1
 544 700 l 1,11,-1
 463 230 l 2,12,13
 455 186 455 186 431.5 149.5 c 128,-1,14
 408 113 408 113 371 91.5 c 128,-1,15
 334 70 334 70 285 71 c 0,16,17
 237 72 237 72 209 94 c 128,-1,18
 181 116 181 116 171.5 152 c 128,-1,19
 162 188 162 188 168 230 c 2,20,-1
 250 700 l 1,21,-1
 165 700 l 1,0,-1
253 809 m 1,22,-1
 302 771 l 1,23,24
 309 785 309 785 322 802.5 c 128,-1,25
 335 820 335 820 361 821 c 0,26,27
 382 822 382 822 398 810.5 c 128,-1,28
 414 799 414 799 430.5 787.5 c 128,-1,29
 447 776 447 776 470 775 c 0,30,31
 495 774 495 774 516 784.5 c 128,-1,32
 537 795 537 795 554 811.5 c 128,-1,33
 571 828 571 828 582 845 c 1,34,-1
 542 890 l 1,35,36
 527 872 527 872 511 858 c 128,-1,37
 495 844 495 844 478 843 c 0,38,39
 455 842 455 842 439.5 853.5 c 128,-1,40
 424 865 424 865 407.5 877 c 128,-1,41
 391 889 391 889 365 889 c 0,42,43
 347 889 347 889 320.5 878 c 128,-1,44
 294 867 294 867 273.5 849 c 128,-1,45
 253 831 253 831 253 809 c 1,22,-1
EndSplineSet
EndChar

StartChar: Umacron
Encoding: 362 362 96
Width: 608
GlyphClass: 2
Flags: W
LayerCount: 2
Fore
SplineSet
165 700 m 1,0,-1
 84 230 l 2,1,2
 76 166 76 166 96 111.5 c 128,-1,3
 116 57 116 57 163 24 c 128,-1,4
 210 -9 210 -9 280 -9 c 0,5,6
 352 -9 352 -9 408.5 23.5 c 128,-1,7
 465 56 465 56 501.5 110 c 128,-1,8
 538 164 538 164 549 230 c 2,9,-1
 629 700 l 1,10,-1
 544 700 l 1,11,-1
 463 230 l 2,12,13
 455 186 455 186 431.5 149.5 c 128,-1,14
 408 113 408 113 371 91.5 c 128,-1,15
 334 70 334 70 285 71 c 0,16,17
 237 72 237 72 209 94 c 128,-1,18
 181 116 181 116 171.5 152 c 128,-1,19
 162 188 162 188 168 230 c 2,20,-1
 250 700 l 1,21,-1
 165 700 l 1,0,-1
239 771 m 1,22,-1
 581 771 l 1,23,-1
 593 845 l 1,24,-1
 251 845 l 1,25,-1
 239 771 l 1,22,-1
EndSplineSet
EndChar

StartChar: Ubreve
Encoding: 364 364 97
Width: 608
GlyphClass: 2
Flags: W
LayerCount: 2
Fore
SplineSet
165 700 m 1,0,-1
 84 230 l 2,1,2
 76 166 76 166 96 111.5 c 128,-1,3
 116 57 116 57 163 24 c 128,-1,4
 210 -9 210 -9 280 -9 c 0,5,6
 352 -9 352 -9 408.5 23.5 c 128,-1,7
 465 56 465 56 501.5 110 c 128,-1,8
 538 164 538 164 549 230 c 2,9,-1
 629 700 l 1,10,-1
 544 700 l 1,11,-1
 463 230 l 2,12,13
 455 186 455 186 431.5 149.5 c 128,-1,14
 408 113 408 113 371 91.5 c 128,-1,15
 334 70 334 70 285 71 c 0,16,17
 237 72 237 72 209 94 c 128,-1,18
 181 116 181 116 171.5 152 c 128,-1,19
 162 188 162 188 168 230 c 2,20,-1
 250 700 l 1,21,-1
 165 700 l 1,0,-1
277 910 m 1,22,23
 275 873 275 873 288.5 841.5 c 128,-1,24
 302 810 302 810 333 790.5 c 128,-1,25
 364 771 364 771 412 771 c 0,26,27
 461 771 461 771 496.5 790.5 c 128,-1,28
 532 810 532 810 554.5 841.5 c 128,-1,29
 577 873 577 873 586 909 c 1,30,-1
 514 910 l 1,31,32
 508 894 508 894 496 876.5 c 128,-1,33
 484 859 484 859 465 847.5 c 128,-1,34
 446 836 446 836 415 836 c 0,35,36
 386 836 386 836 371 847.5 c 128,-1,37
 356 859 356 859 351 876.5 c 128,-1,38
 346 894 346 894 347 910 c 1,39,-1
 277 910 l 1,22,23
EndSplineSet
EndChar

StartChar: Uring
Encoding: 366 366 98
Width: 608
GlyphClass: 2
Flags: W
LayerCount: 2
Fore
SplineSet
165 700 m 1,0,-1
 85 230 l 2,1,2
 76 166 76 166 95.5 111.5 c 128,-1,3
 115 57 115 57 161.5 24 c 128,-1,4
 208 -9 208 -9 278 -9 c 0,5,6
 350 -9 350 -9 406.5 23.5 c 128,-1,7
 463 56 463 56 500 110 c 128,-1,8
 537 164 537 164 548 230 c 2,9,-1
 629 700 l 1,10,-1
 545 700 l 1,11,-1
 464 230 l 2,12,13
 456 186 456 186 432.5 149.5 c 128,-1,14
 409 113 409 113 372 92 c 128,-1,15
 335 71 335 71 286 71 c 0,16,17
 238 72 238 72 210 94 c 128,-1,18
 182 116 182 116 172 152 c 128,-1,19
 162 188 162 188 168 230 c 2,20,-1
 249 700 l 1,21,-1
 165 700 l 1,0,-1
326 871 m 0,22,23
 322 844 322 844 332.5 821.5 c 128,-1,24
 343 799 343 799 363.5 785 c 128,-1,25
 384 771 384 771 410 771 c 0,26,27
 437 771 437 771 462 784 c 128,-1,28
 487 797 487 797 504.5 819.5 c 128,-1,29
 522 842 522 842 525 869 c 0,30,31
 529 897 529 897 518.5 919.5 c 128,-1,32
 508 942 508 942 487.5 956 c 128,-1,33
 467 970 467 970 440 970 c 0,34,35
 414 970 414 970 389 956.5 c 128,-1,36
 364 943 364 943 347 921 c 128,-1,37
 330 899 330 899 326 871 c 0,22,23
376 870 m 0,38,39
 378 884 378 884 387.5 896.5 c 128,-1,40
 397 909 397 909 410.5 916.5 c 128,-1,41
 424 924 424 924 436 923 c 0,42,43
 454 922 454 922 465.5 906.5 c 128,-1,44
 477 891 477 891 475 871 c 0,45,46
 474 857 474 857 464 844.5 c 128,-1,47
 454 832 454 832 440.5 824.5 c 128,-1,48
 427 817 427 817 415 818 c 0,49,50
 397 819 397 819 385.5 834.5 c 128,-1,51
 374 850 374 850 376 870 c 0,38,39
EndSplineSet
EndChar

StartChar: V
Encoding: 86 86 101
Width: 640
GlyphClass: 2
Flags: W
LayerCount: 2
Fore
SplineSet
326 158 m 1,0,-1
 187 700 l 1,1,-1
 96 700 l 1,2,-1
 298 -36 l 1,3,-1
 729 700 l 1,4,-1
 633 700 l 1,5,-1
 326 158 l 1,0,-1
EndSplineSet
EndChar

StartChar: W
Encoding: 87 87 102
Width: 961
GlyphClass: 2
Flags: W
LayerCount: 2
Fore
SplineSet
690 183 m 1,0,-1
 577 737 l 1,1,-1
 291 183 l 1,2,-1
 193 700 l 1,3,-1
 101 700 l 1,4,-1
 254 -37 l 1,5,-1
 543 507 l 1,6,-1
 662 -37 l 1,7,-1
 1044 700 l 1,8,-1
 949 700 l 1,9,-1
 690 183 l 1,0,-1
EndSplineSet
EndChar

StartChar: Wcircumflex
Encoding: 372 372 103
Width: 961
GlyphClass: 2
Flags: W
LayerCount: 2
Fore
SplineSet
681 179 m 1,0,-1
 579 739 l 1,1,-1
 284 179 l 1,2,-1
 195 700 l 1,3,-1
 103 700 l 1,4,-1
 243 -38 l 1,5,-1
 541 506 l 1,6,-1
 651 -38 l 1,7,-1
 1047 700 l 1,8,-1
 949 700 l 1,9,-1
 681 179 l 1,0,-1
609 889 m 1,10,-1
 699 795 l 1,11,-1
 752 834 l 1,12,-1
 617 975 l 1,13,-1
 440 837 l 1,14,-1
 485 796 l 1,15,-1
 609 889 l 1,10,-1
EndSplineSet
EndChar

StartChar: X
Encoding: 88 88 109
Width: 539
GlyphClass: 2
Flags: W
LayerCount: 2
Fore
SplineSet
507 700 m 1,0,-1
 322 443 l 1,1,-1
 221 700 l 1,2,-1
 126 700 l 1,3,-1
 271 369 l 1,4,-1
 -10 0 l 1,5,-1
 91 0 l 1,6,-1
 301 292 l 1,7,-1
 416 0 l 1,8,-1
 511 0 l 1,9,-1
 353 365 l 1,10,-1
 608 700 l 1,11,-1
 507 700 l 1,0,-1
EndSplineSet
EndChar

StartChar: Y
Encoding: 89 89 110
Width: 544
GlyphClass: 2
Flags: W
LayerCount: 2
Fore
SplineSet
538 700 m 1,0,-1
 308 378 l 1,1,-1
 189 700 l 1,2,-1
 98 700 l 1,3,-1
 256 304 l 1,4,-1
 203 0 l 1,5,-1
 287 0 l 1,6,-1
 338 300 l 1,7,-1
 635 700 l 1,8,-1
 538 700 l 1,0,-1
EndSplineSet
EndChar

StartChar: Yacute
Encoding: 221 221 111
Width: 544
GlyphClass: 2
Flags: W
LayerCount: 2
Fore
SplineSet
529 918 m 1,0,-1
 461 960 l 1,1,-1
 289 802 l 1,2,-1
 330 771 l 1,3,-1
 529 918 l 1,0,-1
538 700 m 1,4,-1
 308 378 l 1,5,-1
 189 700 l 1,6,-1
 98 700 l 1,7,-1
 256 304 l 1,8,-1
 203 0 l 1,9,-1
 287 0 l 1,10,-1
 338 300 l 1,11,-1
 635 700 l 1,12,-1
 538 700 l 1,4,-1
EndSplineSet
EndChar

StartChar: Ycircumflex
Encoding: 374 374 112
Width: 544
GlyphClass: 2
Flags: W
LayerCount: 2
Fore
SplineSet
537 700 m 1,0,-1
 307 379 l 1,1,-1
 189 700 l 1,2,-1
 99 700 l 1,3,-1
 256 306 l 1,4,-1
 202 0 l 1,5,-1
 287 0 l 1,6,-1
 338 299 l 1,7,-1
 636 700 l 1,8,-1
 537 700 l 1,0,-1
397 864 m 1,9,-1
 487 770 l 1,10,-1
 540 809 l 1,11,-1
 404 950 l 1,12,-1
 227 812 l 1,13,-1
 273 771 l 1,14,-1
 397 864 l 1,9,-1
EndSplineSet
EndChar

StartChar: Ydieresis
Encoding: 376 376 113
Width: 544
GlyphClass: 2
Flags: W
LayerCount: 2
Fore
SplineSet
236 826 m 256,0,1
 234 806 234 806 246 789 c 128,-1,2
 258 772 258 772 280 771 c 0,3,4
 301 770 301 770 321 787 c 128,-1,5
 341 804 341 804 343 824 c 0,6,7
 345 845 345 845 331.5 862 c 128,-1,8
 318 879 318 879 297 880 c 256,9,10
 276 881 276 881 257 863.5 c 128,-1,11
 238 846 238 846 236 826 c 256,0,1
430 826 m 256,12,13
 428 806 428 806 440 789 c 128,-1,14
 452 772 452 772 474 771 c 0,15,16
 495 770 495 770 515.5 787 c 128,-1,17
 536 804 536 804 538 824 c 0,18,19
 540 845 540 845 526 862 c 128,-1,20
 512 879 512 879 491 880 c 256,21,22
 470 881 470 881 451 863.5 c 128,-1,23
 432 846 432 846 430 826 c 256,12,13
538 700 m 1,24,-1
 308 378 l 1,25,-1
 189 700 l 1,26,-1
 98 700 l 1,27,-1
 256 304 l 1,28,-1
 203 0 l 1,29,-1
 287 0 l 1,30,-1
 338 300 l 1,31,-1
 635 700 l 1,32,-1
 538 700 l 1,24,-1
EndSplineSet
EndChar

StartChar: Z
Encoding: 90 90 115
Width: 529
GlyphClass: 2
Flags: W
LayerCount: 2
Fore
SplineSet
112 620 m 1,0,-1
 449 620 l 1,1,-1
 -15 0 l 1,2,-1
 464 0 l 1,3,-1
 478 80 l 1,4,-1
 141 81 l 1,5,-1
 604 700 l 1,6,-1
 126 700 l 1,7,-1
 112 620 l 1,0,-1
EndSplineSet
EndChar

StartChar: Zacute
Encoding: 377 377 116
Width: 529
GlyphClass: 2
Flags: W
LayerCount: 2
Fore
SplineSet
112 620 m 1,0,-1
 449 620 l 1,1,-1
 -15 0 l 1,2,-1
 464 0 l 1,3,-1
 478 80 l 1,4,-1
 141 81 l 1,5,-1
 604 700 l 1,6,-1
 126 700 l 1,7,-1
 112 620 l 1,0,-1
558 918 m 1,8,-1
 489 960 l 1,9,-1
 317 802 l 1,10,-1
 359 771 l 1,11,-1
 558 918 l 1,8,-1
EndSplineSet
EndChar

StartChar: Zdotaccent
Encoding: 379 379 117
Width: 529
GlyphClass: 2
Flags: W
LayerCount: 2
Fore
SplineSet
112 620 m 1,0,-1
 449 620 l 1,1,-1
 -15 0 l 1,2,-1
 464 0 l 1,3,-1
 478 80 l 1,4,-1
 141 81 l 1,5,-1
 604 700 l 1,6,-1
 126 700 l 1,7,-1
 112 620 l 1,0,-1
332 826 m 0,8,9
 330 805 330 805 343 788.5 c 128,-1,10
 356 772 356 772 377 771 c 256,11,12
 398 770 398 770 418 787 c 128,-1,13
 438 804 438 804 440 824 c 0,14,15
 442 845 442 845 428.5 862 c 128,-1,16
 415 879 415 879 394 880 c 256,17,18
 373 881 373 881 353.5 863.5 c 128,-1,19
 334 846 334 846 332 826 c 0,8,9
EndSplineSet
EndChar

StartChar: Zcaron
Encoding: 381 381 118
Width: 529
GlyphClass: 2
Flags: W
LayerCount: 2
Fore
SplineSet
112 620 m 1,0,-1
 449 620 l 1,1,-1
 -15 0 l 1,2,-1
 464 0 l 1,3,-1
 478 80 l 1,4,-1
 141 81 l 1,5,-1
 604 700 l 1,6,-1
 126 700 l 1,7,-1
 112 620 l 1,0,-1
388 856 m 1,8,-1
 298 950 l 1,9,-1
 244 911 l 1,10,-1
 378 770 l 1,11,-1
 556 909 l 1,12,-1
 512 950 l 1,13,-1
 388 856 l 1,8,-1
EndSplineSet
EndChar

StartChar: AE
Encoding: 198 198 119
Width: 932
GlyphClass: 2
Flags: W
LayerCount: 2
Fore
SplineSet
220 211 m 1,0,-1
 512 210 l 1,1,-1
 526 290 l 1,2,-1
 233 290 l 1,3,-1
 220 211 l 1,0,-1
517 700 m 1,4,-1
 -22 0 l 1,5,-1
 72 0 l 1,6,-1
 576 658 l 1,7,-1
 517 700 l 1,4,-1
495 0 m 1,8,-1
 838 0 l 1,9,-1
 852 80 l 1,10,-1
 508 80 l 1,11,-1
 495 0 l 1,8,-1
611 620 m 1,12,-1
 944 620 l 1,13,-1
 958 700 l 1,14,-1
 517 700 l 1,15,-1
 611 620 l 1,12,-1
553 341 m 1,16,-1
 877 340 l 1,17,-1
 891 420 l 1,18,-1
 566 420 l 1,19,-1
 553 341 l 1,16,-1
567 700 m 1,20,-1
 449 0 l 1,21,-1
 531 0 l 1,22,-1
 652 700 l 1,23,-1
 567 700 l 1,20,-1
EndSplineSet
EndChar

StartChar: Eth
Encoding: 208 208 120
Width: 660
GlyphClass: 2
Flags: W
LayerCount: 2
Fore
SplineSet
31 311 m 1,0,-1
 324 310 l 1,1,-1
 336 385 l 1,2,-1
 44 385 l 1,3,-1
 31 311 l 1,0,-1
169 700 m 1,4,-1
 51 0 l 1,5,-1
 133 0 l 1,6,-1
 254 700 l 1,7,-1
 169 700 l 1,4,-1
258 0 m 2,8,9
 360 2 360 2 444.5 47.5 c 128,-1,10
 529 93 529 93 584.5 171.5 c 128,-1,11
 640 250 640 250 655 350 c 0,12,13
 669 446 669 446 638.5 525 c 128,-1,14
 608 604 608 604 539.5 651.5 c 128,-1,15
 471 699 471 699 371 700 c 2,16,-1
 215 700 l 1,17,-1
 200 615 l 1,18,-1
 362 615 l 2,19,20
 440 614 440 614 490.5 578.5 c 128,-1,21
 541 543 541 543 562 483.5 c 128,-1,22
 583 424 583 424 571 350 c 0,23,24
 558 273 558 273 515.5 214 c 128,-1,25
 473 155 473 155 409 121 c 128,-1,26
 345 87 345 87 266 85 c 2,27,-1
 110 85 l 1,28,-1
 95 0 l 1,29,-1
 258 0 l 2,8,9
EndSplineSet
EndChar

StartChar: Oslash
Encoding: 216 216 121
Width: 767
GlyphClass: 2
Flags: W
LayerCount: 2
Fore
SplineSet
160 350 m 0,0,1
 169 406 169 406 196 456 c 128,-1,2
 223 506 223 506 264 544 c 128,-1,3
 305 582 305 582 356.5 603.5 c 128,-1,4
 408 625 408 625 466 625 c 0,5,6
 523 625 523 625 565.5 602 c 128,-1,7
 608 579 608 579 635 540 c 128,-1,8
 662 501 662 501 671.5 452 c 128,-1,9
 681 403 681 403 673 350 c 0,10,11
 664 294 664 294 636.5 244.5 c 128,-1,12
 609 195 609 195 568 157 c 128,-1,13
 527 119 527 119 475.5 97.5 c 128,-1,14
 424 76 424 76 366 76 c 0,15,16
 309 76 309 76 266.5 99 c 128,-1,17
 224 122 224 122 197.5 160.5 c 128,-1,18
 171 199 171 199 161.5 248 c 128,-1,19
 152 297 152 297 160 350 c 0,0,1
71 350 m 0,20,21
 61 280 61 280 75.5 215.5 c 128,-1,22
 90 151 90 151 128 100.5 c 128,-1,23
 166 50 166 50 224 20 c 128,-1,24
 282 -10 282 -10 358 -10 c 0,25,26
 435 -10 435 -10 503 18.5 c 128,-1,27
 571 47 571 47 625 96.5 c 128,-1,28
 679 146 679 146 714.5 211.5 c 128,-1,29
 750 277 750 277 762 350 c 0,30,31
 772 421 772 421 757 485.5 c 128,-1,32
 742 550 742 550 704 600.5 c 128,-1,33
 666 651 666 651 608 680.5 c 128,-1,34
 550 710 550 710 475 710 c 0,35,36
 398 710 398 710 330 682 c 128,-1,37
 262 654 262 654 207.5 604 c 128,-1,38
 153 554 153 554 117.5 489 c 128,-1,39
 82 424 82 424 71 350 c 0,20,21
767 750 m 1,40,-1
 9 -8 l 1,41,-1
 62 -49 l 1,42,-1
 820 709 l 1,43,-1
 767 750 l 1,40,-1
EndSplineSet
EndChar

StartChar: Thorn
Encoding: 222 222 122
Width: 534
GlyphClass: 2
Flags: W
LayerCount: 2
Fore
SplineSet
169 700 m 1,0,-1
 51 0 l 1,1,-1
 133 0 l 1,2,-1
 254 700 l 1,3,-1
 169 700 l 1,0,-1
177 480 m 1,4,-1
 320 480 l 2,5,6
 362 479 362 479 392 463.5 c 128,-1,7
 422 448 422 448 436 419.5 c 128,-1,8
 450 391 450 391 443 350 c 256,9,10
 436 309 436 309 411 280 c 128,-1,11
 386 251 386 251 349.5 236 c 128,-1,12
 313 221 313 221 270 220 c 2,13,-1
 133 220 l 1,14,-1
 119 140 l 1,15,-1
 262 140 l 2,16,17
 328 142 328 142 384.5 167.5 c 128,-1,18
 441 193 441 193 479 240 c 128,-1,19
 517 287 517 287 527 350 c 0,20,21
 537 412 537 412 512.5 459 c 128,-1,22
 488 506 488 506 440 532.5 c 128,-1,23
 392 559 392 559 328 560 c 2,24,-1
 191 560 l 1,25,-1
 177 480 l 1,4,-1
EndSplineSet
EndChar

StartChar: Dcroat
Encoding: 272 272 123
Width: 660
GlyphClass: 2
Flags: W
LayerCount: 2
Fore
SplineSet
31 311 m 1,0,-1
 324 310 l 1,1,-1
 336 385 l 1,2,-1
 44 385 l 1,3,-1
 31 311 l 1,0,-1
169 700 m 1,4,-1
 51 0 l 1,5,-1
 133 0 l 1,6,-1
 254 700 l 1,7,-1
 169 700 l 1,4,-1
258 0 m 2,8,9
 360 2 360 2 444.5 47.5 c 128,-1,10
 529 93 529 93 584.5 171.5 c 128,-1,11
 640 250 640 250 655 350 c 0,12,13
 669 446 669 446 638.5 525 c 128,-1,14
 608 604 608 604 539.5 651.5 c 128,-1,15
 471 699 471 699 371 700 c 2,16,-1
 215 700 l 1,17,-1
 200 615 l 1,18,-1
 362 615 l 2,19,20
 440 614 440 614 490.5 578.5 c 128,-1,21
 541 543 541 543 562 483.5 c 128,-1,22
 583 424 583 424 571 350 c 0,23,24
 558 273 558 273 515.5 214 c 128,-1,25
 473 155 473 155 409 121 c 128,-1,26
 345 87 345 87 266 85 c 2,27,-1
 110 85 l 1,28,-1
 95 0 l 1,29,-1
 258 0 l 2,8,9
EndSplineSet
EndChar

StartChar: Hbar
Encoding: 294 294 124
Width: 694
GlyphClass: 2
Flags: W
LayerCount: 2
Fore
SplineSet
155 341 m 1,0,-1
 623 341 l 1,1,-1
 636 420 l 1,2,-1
 168 420 l 1,3,-1
 155 341 l 1,0,-1
624 700 m 1,4,-1
 507 0 l 1,5,-1
 590 0 l 1,6,-1
 711 700 l 1,7,-1
 624 700 l 1,4,-1
168 700 m 1,8,-1
 51 0 l 1,9,-1
 133 0 l 1,10,-1
 255 700 l 1,11,-1
 168 700 l 1,8,-1
71 541 m 1,12,-1
 757 541 l 1,13,-1
 769 615 l 1,14,-1
 83 615 l 1,15,-1
 71 541 l 1,12,-1
EndSplineSet
EndChar

StartChar: IJ
Encoding: 306 306 125
Width: 476
GlyphClass: 2
Flags: W
LayerCount: 2
Fore
SplineSet
131 -104 m 1,0,-1
 78 -169 l 1,1,2
 95 -188 95 -188 123.5 -203.5 c 128,-1,3
 152 -219 152 -219 188 -219 c 0,4,5
 236 -219 236 -219 272 -199.5 c 128,-1,6
 308 -180 308 -180 331 -144 c 128,-1,7
 354 -108 354 -108 362 -60 c 2,8,-1
 492 700 l 1,9,-1
 413 700 l 1,10,-1
 284 -50 l 2,11,12
 277 -90 277 -90 253.5 -114 c 128,-1,13
 230 -138 230 -138 201 -140 c 0,14,15
 176 -141 176 -141 159 -130.5 c 128,-1,16
 142 -120 142 -120 131 -104 c 1,0,-1
169 700 m 1,17,-1
 51 0 l 1,18,-1
 133 0 l 1,19,-1
 254 700 l 1,20,-1
 169 700 l 1,17,-1
EndSplineSet
EndChar

StartChar: Ldot
Encoding: 319 319 126
Width: 437
GlyphClass: 2
Flags: W
LayerCount: 2
Fore
SplineSet
170 700 m 1,0,-1
 50 0 l 1,1,-1
 401 0 l 1,2,-1
 415 80 l 1,3,-1
 148 80 l 1,4,-1
 254 700 l 1,5,-1
 170 700 l 1,0,-1
291 416 m 0,6,7
 289 395 289 395 302 378.5 c 128,-1,8
 315 362 315 362 337 361 c 0,9,10
 351 360 351 360 364.5 367.5 c 128,-1,11
 378 375 378 375 388 388 c 128,-1,12
 398 401 398 401 399 414 c 0,13,14
 401 428 401 428 395 440.5 c 128,-1,15
 389 453 389 453 378 461 c 128,-1,16
 367 469 367 469 353 470 c 256,17,18
 339 471 339 471 325.5 463 c 128,-1,19
 312 455 312 455 302.5 442.5 c 128,-1,20
 293 430 293 430 291 416 c 0,6,7
EndSplineSet
EndChar

StartChar: Lslash
Encoding: 321 321 127
Width: 437
GlyphClass: 2
Flags: W
LayerCount: 2
Fore
SplineSet
37 341 m 1,0,-1
 328 509 l 1,1,-1
 316 565 l 1,2,-1
 26 396 l 1,3,-1
 37 341 l 1,0,-1
170 700 m 1,4,-1
 50 0 l 1,5,-1
 401 0 l 1,6,-1
 415 80 l 1,7,-1
 148 80 l 1,8,-1
 254 700 l 1,9,-1
 170 700 l 1,4,-1
EndSplineSet
EndChar

StartChar: Eng
Encoding: 330 330 128
Width: 775
GlyphClass: 2
Flags: W
LayerCount: 2
Fore
SplineSet
480 -220 m 0,0,1
 522 -220 522 -220 555 -201 c 128,-1,2
 588 -182 588 -182 610 -146 c 128,-1,3
 632 -110 632 -110 640 -60 c 2,4,-1
 767 700 l 1,5,-1
 682 700 l 1,6,-1
 595 179 l 1,7,-1
 158 735 l 1,8,-1
 35 0 l 1,9,-1
 120 0 l 1,10,-1
 207 521 l 1,11,-1
 578 49 l 1,12,-1
 562 -50 l 2,13,14
 557 -82 557 -82 548.5 -102 c 128,-1,15
 540 -122 540 -122 528 -131 c 128,-1,16
 516 -140 516 -140 499 -140 c 0,17,18
 483 -140 483 -140 471.5 -133 c 128,-1,19
 460 -126 460 -126 454 -114 c 1,20,-1
 399 -180 l 1,21,22
 411 -200 411 -200 430.5 -210 c 128,-1,23
 450 -220 450 -220 480 -220 c 0,0,1
EndSplineSet
EndChar

StartChar: OE
Encoding: 338 338 129
Width: 956
GlyphClass: 2
Flags: W
LayerCount: 2
Fore
SplineSet
577 341 m 1,0,-1
 901 340 l 1,1,-1
 915 420 l 1,2,-1
 590 420 l 1,3,-1
 577 341 l 1,0,-1
586 670 m 1,4,-1
 478 31 l 1,5,-1
 560 30 l 1,6,-1
 671 670 l 1,7,-1
 586 670 l 1,4,-1
875 80 m 1,8,-1
 539 80 l 1,9,-1
 516 80 l 1,10,-1
 362 80 l 2,11,12
 304 82 304 82 261.5 103.5 c 128,-1,13
 219 125 219 125 192 162 c 128,-1,14
 165 199 165 199 155.5 247 c 128,-1,15
 146 295 146 295 155 350 c 0,16,17
 165 408 165 408 191.5 457 c 128,-1,18
 218 506 218 506 258 542 c 128,-1,19
 298 578 298 578 349.5 598.5 c 128,-1,20
 401 619 401 619 461 620 c 2,21,-1
 617 620 l 1,22,-1
 633 620 l 1,23,-1
 967 620 l 1,24,-1
 982 700 l 1,25,-1
 468 700 l 2,26,27
 392 699 392 699 324.5 672.5 c 128,-1,28
 257 646 257 646 204.5 599 c 128,-1,29
 152 552 152 552 117.5 488.5 c 128,-1,30
 83 425 83 425 71 350 c 0,31,32
 60 278 60 278 75 215 c 128,-1,33
 90 152 90 152 127.5 104.5 c 128,-1,34
 165 57 165 57 222.5 29.5 c 128,-1,35
 280 2 280 2 355 0 c 2,36,-1
 862 0 l 1,37,-1
 875 80 l 1,8,-1
EndSplineSet
EndChar

StartChar: Tbar
Encoding: 358 358 130
Width: 465
GlyphClass: 2
Flags: W
LayerCount: 2
Fore
SplineSet
111 381 m 1,0,-1
 420 381 l 1,1,-1
 440 455 l 1,2,-1
 131 455 l 1,3,-1
 111 381 l 1,0,-1
87 620 m 1,4,-1
 263 620 l 1,5,-1
 156 0 l 1,6,-1
 240 0 l 1,7,-1
 347 620 l 1,8,-1
 521 620 l 1,9,-1
 535 700 l 1,10,-1
 102 700 l 1,11,-1
 87 620 l 1,4,-1
EndSplineSet
EndChar

StartChar: uni1E9E
Encoding: 7838 7838 131
Width: 716
GlyphClass: 2
Flags: W
LayerCount: 2
Fore
SplineSet
422 -12 m 0,0,1
 379 -12 379 -12 345 -3.5 c 128,-1,2
 311 5 311 5 283 20 c 128,-1,3
 255 35 255 35 230 54 c 1,4,-1
 270 126 l 1,5,6
 305 103 305 103 340.5 88.5 c 128,-1,7
 376 74 376 74 428 74 c 0,8,9
 469 74 469 74 505 84 c 128,-1,10
 541 94 541 94 563.5 116.5 c 128,-1,11
 586 139 586 139 586 176 c 0,12,13
 586 208 586 208 569.5 226 c 128,-1,14
 553 244 553 244 529 255 c 128,-1,15
 505 266 505 266 480.5 277.5 c 128,-1,16
 456 289 456 289 439.5 306.5 c 128,-1,17
 423 324 423 324 423 355 c 0,18,19
 423 387 423 387 440.5 407.5 c 128,-1,20
 458 428 458 428 484 442.5 c 128,-1,21
 510 457 510 457 536 470 c 128,-1,22
 562 483 562 483 579.5 500.5 c 128,-1,23
 597 518 597 518 597 544 c 0,24,25
 597 565 597 565 584.5 584.5 c 128,-1,26
 572 604 572 604 543.5 616 c 128,-1,27
 515 628 515 628 468 628 c 0,28,29
 403 628 403 628 346.5 600.5 c 128,-1,30
 290 573 290 573 251 518.5 c 128,-1,31
 212 464 212 464 199 382 c 2,32,-1
 136 -2 l 1,33,-1
 50 -2 l 1,34,-1
 115 389 l 2,35,36
 127 469 127 469 160.5 528.5 c 128,-1,37
 194 588 194 588 242.5 628.5 c 128,-1,38
 291 669 291 669 349.5 689 c 128,-1,39
 408 709 408 709 471 709 c 0,40,41
 535 709 535 709 583.5 692.5 c 128,-1,42
 632 676 632 676 659.5 643 c 128,-1,43
 687 610 687 610 687 562 c 0,44,45
 687 520 687 520 670 491.5 c 128,-1,46
 653 463 653 463 628.5 444.5 c 128,-1,47
 604 426 604 426 579.5 413.5 c 128,-1,48
 555 401 555 401 538 390 c 128,-1,49
 521 379 521 379 521 365 c 0,50,51
 521 348 521 348 537 338.5 c 128,-1,52
 553 329 553 329 576.5 320 c 128,-1,53
 600 311 600 311 623 296 c 128,-1,54
 646 281 646 281 662 254 c 128,-1,55
 678 227 678 227 678 182 c 0,56,57
 678 125 678 125 645.5 81.5 c 128,-1,58
 613 38 613 38 555 13 c 128,-1,59
 497 -12 497 -12 422 -12 c 0,0,1
EndSplineSet
EndChar

StartChar: uni0394
Encoding: 916 916 132
Width: 600
GlyphClass: 2
Flags: W
LayerCount: 2
Fore
SplineSet
-27 0 m 1,0,-1
 389 800 l 1,1,-1
 536 0 l 1,2,-1
 -27 0 l 1,0,-1
106 76 m 1,3,-1
 430 76 l 1,4,-1
 353 575 l 1,5,-1
 106 76 l 1,3,-1
EndSplineSet
EndChar

StartChar: uni03A9
Encoding: 937 937 133
Width: 600
GlyphClass: 2
Flags: W
LayerCount: 2
Fore
SplineSet
21 0 m 1,0,-1
 33 68 l 1,1,-1
 120 68 l 1,2,3
 100 104 100 104 88 146 c 128,-1,4
 76 188 76 188 73.5 232 c 128,-1,5
 71 276 71 276 77 317 c 0,6,7
 89 386 89 386 128.5 440.5 c 128,-1,8
 168 495 168 495 225.5 527 c 128,-1,9
 283 559 283 559 349 559 c 256,10,11
 415 559 415 559 461.5 527 c 128,-1,12
 508 495 508 495 529 440.5 c 128,-1,13
 550 386 550 386 538 317 c 0,14,15
 532 276 532 276 514.5 232 c 128,-1,16
 497 188 497 188 471 146 c 128,-1,17
 445 104 445 104 413 68 c 1,18,-1
 500 68 l 1,19,-1
 488 0 l 1,20,-1
 295 0 l 1,21,-1
 308 78 l 1,22,23
 332 95 332 95 355 121 c 128,-1,24
 378 147 378 147 396.5 178.5 c 128,-1,25
 415 210 415 210 428.5 244 c 128,-1,26
 442 278 442 278 447 311 c 0,27,28
 456 362 456 362 445.5 396.5 c 128,-1,29
 435 431 435 431 407 448.5 c 128,-1,30
 379 466 379 466 333 466 c 256,31,32
 287 466 287 466 252.5 448.5 c 128,-1,33
 218 431 218 431 196 396.5 c 128,-1,34
 174 362 174 362 165 311 c 0,35,36
 158 268 158 268 164 222.5 c 128,-1,37
 170 177 170 177 186.5 139 c 128,-1,38
 203 101 203 101 227 78 c 1,39,-1
 214 0 l 1,40,-1
 21 0 l 1,0,-1
EndSplineSet
EndChar

StartChar: uni0410
Encoding: 1040 1040 134
Width: 640
GlyphClass: 2
Flags: W
LayerCount: 2
Fore
SplineSet
152 211 m 1,0,-1
 513 210 l 1,1,-1
 496 290 l 1,2,-1
 193 290 l 1,3,-1
 152 211 l 1,0,-1
389 542 m 1,4,-1
 455 260 l 1,5,-1
 459 240 l 1,6,-1
 517 0 l 1,7,-1
 608 0 l 1,8,-1
 419 738 l 1,9,-1
 -26 0 l 1,10,-1
 73 0 l 1,11,-1
 216 246 l 1,12,-1
 227 264 l 1,13,-1
 389 542 l 1,4,-1
EndSplineSet
EndChar

StartChar: uni0411
Encoding: 1041 1041 135
Width: 532
GlyphClass: 2
Flags: W
LayerCount: 2
Fore
SplineSet
152 340 m 1,0,-1
 297 340 l 2,1,2
 339 339 339 339 368.5 323.5 c 128,-1,3
 398 308 398 308 412 279.5 c 128,-1,4
 426 251 426 251 419 210 c 0,5,6
 411 169 411 169 386 140 c 128,-1,7
 361 111 361 111 324.5 96 c 128,-1,8
 288 81 288 81 244 80 c 2,9,-1
 109 80 l 1,10,-1
 94 0 l 1,11,-1
 240 0 l 2,12,13
 306 2 306 2 362 27.5 c 128,-1,14
 418 53 418 53 456 100 c 128,-1,15
 494 147 494 147 503 210 c 0,16,17
 513 273 513 273 488 319.5 c 128,-1,18
 463 366 463 366 414.5 392.5 c 128,-1,19
 366 419 366 419 302 420 c 2,20,-1
 167 420 l 1,21,-1
 152 340 l 1,0,-1
167 700 m 1,22,-1
 51 0 l 1,23,-1
 133 0 l 1,24,-1
 241 620 l 1,25,-1
 522 620 l 1,26,-1
 536 700 l 1,27,-1
 167 700 l 1,22,-1
EndSplineSet
EndChar

StartChar: uni0412
Encoding: 1042 1042 136
Width: 542
GlyphClass: 2
Flags: W
LayerCount: 2
Fore
SplineSet
179 371 m 1,0,-1
 292 371 l 2,1,2
 349 372 349 372 397.5 389 c 128,-1,3
 446 406 446 406 478 440 c 128,-1,4
 510 474 510 474 518 525 c 0,5,6
 525 568 525 568 514 600.5 c 128,-1,7
 503 633 503 633 478.5 654.5 c 128,-1,8
 454 676 454 676 418.5 687.5 c 128,-1,9
 383 699 383 699 340 700 c 2,10,-1
 169 700 l 1,11,-1
 49 0 l 1,12,-1
 240 0 l 2,13,14
 306 2 306 2 362 25 c 128,-1,15
 418 48 418 48 455.5 93.5 c 128,-1,16
 493 139 493 139 502 205 c 0,17,18
 509 252 509 252 495.5 287 c 128,-1,19
 482 322 482 322 453 344.5 c 128,-1,20
 424 367 424 367 384 378.5 c 128,-1,21
 344 390 344 390 298 390 c 2,22,-1
 181 390 l 1,23,-1
 174 344 l 1,24,-1
 297 343 l 2,25,26
 339 342 339 342 369 325.5 c 128,-1,27
 399 309 399 309 412.5 280 c 128,-1,28
 426 251 426 251 419 210 c 0,29,30
 411 169 411 169 386 139 c 128,-1,31
 361 109 361 109 324 93 c 128,-1,32
 287 77 287 77 243 76 c 2,33,-1
 147 75 l 1,34,-1
 241 625 l 1,35,-1
 336 625 l 2,36,37
 385 623 385 623 413 595 c 128,-1,38
 441 567 441 567 433 520 c 0,39,40
 427 488 427 488 406.5 465.5 c 128,-1,41
 386 443 386 443 356.5 431 c 128,-1,42
 327 419 327 419 293 417 c 2,43,-1
 186 417 l 1,44,-1
 179 371 l 1,0,-1
EndSplineSet
EndChar

StartChar: uni0413
Encoding: 1043 1043 137
Width: 422
GlyphClass: 2
Flags: W
LayerCount: 2
Fore
SplineSet
167 700 m 1,0,-1
 51 0 l 1,1,-1
 133 0 l 1,2,-1
 241 620 l 1,3,-1
 492 620 l 1,4,-1
 507 700 l 1,5,-1
 167 700 l 1,0,-1
EndSplineSet
EndChar

StartChar: uni0403
Encoding: 1027 1027 138
Width: 422
GlyphClass: 2
Flags: W
LayerCount: 2
Fore
SplineSet
167 700 m 1,0,-1
 51 0 l 1,1,-1
 133 0 l 1,2,-1
 241 620 l 1,3,-1
 492 620 l 1,4,-1
 507 700 l 1,5,-1
 167 700 l 1,0,-1
534 917 m 1,6,-1
 465 959 l 1,7,-1
 296 801 l 1,8,-1
 337 770 l 1,9,-1
 534 917 l 1,6,-1
EndSplineSet
EndChar

StartChar: uni0414
Encoding: 1044 1044 139
Width: 772
GlyphClass: 2
Flags: W
LayerCount: 2
Fore
SplineSet
452 543 m 1,0,-1
 553 30 l 1,1,-1
 637 30 l 1,2,-1
 482 738 l 1,3,-1
 82 31 l 1,4,-1
 175 31 l 1,5,-1
 452 543 l 1,0,-1
630 0 m 1,6,-1
 610 -109 l 1,7,-1
 683 -109 l 1,8,-1
 717 80 l 1,9,-1
 25 80 l 1,10,-1
 -8 -109 l 1,11,-1
 67 -109 l 1,12,-1
 87 0 l 1,13,-1
 630 0 l 1,6,-1
EndSplineSet
EndChar

StartChar: uni0415
Encoding: 1045 1045 140
Width: 534
GlyphClass: 2
Flags: W
LayerCount: 2
Fore
SplineSet
97 0 m 1,0,-1
 442 0 l 1,1,-1
 455 80 l 1,2,-1
 110 80 l 1,3,-1
 97 0 l 1,0,-1
203 621 m 1,4,-1
 547 621 l 1,5,-1
 561 700 l 1,6,-1
 215 700 l 1,7,-1
 203 621 l 1,4,-1
155 341 m 1,8,-1
 480 341 l 1,9,-1
 493 420 l 1,10,-1
 168 420 l 1,11,-1
 155 341 l 1,8,-1
168 700 m 1,12,-1
 51 0 l 1,13,-1
 133 0 l 1,14,-1
 255 700 l 1,15,-1
 168 700 l 1,12,-1
EndSplineSet
EndChar

StartChar: uni0400
Encoding: 1024 1024 141
Width: 534
GlyphClass: 2
Flags: W
LayerCount: 2
Fore
SplineSet
97 0 m 1,0,-1
 442 0 l 1,1,-1
 455 80 l 1,2,-1
 110 80 l 1,3,-1
 97 0 l 1,0,-1
203 621 m 1,4,-1
 547 621 l 1,5,-1
 561 700 l 1,6,-1
 215 700 l 1,7,-1
 203 621 l 1,4,-1
155 341 m 1,8,-1
 480 341 l 1,9,-1
 493 420 l 1,10,-1
 168 420 l 1,11,-1
 155 341 l 1,8,-1
168 700 m 1,12,-1
 51 0 l 1,13,-1
 133 0 l 1,14,-1
 255 700 l 1,15,-1
 168 700 l 1,12,-1
233 921 m 1,16,-1
 388 770 l 1,17,-1
 435 799 l 1,18,-1
 311 960 l 1,19,-1
 233 921 l 1,16,-1
EndSplineSet
EndChar

StartChar: uni0401
Encoding: 1025 1025 142
Width: 534
GlyphClass: 2
Flags: W
LayerCount: 2
Fore
SplineSet
97 0 m 1,0,-1
 442 0 l 1,1,-1
 455 80 l 1,2,-1
 110 80 l 1,3,-1
 97 0 l 1,0,-1
203 621 m 1,4,-1
 547 621 l 1,5,-1
 561 700 l 1,6,-1
 215 700 l 1,7,-1
 203 621 l 1,4,-1
155 341 m 1,8,-1
 480 341 l 1,9,-1
 493 420 l 1,10,-1
 168 420 l 1,11,-1
 155 341 l 1,8,-1
168 700 m 1,12,-1
 51 0 l 1,13,-1
 133 0 l 1,14,-1
 255 700 l 1,15,-1
 168 700 l 1,12,-1
440 826 m 0,16,17
 439 805 439 805 452 788.5 c 128,-1,18
 465 772 465 772 487 770 c 0,19,20
 507 769 507 769 527 786.5 c 128,-1,21
 547 804 547 804 548 824 c 0,22,23
 550 845 550 845 536.5 861.5 c 128,-1,24
 523 878 523 878 502 879 c 0,25,26
 481 881 481 881 461.5 863.5 c 128,-1,27
 442 846 442 846 440 826 c 0,16,17
246 826 m 0,28,29
 245 805 245 805 258 788.5 c 128,-1,30
 271 772 271 772 293 770 c 0,31,32
 313 769 313 769 333 786.5 c 128,-1,33
 353 804 353 804 354 824 c 0,34,35
 356 845 356 845 342.5 861.5 c 128,-1,36
 329 878 329 878 308 879 c 0,37,38
 287 881 287 881 267.5 863.5 c 128,-1,39
 248 846 248 846 246 826 c 0,28,29
EndSplineSet
EndChar

StartChar: uni0416
Encoding: 1046 1046 143
Width: 869
GlyphClass: 2
Flags: W
LayerCount: 2
Fore
SplineSet
212 700 m 1,0,-1
 114 700 l 1,1,-1
 351 376 l 1,2,-1
 -26 0 l 1,3,-1
 83 0 l 1,4,-1
 450 367 l 1,5,-1
 212 700 l 1,0,-1
488 700 m 1,6,-1
 372 0 l 1,7,-1
 454 0 l 1,8,-1
 575 700 l 1,9,-1
 488 700 l 1,6,-1
836 700 m 1,10,-1
 501 374 l 1,11,-1
 737 0 l 1,12,-1
 835 0 l 1,13,-1
 591 369 l 1,14,-1
 946 700 l 1,15,-1
 836 700 l 1,10,-1
EndSplineSet
EndChar

StartChar: uni0417
Encoding: 1047 1047 144
Width: 588
GlyphClass: 2
Flags: W
LayerCount: 2
Fore
SplineSet
307 346 m 1,0,1
 358 347 358 347 405.5 359 c 128,-1,2
 453 371 453 371 492 393.5 c 128,-1,3
 531 416 531 416 556.5 448.5 c 128,-1,4
 582 481 582 481 589 524 c 0,5,6
 597 576 597 576 574 618 c 128,-1,7
 551 660 551 660 505 685 c 128,-1,8
 459 710 459 710 397 710 c 0,9,10
 333 710 333 710 281.5 687 c 128,-1,11
 230 664 230 664 196 623 c 128,-1,12
 162 582 162 582 150 527 c 1,13,-1
 231 527 l 1,14,15
 246 573 246 573 289.5 603.5 c 128,-1,16
 333 634 333 634 394 633 c 0,17,18
 433 633 433 633 459.5 618.5 c 128,-1,19
 486 604 486 604 497.5 579 c 128,-1,20
 509 554 509 554 502 521 c 0,21,22
 494 484 494 484 467.5 458 c 128,-1,23
 441 432 441 432 401.5 417.5 c 128,-1,24
 362 403 362 403 314 400 c 1,25,-1
 307 346 l 1,0,1
280 -9 m 0,26,27
 350 -9 350 -9 407.5 14 c 128,-1,28
 465 37 465 37 503 80.5 c 128,-1,29
 541 124 541 124 550 185 c 0,30,31
 558 238 558 238 541 274.5 c 128,-1,32
 524 311 524 311 489.5 334.5 c 128,-1,33
 455 358 455 358 409 369 c 128,-1,34
 363 380 363 380 312 381 c 1,35,-1
 303 326 l 1,36,37
 338 325 338 325 370 317 c 128,-1,38
 402 309 402 309 426 293.5 c 128,-1,39
 450 278 450 278 461.5 254 c 128,-1,40
 473 230 473 230 466 195 c 0,41,42
 459 156 459 156 434 128 c 128,-1,43
 409 100 409 100 371 85.5 c 128,-1,44
 333 71 333 71 284 71 c 0,45,46
 214 71 214 71 179.5 101 c 128,-1,47
 145 131 145 131 145 185 c 1,48,-1
 61 185 l 1,49,50
 56 127 56 127 81 83 c 128,-1,51
 106 39 106 39 157 15 c 128,-1,52
 208 -9 208 -9 280 -9 c 0,26,27
EndSplineSet
EndChar

StartChar: uni0418
Encoding: 1048 1048 145
Width: 752
GlyphClass: 2
Flags: W
LayerCount: 2
Fore
SplineSet
746 602 m 1,0,-1
 778 742 l 1,1,-1
 72 98 l 1,2,-1
 40 -41 l 1,3,-1
 746 602 l 1,0,-1
255 700 m 1,4,-1
 169 700 l 1,5,-1
 40 -41 l 1,6,-1
 146 72 l 1,7,-1
 255 700 l 1,4,-1
778 742 m 1,8,-1
 671 629 l 1,9,-1
 563 0 l 1,10,-1
 648 0 l 1,11,-1
 778 742 l 1,8,-1
EndSplineSet
EndChar

StartChar: uni040D
Encoding: 1037 1037 146
Width: 752
GlyphClass: 2
Flags: W
LayerCount: 2
Fore
SplineSet
746 602 m 1,0,-1
 778 742 l 1,1,-1
 72 98 l 1,2,-1
 40 -41 l 1,3,-1
 746 602 l 1,0,-1
255 700 m 1,4,-1
 169 700 l 1,5,-1
 40 -41 l 1,6,-1
 146 72 l 1,7,-1
 255 700 l 1,4,-1
778 742 m 1,8,-1
 671 629 l 1,9,-1
 563 0 l 1,10,-1
 648 0 l 1,11,-1
 778 742 l 1,8,-1
342 897 m 1,12,-1
 496 745 l 1,13,-1
 542 774 l 1,14,-1
 421 936 l 1,15,-1
 342 897 l 1,12,-1
EndSplineSet
EndChar

StartChar: uni0419
Encoding: 1049 1049 147
Width: 752
GlyphClass: 2
Flags: W
LayerCount: 2
Fore
SplineSet
746 602 m 1,0,-1
 778 742 l 1,1,-1
 72 98 l 1,2,-1
 40 -41 l 1,3,-1
 746 602 l 1,0,-1
255 700 m 1,4,-1
 169 700 l 1,5,-1
 40 -41 l 1,6,-1
 146 72 l 1,7,-1
 255 700 l 1,4,-1
778 742 m 1,8,-1
 671 629 l 1,9,-1
 563 0 l 1,10,-1
 648 0 l 1,11,-1
 778 742 l 1,8,-1
357 906 m 1,12,13
 355 869 355 869 368.5 837.5 c 128,-1,14
 382 806 382 806 413 786.5 c 128,-1,15
 444 767 444 767 492 767 c 0,16,17
 541 767 541 767 576 786.5 c 128,-1,18
 611 806 611 806 633.5 837.5 c 128,-1,19
 656 869 656 869 665 905 c 1,20,-1
 594 906 l 1,21,22
 588 890 588 890 577 872.5 c 128,-1,23
 566 855 566 855 546.5 843.5 c 128,-1,24
 527 832 527 832 497 832 c 0,25,26
 468 832 468 832 452.5 843.5 c 128,-1,27
 437 855 437 855 431.5 872.5 c 128,-1,28
 426 890 426 890 426 906 c 1,29,-1
 357 906 l 1,12,13
EndSplineSet
EndChar

StartChar: uni041A
Encoding: 1050 1050 148
Width: 548
GlyphClass: 2
Flags: W
LayerCount: 2
Fore
SplineSet
168 700 m 1,0,-1
 51 0 l 1,1,-1
 133 0 l 1,2,-1
 255 700 l 1,3,-1
 168 700 l 1,0,-1
516 700 m 1,4,-1
 171 374 l 1,5,-1
 417 0 l 1,6,-1
 515 0 l 1,7,-1
 271 369 l 1,8,-1
 626 700 l 1,9,-1
 516 700 l 1,4,-1
EndSplineSet
EndChar

StartChar: uni040C
Encoding: 1036 1036 149
Width: 548
GlyphClass: 2
Flags: W
LayerCount: 2
Fore
SplineSet
168 700 m 1,0,-1
 51 0 l 1,1,-1
 133 0 l 1,2,-1
 255 700 l 1,3,-1
 168 700 l 1,0,-1
516 700 m 1,4,-1
 171 374 l 1,5,-1
 417 0 l 1,6,-1
 515 0 l 1,7,-1
 271 369 l 1,8,-1
 626 700 l 1,9,-1
 516 700 l 1,4,-1
594 917 m 1,10,-1
 524 960 l 1,11,-1
 353 803 l 1,12,-1
 396 771 l 1,13,-1
 594 917 l 1,10,-1
EndSplineSet
EndChar

StartChar: uni041B
Encoding: 1051 1051 150
Width: 639
GlyphClass: 2
Flags: W
LayerCount: 2
Fore
SplineSet
655 700 m 1,0,-1
 191 700 l 1,1,-1
 116 260 l 2,2,3
 109 214 109 214 94 174 c 128,-1,4
 79 134 79 134 54.5 107 c 128,-1,5
 30 80 30 80 -6 73 c 1,6,-1
 -17 1 l 1,7,8
 44 6 44 6 87 39.5 c 128,-1,9
 130 73 130 73 156.5 125.5 c 128,-1,10
 183 178 183 178 194 240 c 2,11,-1
 258 620 l 1,12,-1
 556 620 l 1,13,-1
 450 0 l 1,14,-1
 535 0 l 1,15,-1
 655 700 l 1,0,-1
EndSplineSet
EndChar

StartChar: uni041C
Encoding: 1052 1052 151
Width: 786
GlyphClass: 2
Flags: W
LayerCount: 2
Fore
SplineSet
227 472 m 1,0,-1
 378 63 l 1,1,-1
 666 466 l 1,2,-1
 636 0 l 1,3,-1
 721 0 l 1,4,-1
 767 741 l 1,5,-1
 403 231 l 1,6,-1
 219 737 l 1,7,-1
 9 0 l 1,8,-1
 96 0 l 1,9,-1
 227 472 l 1,0,-1
EndSplineSet
EndChar

StartChar: uni041D
Encoding: 1053 1053 152
Width: 694
GlyphClass: 2
Flags: W
LayerCount: 2
Fore
SplineSet
155 341 m 1,0,-1
 623 341 l 1,1,-1
 636 420 l 1,2,-1
 168 420 l 1,3,-1
 155 341 l 1,0,-1
624 700 m 1,4,-1
 507 0 l 1,5,-1
 590 0 l 1,6,-1
 711 700 l 1,7,-1
 624 700 l 1,4,-1
168 700 m 1,8,-1
 51 0 l 1,9,-1
 133 0 l 1,10,-1
 255 700 l 1,11,-1
 168 700 l 1,8,-1
EndSplineSet
EndChar

StartChar: uni041E
Encoding: 1054 1054 153
Width: 767
GlyphClass: 2
Flags: W
LayerCount: 2
Fore
SplineSet
160 350 m 0,0,1
 170 406 170 406 197 456 c 128,-1,2
 224 506 224 506 265.5 544 c 128,-1,3
 307 582 307 582 358.5 603.5 c 128,-1,4
 410 625 410 625 468 625 c 0,5,6
 525 625 525 625 567.5 602 c 128,-1,7
 610 579 610 579 636 540 c 128,-1,8
 662 501 662 501 671.5 452 c 128,-1,9
 681 403 681 403 672 350 c 0,10,11
 663 294 663 294 635.5 244.5 c 128,-1,12
 608 195 608 195 567 157 c 128,-1,13
 526 119 526 119 474.5 97.5 c 128,-1,14
 423 76 423 76 365 76 c 0,15,16
 308 76 308 76 265.5 99 c 128,-1,17
 223 122 223 122 197 161 c 128,-1,18
 171 200 171 200 161.5 249 c 128,-1,19
 152 298 152 298 160 350 c 0,0,1
70 350 m 0,20,21
 60 280 60 280 75.5 215 c 128,-1,22
 91 150 91 150 129 99.5 c 128,-1,23
 167 49 167 49 225.5 19.5 c 128,-1,24
 284 -10 284 -10 359 -10 c 0,25,26
 436 -10 436 -10 504 18.5 c 128,-1,27
 572 47 572 47 626 96.5 c 128,-1,28
 680 146 680 146 715.5 211.5 c 128,-1,29
 751 277 751 277 762 350 c 0,30,31
 772 421 772 421 756.5 485.5 c 128,-1,32
 741 550 741 550 703 600.5 c 128,-1,33
 665 651 665 651 606.5 680.5 c 128,-1,34
 548 710 548 710 473 710 c 0,35,36
 396 710 396 710 328 682 c 128,-1,37
 260 654 260 654 206 604 c 128,-1,38
 152 554 152 554 116.5 489 c 128,-1,39
 81 424 81 424 70 350 c 0,20,21
EndSplineSet
EndChar

StartChar: uni041F
Encoding: 1055 1055 154
Width: 694
GlyphClass: 2
Flags: W
LayerCount: 2
Fore
SplineSet
614 621 m 1,0,-1
 507 0 l 1,1,-1
 590 0 l 1,2,-1
 710 700 l 1,3,-1
 169 700 l 1,4,-1
 49 0 l 1,5,-1
 134 0 l 1,6,-1
 241 620 l 1,7,-1
 614 621 l 1,0,-1
EndSplineSet
EndChar

StartChar: uni0420
Encoding: 1056 1056 155
Width: 532
GlyphClass: 2
Flags: W
LayerCount: 2
Fore
SplineSet
168 700 m 1,0,-1
 51 0 l 1,1,-1
 133 0 l 1,2,-1
 255 700 l 1,3,-1
 168 700 l 1,0,-1
200 620 m 1,4,-1
 345 620 l 2,5,6
 387 619 387 619 416.5 603.5 c 128,-1,7
 446 588 446 588 460 559.5 c 128,-1,8
 474 531 474 531 467 490 c 0,9,10
 459 449 459 449 434 420 c 128,-1,11
 409 391 409 391 372.5 376 c 128,-1,12
 336 361 336 361 292 360 c 2,13,-1
 157 360 l 1,14,-1
 142 280 l 1,15,-1
 287 280 l 2,16,17
 353 282 353 282 409.5 307.5 c 128,-1,18
 466 333 466 333 504 380 c 128,-1,19
 542 427 542 427 551 490 c 0,20,21
 561 553 561 553 536 599.5 c 128,-1,22
 511 646 511 646 462.5 672.5 c 128,-1,23
 414 699 414 699 350 700 c 2,24,-1
 215 700 l 1,25,-1
 200 620 l 1,4,-1
EndSplineSet
EndChar

StartChar: uni0421
Encoding: 1057 1057 156
Width: 665
GlyphClass: 2
Flags: W
LayerCount: 2
Fore
SplineSet
160 350 m 0,0,1
 170 407 170 407 197.5 456.5 c 128,-1,2
 225 506 225 506 266.5 544 c 128,-1,3
 308 582 308 582 358 603.5 c 128,-1,4
 408 625 408 625 463 625 c 0,5,6
 529 625 529 625 579.5 597.5 c 128,-1,7
 630 570 630 570 661 521 c 1,8,-1
 678 633 l 1,9,10
 635 673 635 673 585.5 692 c 128,-1,11
 536 711 536 711 468 710 c 0,12,13
 393 710 393 710 326 682 c 128,-1,14
 259 654 259 654 205.5 604.5 c 128,-1,15
 152 555 152 555 116.5 490 c 128,-1,16
 81 425 81 425 70 350 c 0,17,18
 60 279 60 279 75.5 214.5 c 128,-1,19
 91 150 91 150 129 99.5 c 128,-1,20
 167 49 167 49 224 19.5 c 128,-1,21
 281 -10 281 -10 354 -10 c 0,22,23
 425 -10 425 -10 480 10 c 128,-1,24
 535 30 535 30 583 67 c 1,25,-1
 600 178 l 1,26,27
 554 135 554 135 493 105 c 128,-1,28
 432 75 432 75 360 76 c 0,29,30
 306 76 306 76 265 99 c 128,-1,31
 224 122 224 122 198 160.5 c 128,-1,32
 172 199 172 199 162 248 c 128,-1,33
 152 297 152 297 160 350 c 0,0,1
EndSplineSet
EndChar

StartChar: uni0422
Encoding: 1058 1058 157
Width: 451
GlyphClass: 2
Flags: W
LayerCount: 2
Fore
SplineSet
87 620 m 1,0,-1
 262 620 l 1,1,-1
 156 0 l 1,2,-1
 241 0 l 1,3,-1
 347 620 l 1,4,-1
 522 620 l 1,5,-1
 536 700 l 1,6,-1
 101 700 l 1,7,-1
 87 620 l 1,0,-1
EndSplineSet
EndChar

StartChar: uni0423
Encoding: 1059 1059 158
Width: 548
GlyphClass: 2
Flags: W
LayerCount: 2
Fore
SplineSet
645 700 m 1,0,-1
 546 700 l 1,1,-1
 262 235 l 1,2,-1
 312 230 l 1,3,-1
 191 700 l 1,4,-1
 93 700 l 1,5,-1
 233 211 l 1,6,-1
 106 0 l 1,7,-1
 205 0 l 1,8,-1
 645 700 l 1,0,-1
EndSplineSet
EndChar

StartChar: uni040E
Encoding: 1038 1038 159
Width: 548
GlyphClass: 2
Flags: W
LayerCount: 2
Fore
SplineSet
645 700 m 1,0,-1
 546 700 l 1,1,-1
 262 235 l 1,2,-1
 312 230 l 1,3,-1
 191 700 l 1,4,-1
 93 700 l 1,5,-1
 233 211 l 1,6,-1
 106 0 l 1,7,-1
 205 0 l 1,8,-1
 645 700 l 1,0,-1
244 910 m 1,9,10
 242 873 242 873 256 841 c 128,-1,11
 270 809 270 809 301 789.5 c 128,-1,12
 332 770 332 770 379 770 c 0,13,14
 428 770 428 770 463.5 789.5 c 128,-1,15
 499 809 499 809 521.5 841 c 128,-1,16
 544 873 544 873 552 909 c 1,17,-1
 482 909 l 1,18,19
 476 893 476 893 464.5 876 c 128,-1,20
 453 859 453 859 434 847 c 128,-1,21
 415 835 415 835 384 835 c 0,22,23
 355 836 355 836 339.5 847.5 c 128,-1,24
 324 859 324 859 318.5 876.5 c 128,-1,25
 313 894 313 894 313 910 c 1,26,-1
 244 910 l 1,9,10
EndSplineSet
EndChar

StartChar: uni0424
Encoding: 1060 1060 160
Width: 760
GlyphClass: 2
Flags: W
LayerCount: 2
Fore
SplineSet
429 700 m 1,0,-1
 312 0 l 1,1,-1
 395 0 l 1,2,-1
 516 700 l 1,3,-1
 429 700 l 1,0,-1
671 350 m 256,4,5
 660 290 660 290 622 249 c 128,-1,6
 584 208 584 208 528 187 c 128,-1,7
 472 166 472 166 407 165 c 2,8,-1
 346 166 l 2,9,10
 284 167 284 167 237 188 c 128,-1,11
 190 209 190 209 167 250 c 128,-1,12
 144 291 144 291 155 350 c 0,13,14
 166 411 166 411 204 452 c 128,-1,15
 242 493 242 493 297.5 513.5 c 128,-1,16
 353 534 353 534 418 535 c 2,17,-1
 479 535 l 2,18,19
 541 534 541 534 588.5 513 c 128,-1,20
 636 492 636 492 659 451 c 128,-1,21
 682 410 682 410 671 350 c 256,4,5
755 350 m 0,22,23
 764 412 764 412 747 461.5 c 128,-1,24
 730 511 730 511 692.5 546 c 128,-1,25
 655 581 655 581 601.5 600 c 128,-1,26
 548 619 548 619 485 620 c 2,27,-1
 424 620 l 2,28,29
 336 619 336 619 260.5 586.5 c 128,-1,30
 185 554 185 554 134 494 c 128,-1,31
 83 434 83 434 70 350 c 0,32,33
 61 288 61 288 78 238.5 c 128,-1,34
 95 189 95 189 132.5 154 c 128,-1,35
 170 119 170 119 223.5 100 c 128,-1,36
 277 81 277 81 341 80 c 2,37,-1
 402 80 l 2,38,39
 468 81 468 81 527.5 100 c 128,-1,40
 587 119 587 119 635 153.5 c 128,-1,41
 683 188 683 188 714 237.5 c 128,-1,42
 745 287 745 287 755 350 c 0,22,23
EndSplineSet
EndChar

StartChar: uni0425
Encoding: 1061 1061 161
Width: 539
GlyphClass: 2
Flags: W
LayerCount: 2
Fore
SplineSet
507 700 m 1,0,-1
 319 444 l 1,1,-1
 223 700 l 1,2,-1
 128 700 l 1,3,-1
 267 371 l 1,4,-1
 -21 0 l 1,5,-1
 83 0 l 1,6,-1
 297 291 l 1,7,-1
 406 0 l 1,8,-1
 501 0 l 1,9,-1
 349 363 l 1,10,-1
 611 700 l 1,11,-1
 507 700 l 1,0,-1
EndSplineSet
EndChar

StartChar: uni0426
Encoding: 1062 1062 162
Width: 738
GlyphClass: 2
Flags: W
LayerCount: 2
Fore
SplineSet
145 80 m 1,0,-1
 252 700 l 1,1,-1
 170 700 l 1,2,-1
 49 0 l 1,3,-1
 598 0 l 1,4,-1
 579 -109 l 1,5,-1
 654 -109 l 1,6,-1
 687 80 l 1,7,-1
 604 80 l 1,8,-1
 711 700 l 1,9,-1
 625 700 l 1,10,-1
 519 80 l 1,11,-1
 145 80 l 1,0,-1
EndSplineSet
EndChar

StartChar: uni0427
Encoding: 1063 1063 163
Width: 597
GlyphClass: 2
Flags: W
LayerCount: 2
Fore
SplineSet
303 281 m 1,0,-1
 515 281 l 1,1,-1
 528 355 l 1,2,-1
 315 355 l 1,3,-1
 303 281 l 1,0,-1
527 700 m 1,4,-1
 410 0 l 1,5,-1
 493 0 l 1,6,-1
 614 700 l 1,7,-1
 527 700 l 1,4,-1
250 700 m 1,8,-1
 169 700 l 1,9,-1
 138 518 l 2,10,11
 130 456 130 456 145.5 401.5 c 128,-1,12
 161 347 161 347 200.5 314 c 128,-1,13
 240 281 240 281 303 281 c 1,14,-1
 315 355 l 1,15,16
 275 355 275 355 250.5 378.5 c 128,-1,17
 226 402 226 402 218 439 c 128,-1,18
 210 476 210 476 217 518 c 2,19,-1
 250 700 l 1,8,-1
EndSplineSet
EndChar

StartChar: uni0428
Encoding: 1064 1064 164
Width: 956
GlyphClass: 2
Flags: W
LayerCount: 2
Fore
SplineSet
781 80 m 1,0,-1
 507 80 l 1,1,-1
 614 700 l 1,2,-1
 528 700 l 1,3,-1
 422 80 l 1,4,-1
 148 80 l 1,5,-1
 255 700 l 1,6,-1
 169 700 l 1,7,-1
 49 0 l 1,8,-1
 853 0 l 1,9,-1
 973 700 l 1,10,-1
 887 700 l 1,11,-1
 781 80 l 1,0,-1
EndSplineSet
EndChar

StartChar: uni0429
Encoding: 1065 1065 165
Width: 1000
GlyphClass: 2
Flags: W
LayerCount: 2
Fore
SplineSet
781 80 m 1,0,-1
 507 80 l 1,1,-1
 614 700 l 1,2,-1
 528 700 l 1,3,-1
 422 80 l 1,4,-1
 148 80 l 1,5,-1
 255 700 l 1,6,-1
 169 700 l 1,7,-1
 49 0 l 1,8,-1
 860 0 l 1,9,-1
 841 -109 l 1,10,-1
 916 -109 l 1,11,-1
 949 80 l 1,12,-1
 866 80 l 1,13,-1
 973 700 l 1,14,-1
 887 700 l 1,15,-1
 781 80 l 1,0,-1
EndSplineSet
EndChar

StartChar: uni042A
Encoding: 1066 1066 166
Width: 639
GlyphClass: 2
Flags: W
LayerCount: 2
Fore
SplineSet
259 340 m 1,0,-1
 404 340 l 2,1,2
 446 340 446 340 475.5 324 c 128,-1,3
 505 308 505 308 519 279.5 c 128,-1,4
 533 251 533 251 526 210 c 0,5,6
 518 169 518 169 493 140 c 128,-1,7
 468 111 468 111 431 96 c 128,-1,8
 394 81 394 81 351 80 c 2,9,-1
 216 80 l 1,10,-1
 201 0 l 1,11,-1
 346 0 l 2,12,13
 412 0 412 0 468.5 26 c 128,-1,14
 525 52 525 52 563 99.5 c 128,-1,15
 601 147 601 147 610 210 c 0,16,17
 620 273 620 273 595 320 c 128,-1,18
 570 367 570 367 521.5 393.5 c 128,-1,19
 473 420 473 420 409 420 c 2,20,-1
 274 420 l 1,21,-1
 259 340 l 1,0,-1
265 621 m 1,22,-1
 158 0 l 1,23,-1
 240 0 l 1,24,-1
 361 700 l 1,25,-1
 101 700 l 1,26,-1
 87 620 l 1,27,-1
 265 621 l 1,22,-1
EndSplineSet
EndChar

StartChar: uni042B
Encoding: 1067 1067 167
Width: 742
GlyphClass: 2
Flags: W
LayerCount: 2
Fore
SplineSet
672 700 m 1,0,-1
 556 0 l 1,1,-1
 638 0 l 1,2,-1
 760 700 l 1,3,-1
 672 700 l 1,0,-1
168 700 m 1,4,-1
 51 0 l 1,5,-1
 133 0 l 1,6,-1
 255 700 l 1,7,-1
 168 700 l 1,4,-1
152 340 m 1,8,-1
 297 340 l 2,9,10
 339 340 339 340 368.5 324 c 128,-1,11
 398 308 398 308 412 279.5 c 128,-1,12
 426 251 426 251 419 210 c 0,13,14
 411 169 411 169 386 140 c 128,-1,15
 361 111 361 111 324.5 96 c 128,-1,16
 288 81 288 81 244 80 c 2,17,-1
 109 80 l 1,18,-1
 94 0 l 1,19,-1
 240 0 l 2,20,21
 306 0 306 0 362 26 c 128,-1,22
 418 52 418 52 456 99.5 c 128,-1,23
 494 147 494 147 503 210 c 0,24,25
 513 273 513 273 488 320 c 128,-1,26
 463 367 463 367 414.5 393.5 c 128,-1,27
 366 420 366 420 302 420 c 2,28,-1
 167 420 l 1,29,-1
 152 340 l 1,8,-1
EndSplineSet
EndChar

StartChar: uni042C
Encoding: 1068 1068 168
Width: 532
GlyphClass: 2
Flags: W
LayerCount: 2
Fore
SplineSet
168 700 m 1,0,-1
 51 0 l 1,1,-1
 133 0 l 1,2,-1
 255 700 l 1,3,-1
 168 700 l 1,0,-1
152 340 m 1,4,-1
 297 340 l 2,5,6
 339 340 339 340 368.5 324 c 128,-1,7
 398 308 398 308 412 279.5 c 128,-1,8
 426 251 426 251 419 210 c 0,9,10
 411 169 411 169 386 140 c 128,-1,11
 361 111 361 111 324.5 96 c 128,-1,12
 288 81 288 81 244 80 c 2,13,-1
 109 80 l 1,14,-1
 94 0 l 1,15,-1
 240 0 l 2,16,17
 306 0 306 0 362 26 c 128,-1,18
 418 52 418 52 456 99.5 c 128,-1,19
 494 147 494 147 503 210 c 0,20,21
 513 273 513 273 488 320 c 128,-1,22
 463 367 463 367 414.5 393.5 c 128,-1,23
 366 420 366 420 302 420 c 2,24,-1
 167 420 l 1,25,-1
 152 340 l 1,4,-1
EndSplineSet
EndChar

StartChar: uni042D
Encoding: 1069 1069 169
Width: 665
GlyphClass: 2
Flags: W
LayerCount: 2
Fore
SplineSet
155 311 m 1,0,-1
 567 311 l 1,1,-1
 581 390 l 1,2,-1
 167 390 l 1,3,-1
 155 311 l 1,0,-1
570 350 m 0,4,5
 561 294 561 294 533 244.5 c 128,-1,6
 505 195 505 195 464 157 c 128,-1,7
 423 119 423 119 373 97.5 c 128,-1,8
 323 76 323 76 268 76 c 0,9,10
 201 76 201 76 151 103 c 128,-1,11
 101 130 101 130 69 179 c 1,12,-1
 52 68 l 1,13,14
 95 28 95 28 145 9 c 128,-1,15
 195 -10 195 -10 262 -10 c 0,16,17
 337 -10 337 -10 404 18.5 c 128,-1,18
 471 47 471 47 525 96.5 c 128,-1,19
 579 146 579 146 614 211 c 128,-1,20
 649 276 649 276 660 350 c 0,21,22
 670 421 670 421 654.5 485.5 c 128,-1,23
 639 550 639 550 601 600.5 c 128,-1,24
 563 651 563 651 506 680.5 c 128,-1,25
 449 710 449 710 376 710 c 0,26,27
 306 711 306 711 251 691 c 128,-1,28
 196 671 196 671 147 634 c 1,29,-1
 131 522 l 1,30,31
 177 566 177 566 237.5 596 c 128,-1,32
 298 626 298 626 371 625 c 0,33,34
 425 624 425 624 466 601 c 128,-1,35
 507 578 507 578 533 539.5 c 128,-1,36
 559 501 559 501 568.5 452 c 128,-1,37
 578 403 578 403 570 350 c 0,4,5
EndSplineSet
EndChar

StartChar: uni042E
Encoding: 1070 1070 170
Width: 1000
GlyphClass: 2
Flags: W
LayerCount: 2
Fore
SplineSet
155 341 m 1,0,-1
 370 341 l 1,1,-1
 384 420 l 1,2,-1
 168 420 l 1,3,-1
 155 341 l 1,0,-1
168 700 m 1,4,-1
 51 0 l 1,5,-1
 133 0 l 1,6,-1
 255 700 l 1,7,-1
 168 700 l 1,4,-1
393 350 m 0,8,9
 403 406 403 406 430 456 c 128,-1,10
 457 506 457 506 498.5 544 c 128,-1,11
 540 582 540 582 591.5 603.5 c 128,-1,12
 643 625 643 625 701 625 c 0,13,14
 758 625 758 625 800.5 602 c 128,-1,15
 843 579 843 579 869 540 c 128,-1,16
 895 501 895 501 904.5 452 c 128,-1,17
 914 403 914 403 905 350 c 0,18,19
 896 294 896 294 868.5 244.5 c 128,-1,20
 841 195 841 195 800 157 c 128,-1,21
 759 119 759 119 707.5 97.5 c 128,-1,22
 656 76 656 76 598 76 c 0,23,24
 541 76 541 76 498.5 99 c 128,-1,25
 456 122 456 122 430 161 c 128,-1,26
 404 200 404 200 394.5 249 c 128,-1,27
 385 298 385 298 393 350 c 0,8,9
303 350 m 0,28,29
 293 280 293 280 308.5 215 c 128,-1,30
 324 150 324 150 362 99.5 c 128,-1,31
 400 49 400 49 458.5 19.5 c 128,-1,32
 517 -10 517 -10 592 -10 c 0,33,34
 669 -10 669 -10 737 18.5 c 128,-1,35
 805 47 805 47 859 96.5 c 128,-1,36
 913 146 913 146 948.5 211.5 c 128,-1,37
 984 277 984 277 995 350 c 0,38,39
 1005 421 1005 421 989.5 485.5 c 128,-1,40
 974 550 974 550 936 600.5 c 128,-1,41
 898 651 898 651 839.5 680.5 c 128,-1,42
 781 710 781 710 706 710 c 0,43,44
 629 710 629 710 561 682 c 128,-1,45
 493 654 493 654 439 604 c 128,-1,46
 385 554 385 554 349.5 489 c 128,-1,47
 314 424 314 424 303 350 c 0,28,29
EndSplineSet
EndChar

StartChar: uni042F
Encoding: 1071 1071 171
Width: 543
GlyphClass: 2
Flags: W
LayerCount: 2
Fore
SplineSet
381 345 m 1,0,-1
 281 345 l 1,1,-1
 -21 0 l 1,2,-1
 88 0 l 1,3,-1
 381 345 l 1,0,-1
560 700 m 1,4,-1
 475 700 l 1,5,-1
 355 0 l 1,6,-1
 440 0 l 1,7,-1
 560 700 l 1,4,-1
501 625 m 1,8,-1
 515 700 l 1,9,-1
 370 700 l 2,10,11
 305 700 305 700 248 674 c 128,-1,12
 191 648 191 648 153.5 601.5 c 128,-1,13
 116 555 116 555 106 491 c 0,14,15
 97 429 97 429 121.5 382 c 128,-1,16
 146 335 146 335 195 308.5 c 128,-1,17
 244 282 244 282 307 280 c 2,18,-1
 442 280 l 1,19,-1
 456 355 l 1,20,-1
 311 356 l 2,21,22
 269 358 269 358 239.5 374.5 c 128,-1,23
 210 391 210 391 196.5 420.5 c 128,-1,24
 183 450 183 450 190 490 c 0,25,26
 198 532 198 532 223 562.5 c 128,-1,27
 248 593 248 593 285.5 609 c 128,-1,28
 323 625 323 625 366 625 c 2,29,-1
 501 625 l 1,8,-1
EndSplineSet
EndChar

StartChar: a
Encoding: 97 97 172
Width: 553
GlyphClass: 2
Flags: W
LayerCount: 2
Fore
SplineSet
463 460 m 1,0,-1
 386 0 l 1,1,-1
 459 0 l 1,2,-1
 539 460 l 1,3,-1
 463 460 l 1,0,-1
45 230 m 0,4,5
 36 165 36 165 56 110.5 c 128,-1,6
 76 56 76 56 120.5 23.5 c 128,-1,7
 165 -9 165 -9 230 -9 c 0,8,9
 276 -9 276 -9 314.5 9.5 c 128,-1,10
 353 28 353 28 382 61 c 128,-1,11
 411 94 411 94 430 137.5 c 128,-1,12
 449 181 449 181 456 230 c 0,13,14
 462 277 462 277 456.5 319.5 c 128,-1,15
 451 362 451 362 433 396 c 128,-1,16
 415 430 415 430 383.5 450 c 128,-1,17
 352 470 352 470 306 470 c 0,18,19
 241 471 241 471 185.5 439 c 128,-1,20
 130 407 130 407 92.5 352.5 c 128,-1,21
 55 298 55 298 45 230 c 0,4,5
125 230 m 0,22,23
 133 277 133 277 159.5 315 c 128,-1,24
 186 353 186 353 225 374.5 c 128,-1,25
 264 396 264 396 308 395 c 0,26,27
 338 394 338 394 360.5 380.5 c 128,-1,28
 383 367 383 367 398 344 c 128,-1,29
 413 321 413 321 419 292 c 128,-1,30
 425 263 425 263 420 230 c 0,31,32
 414 196 414 196 397.5 166 c 128,-1,33
 381 136 381 136 357 113.5 c 128,-1,34
 333 91 333 91 304.5 78.5 c 128,-1,35
 276 66 276 66 246 66 c 0,36,37
 202 66 202 66 172.5 88.5 c 128,-1,38
 143 111 143 111 131 148.5 c 128,-1,39
 119 186 119 186 125 230 c 0,22,23
EndSplineSet
Substitution2: "'ss01' Style Set 1 in Latin lookup 0 subtable" a.alt
EndChar

StartChar: agrave
Encoding: 224 224 173
Width: 553
GlyphClass: 2
Flags: W
LayerCount: 2
Fore
SplineSet
463 460 m 1,0,-1
 386 0 l 1,1,-1
 459 0 l 1,2,-1
 539 460 l 1,3,-1
 463 460 l 1,0,-1
45 230 m 0,4,5
 36 165 36 165 56 110.5 c 128,-1,6
 76 56 76 56 120.5 23.5 c 128,-1,7
 165 -9 165 -9 230 -9 c 0,8,9
 276 -9 276 -9 314.5 9.5 c 128,-1,10
 353 28 353 28 382 61 c 128,-1,11
 411 94 411 94 430 137.5 c 128,-1,12
 449 181 449 181 456 230 c 0,13,14
 462 277 462 277 456.5 319.5 c 128,-1,15
 451 362 451 362 433 396 c 128,-1,16
 415 430 415 430 383.5 450 c 128,-1,17
 352 470 352 470 306 470 c 0,18,19
 241 471 241 471 185.5 439 c 128,-1,20
 130 407 130 407 92.5 352.5 c 128,-1,21
 55 298 55 298 45 230 c 0,4,5
125 230 m 0,22,23
 133 277 133 277 159.5 315 c 128,-1,24
 186 353 186 353 225 374.5 c 128,-1,25
 264 396 264 396 308 395 c 0,26,27
 338 394 338 394 360.5 380.5 c 128,-1,28
 383 367 383 367 398 344 c 128,-1,29
 413 321 413 321 419 292 c 128,-1,30
 425 263 425 263 420 230 c 0,31,32
 414 196 414 196 397.5 166 c 128,-1,33
 381 136 381 136 357 113.5 c 128,-1,34
 333 91 333 91 304.5 78.5 c 128,-1,35
 276 66 276 66 246 66 c 0,36,37
 202 66 202 66 172.5 88.5 c 128,-1,38
 143 111 143 111 131 148.5 c 128,-1,39
 119 186 119 186 125 230 c 0,22,23
198 681 m 1,40,-1
 350 530 l 1,41,-1
 397 559 l 1,42,-1
 277 720 l 1,43,-1
 198 681 l 1,40,-1
EndSplineSet
Substitution2: "'ss01' Style Set 1 in Latin lookup 0 subtable" agrave.alt
EndChar

StartChar: aacute
Encoding: 225 225 174
Width: 553
GlyphClass: 2
Flags: W
LayerCount: 2
Fore
SplineSet
463 460 m 1,0,-1
 386 0 l 1,1,-1
 459 1 l 1,2,-1
 539 460 l 1,3,-1
 463 460 l 1,0,-1
45 230 m 0,4,5
 36 165 36 165 56 110.5 c 128,-1,6
 76 56 76 56 120.5 23.5 c 128,-1,7
 165 -9 165 -9 230 -9 c 0,8,9
 276 -9 276 -9 314.5 9.5 c 128,-1,10
 353 28 353 28 382 61 c 128,-1,11
 411 94 411 94 430 137.5 c 128,-1,12
 449 181 449 181 456 230 c 0,13,14
 462 277 462 277 456.5 319.5 c 128,-1,15
 451 362 451 362 433 396 c 128,-1,16
 415 430 415 430 383.5 450 c 128,-1,17
 352 470 352 470 306 470 c 0,18,19
 241 471 241 471 185.5 439 c 128,-1,20
 130 407 130 407 92.5 352.5 c 128,-1,21
 55 298 55 298 45 230 c 0,4,5
125 230 m 0,22,23
 133 277 133 277 159.5 315 c 128,-1,24
 186 353 186 353 225 374.5 c 128,-1,25
 264 396 264 396 308 395 c 0,26,27
 338 394 338 394 360.5 380.5 c 128,-1,28
 383 367 383 367 398 344 c 128,-1,29
 413 321 413 321 419 292 c 128,-1,30
 425 263 425 263 420 230 c 0,31,32
 414 196 414 196 397.5 166 c 128,-1,33
 381 136 381 136 357 113.5 c 128,-1,34
 333 91 333 91 304.5 78.5 c 128,-1,35
 276 66 276 66 246 66 c 0,36,37
 202 66 202 66 172.5 88.5 c 128,-1,38
 143 111 143 111 131 148.5 c 128,-1,39
 119 186 119 186 125 230 c 0,22,23
471 678 m 1,40,-1
 403 720 l 1,41,-1
 231 562 l 1,42,-1
 272 531 l 1,43,-1
 471 678 l 1,40,-1
EndSplineSet
Substitution2: "'ss01' Style Set 1 in Latin lookup 0 subtable" aacute.alt
EndChar

StartChar: acircumflex
Encoding: 226 226 175
Width: 553
GlyphClass: 2
Flags: W
LayerCount: 2
Fore
SplineSet
463 460 m 1,0,-1
 386 0 l 1,1,-1
 459 0 l 1,2,-1
 539 460 l 1,3,-1
 463 460 l 1,0,-1
45 230 m 0,4,5
 36 165 36 165 56 110.5 c 128,-1,6
 76 56 76 56 120.5 23.5 c 128,-1,7
 165 -9 165 -9 230 -9 c 0,8,9
 276 -9 276 -9 314.5 9.5 c 128,-1,10
 353 28 353 28 382 61 c 128,-1,11
 411 94 411 94 430 137.5 c 128,-1,12
 449 181 449 181 456 230 c 0,13,14
 462 277 462 277 456.5 319.5 c 128,-1,15
 451 362 451 362 433 396 c 128,-1,16
 415 430 415 430 383.5 450 c 128,-1,17
 352 470 352 470 306 470 c 0,18,19
 241 471 241 471 185.5 439 c 128,-1,20
 130 407 130 407 92.5 352.5 c 128,-1,21
 55 298 55 298 45 230 c 0,4,5
125 230 m 0,22,23
 133 277 133 277 159.5 315 c 128,-1,24
 186 353 186 353 225 374.5 c 128,-1,25
 264 396 264 396 308 395 c 0,26,27
 338 394 338 394 360.5 380.5 c 128,-1,28
 383 367 383 367 398 344 c 128,-1,29
 413 321 413 321 419 292 c 128,-1,30
 425 263 425 263 420 230 c 0,31,32
 414 196 414 196 397.5 166 c 128,-1,33
 381 136 381 136 357 113.5 c 128,-1,34
 333 91 333 91 304.5 78.5 c 128,-1,35
 276 66 276 66 246 66 c 0,36,37
 202 66 202 66 172.5 88.5 c 128,-1,38
 143 111 143 111 131 148.5 c 128,-1,39
 119 186 119 186 125 230 c 0,22,23
357 625 m 1,40,-1
 447 531 l 1,41,-1
 501 569 l 1,42,-1
 367 710 l 1,43,-1
 189 572 l 1,44,-1
 233 531 l 1,45,-1
 357 625 l 1,40,-1
EndSplineSet
Substitution2: "'ss01' Style Set 1 in Latin lookup 0 subtable" acircumflex.alt
EndChar

StartChar: atilde
Encoding: 227 227 176
Width: 553
GlyphClass: 2
Flags: W
LayerCount: 2
Fore
SplineSet
463 460 m 1,0,-1
 386 0 l 1,1,-1
 459 0 l 1,2,-1
 539 460 l 1,3,-1
 463 460 l 1,0,-1
45 230 m 0,4,5
 36 165 36 165 56 110.5 c 128,-1,6
 76 56 76 56 120.5 23.5 c 128,-1,7
 165 -9 165 -9 230 -9 c 0,8,9
 276 -9 276 -9 314.5 9.5 c 128,-1,10
 353 28 353 28 382 61 c 128,-1,11
 411 94 411 94 430 137.5 c 128,-1,12
 449 181 449 181 456 230 c 0,13,14
 462 277 462 277 456.5 319.5 c 128,-1,15
 451 362 451 362 433 396 c 128,-1,16
 415 430 415 430 383.5 450 c 128,-1,17
 352 470 352 470 306 470 c 0,18,19
 241 471 241 471 185.5 439 c 128,-1,20
 130 407 130 407 92.5 352.5 c 128,-1,21
 55 298 55 298 45 230 c 0,4,5
125 230 m 0,22,23
 133 277 133 277 159.5 315 c 128,-1,24
 186 353 186 353 225 374.5 c 128,-1,25
 264 396 264 396 308 395 c 0,26,27
 338 394 338 394 360.5 380.5 c 128,-1,28
 383 367 383 367 398 344 c 128,-1,29
 413 321 413 321 419 292 c 128,-1,30
 425 263 425 263 420 230 c 0,31,32
 414 196 414 196 397.5 166 c 128,-1,33
 381 136 381 136 357 113.5 c 128,-1,34
 333 91 333 91 304.5 78.5 c 128,-1,35
 276 66 276 66 246 66 c 0,36,37
 202 66 202 66 172.5 88.5 c 128,-1,38
 143 111 143 111 131 148.5 c 128,-1,39
 119 186 119 186 125 230 c 0,22,23
184 569 m 1,40,-1
 231 531 l 1,41,42
 238 545 238 545 250.5 562.5 c 128,-1,43
 263 580 263 580 290 581 c 0,44,45
 311 582 311 582 326.5 570.5 c 128,-1,46
 342 559 342 559 359 547.5 c 128,-1,47
 376 536 376 536 399 535 c 0,48,49
 424 534 424 534 445 545 c 128,-1,50
 466 556 466 556 483.5 572.5 c 128,-1,51
 501 589 501 589 512 606 c 1,52,-1
 473 650 l 1,53,54
 458 631 458 631 442.5 617.5 c 128,-1,55
 427 604 427 604 409 603 c 0,56,57
 386 602 386 602 370.5 613.5 c 128,-1,58
 355 625 355 625 339 637 c 128,-1,59
 323 649 323 649 297 649 c 0,60,61
 274 649 274 649 251.5 638 c 128,-1,62
 229 627 229 627 211.5 609 c 128,-1,63
 194 591 194 591 184 569 c 1,40,-1
EndSplineSet
Substitution2: "'ss01' Style Set 1 in Latin lookup 0 subtable" atilde.alt
EndChar

StartChar: adieresis
Encoding: 228 228 177
Width: 553
GlyphClass: 2
Flags: W
LayerCount: 2
Fore
SplineSet
463 460 m 1,0,-1
 386 0 l 1,1,-1
 459 0 l 1,2,-1
 539 460 l 1,3,-1
 463 460 l 1,0,-1
45 230 m 0,4,5
 36 165 36 165 56 110.5 c 128,-1,6
 76 56 76 56 120.5 23.5 c 128,-1,7
 165 -9 165 -9 230 -9 c 0,8,9
 276 -9 276 -9 314.5 9.5 c 128,-1,10
 353 28 353 28 382 61 c 128,-1,11
 411 94 411 94 430 137.5 c 128,-1,12
 449 181 449 181 456 230 c 0,13,14
 462 277 462 277 456.5 319.5 c 128,-1,15
 451 362 451 362 433 396 c 128,-1,16
 415 430 415 430 383.5 450 c 128,-1,17
 352 470 352 470 306 470 c 0,18,19
 241 471 241 471 185.5 439 c 128,-1,20
 130 407 130 407 92.5 352.5 c 128,-1,21
 55 298 55 298 45 230 c 0,4,5
125 230 m 0,22,23
 133 277 133 277 159.5 315 c 128,-1,24
 186 353 186 353 225 374.5 c 128,-1,25
 264 396 264 396 308 395 c 0,26,27
 338 394 338 394 360.5 380.5 c 128,-1,28
 383 367 383 367 398 344 c 128,-1,29
 413 321 413 321 419 292 c 128,-1,30
 425 263 425 263 420 230 c 0,31,32
 414 196 414 196 397.5 166 c 128,-1,33
 381 136 381 136 357 113.5 c 128,-1,34
 333 91 333 91 304.5 78.5 c 128,-1,35
 276 66 276 66 246 66 c 0,36,37
 202 66 202 66 172.5 88.5 c 128,-1,38
 143 111 143 111 131 148.5 c 128,-1,39
 119 186 119 186 125 230 c 0,22,23
391 586 m 0,40,41
 389 565 389 565 402 548.5 c 128,-1,42
 415 532 415 532 436 531 c 256,43,44
 457 530 457 530 477 547 c 128,-1,45
 497 564 497 564 499 584 c 0,46,47
 501 605 501 605 487.5 622 c 128,-1,48
 474 639 474 639 453 640 c 256,49,50
 432 641 432 641 412.5 623.5 c 128,-1,51
 393 606 393 606 391 586 c 0,40,41
197 586 m 0,52,53
 195 565 195 565 208 548.5 c 128,-1,54
 221 532 221 532 242 531 c 256,55,56
 263 530 263 530 282.5 547 c 128,-1,57
 302 564 302 564 304 584 c 0,58,59
 306 605 306 605 293 622 c 128,-1,60
 280 639 280 639 259 640 c 256,61,62
 238 641 238 641 218.5 623.5 c 128,-1,63
 199 606 199 606 197 586 c 0,52,53
EndSplineSet
Substitution2: "'ss01' Style Set 1 in Latin lookup 0 subtable" adieresis.alt
EndChar

StartChar: aring
Encoding: 229 229 178
Width: 553
GlyphClass: 2
Flags: W
LayerCount: 2
Fore
SplineSet
463 460 m 1,0,-1
 386 0 l 1,1,-1
 459 0 l 1,2,-1
 539 460 l 1,3,-1
 463 460 l 1,0,-1
45 230 m 0,4,5
 36 165 36 165 56 110.5 c 128,-1,6
 76 56 76 56 120.5 23.5 c 128,-1,7
 165 -9 165 -9 230 -9 c 0,8,9
 276 -9 276 -9 314.5 9.5 c 128,-1,10
 353 28 353 28 382 61 c 128,-1,11
 411 94 411 94 430 137.5 c 128,-1,12
 449 181 449 181 456 230 c 0,13,14
 462 277 462 277 456.5 319.5 c 128,-1,15
 451 362 451 362 433 396 c 128,-1,16
 415 430 415 430 383.5 450 c 128,-1,17
 352 470 352 470 306 470 c 0,18,19
 241 471 241 471 185.5 439 c 128,-1,20
 130 407 130 407 92.5 352.5 c 128,-1,21
 55 298 55 298 45 230 c 0,4,5
125 230 m 0,22,23
 133 277 133 277 159.5 315 c 128,-1,24
 186 353 186 353 225 374.5 c 128,-1,25
 264 396 264 396 308 395 c 0,26,27
 338 394 338 394 360.5 380.5 c 128,-1,28
 383 367 383 367 398 344 c 128,-1,29
 413 321 413 321 419 292 c 128,-1,30
 425 263 425 263 420 230 c 0,31,32
 414 196 414 196 397.5 166 c 128,-1,33
 381 136 381 136 357 113.5 c 128,-1,34
 333 91 333 91 304.5 78.5 c 128,-1,35
 276 66 276 66 246 66 c 0,36,37
 202 66 202 66 172.5 88.5 c 128,-1,38
 143 111 143 111 131 148.5 c 128,-1,39
 119 186 119 186 125 230 c 0,22,23
229 630 m 0,40,41
 226 603 226 603 236 580.5 c 128,-1,42
 246 558 246 558 267 544.5 c 128,-1,43
 288 531 288 531 314 530 c 0,44,45
 341 530 341 530 365.5 543.5 c 128,-1,46
 390 557 390 557 407.5 579.5 c 128,-1,47
 425 602 425 602 429 629 c 256,48,49
 433 656 433 656 422.5 679 c 128,-1,50
 412 702 412 702 391.5 715.5 c 128,-1,51
 371 729 371 729 344 729 c 0,52,53
 318 730 318 730 293 716.5 c 128,-1,54
 268 703 268 703 250.5 680.5 c 128,-1,55
 233 658 233 658 229 630 c 0,40,41
279 629 m 0,56,57
 281 643 281 643 290.5 655 c 128,-1,58
 300 667 300 667 314 674.5 c 128,-1,59
 328 682 328 682 340 682 c 0,60,61
 358 682 358 682 369.5 666 c 128,-1,62
 381 650 381 650 379 630 c 0,63,64
 378 617 378 617 368 604.5 c 128,-1,65
 358 592 358 592 344.5 584.5 c 128,-1,66
 331 577 331 577 318 577 c 0,67,68
 300 577 300 577 288.5 593.5 c 128,-1,69
 277 610 277 610 279 629 c 0,56,57
EndSplineSet
Substitution2: "'ss01' Style Set 1 in Latin lookup 0 subtable" aring.alt
EndChar

StartChar: amacron
Encoding: 257 257 179
Width: 553
GlyphClass: 2
Flags: W
LayerCount: 2
Fore
SplineSet
463 460 m 1,0,-1
 386 0 l 1,1,-1
 459 0 l 1,2,-1
 539 460 l 1,3,-1
 463 460 l 1,0,-1
45 230 m 0,4,5
 36 165 36 165 56 110.5 c 128,-1,6
 76 56 76 56 120.5 23.5 c 128,-1,7
 165 -9 165 -9 230 -9 c 0,8,9
 276 -9 276 -9 314.5 9.5 c 128,-1,10
 353 28 353 28 382 61 c 128,-1,11
 411 94 411 94 430 137.5 c 128,-1,12
 449 181 449 181 456 230 c 0,13,14
 462 277 462 277 456.5 319.5 c 128,-1,15
 451 362 451 362 433 396 c 128,-1,16
 415 430 415 430 383.5 450 c 128,-1,17
 352 470 352 470 306 470 c 0,18,19
 241 471 241 471 185.5 439 c 128,-1,20
 130 407 130 407 92.5 352.5 c 128,-1,21
 55 298 55 298 45 230 c 0,4,5
125 230 m 0,22,23
 133 277 133 277 159.5 315 c 128,-1,24
 186 353 186 353 225 374.5 c 128,-1,25
 264 396 264 396 308 395 c 0,26,27
 338 394 338 394 360.5 380.5 c 128,-1,28
 383 367 383 367 398 344 c 128,-1,29
 413 321 413 321 419 292 c 128,-1,30
 425 263 425 263 420 230 c 0,31,32
 414 196 414 196 397.5 166 c 128,-1,33
 381 136 381 136 357 113.5 c 128,-1,34
 333 91 333 91 304.5 78.5 c 128,-1,35
 276 66 276 66 246 66 c 0,36,37
 202 66 202 66 172.5 88.5 c 128,-1,38
 143 111 143 111 131 148.5 c 128,-1,39
 119 186 119 186 125 230 c 0,22,23
159 541 m 1,40,-1
 500 540 l 1,41,-1
 513 615 l 1,42,-1
 171 615 l 1,43,-1
 159 541 l 1,40,-1
EndSplineSet
Substitution2: "'ss01' Style Set 1 in Latin lookup 0 subtable" amacron.alt
EndChar

StartChar: abreve
Encoding: 259 259 180
Width: 553
GlyphClass: 2
Flags: W
LayerCount: 2
Fore
SplineSet
463 460 m 1,0,-1
 386 0 l 1,1,-1
 459 0 l 1,2,-1
 539 460 l 1,3,-1
 463 460 l 1,0,-1
45 230 m 0,4,5
 36 165 36 165 56 110.5 c 128,-1,6
 76 56 76 56 120.5 23.5 c 128,-1,7
 165 -9 165 -9 230 -9 c 0,8,9
 276 -9 276 -9 314.5 9.5 c 128,-1,10
 353 28 353 28 382 61 c 128,-1,11
 411 94 411 94 430 137.5 c 128,-1,12
 449 181 449 181 456 230 c 0,13,14
 462 277 462 277 456.5 319.5 c 128,-1,15
 451 362 451 362 433 396 c 128,-1,16
 415 430 415 430 383.5 450 c 128,-1,17
 352 470 352 470 306 470 c 0,18,19
 241 471 241 471 185.5 439 c 128,-1,20
 130 407 130 407 92.5 352.5 c 128,-1,21
 55 298 55 298 45 230 c 0,4,5
125 230 m 0,22,23
 133 277 133 277 159.5 315 c 128,-1,24
 186 353 186 353 225 374.5 c 128,-1,25
 264 396 264 396 308 395 c 0,26,27
 338 394 338 394 360.5 380.5 c 128,-1,28
 383 367 383 367 398 344 c 128,-1,29
 413 321 413 321 419 292 c 128,-1,30
 425 263 425 263 420 230 c 0,31,32
 414 196 414 196 397.5 166 c 128,-1,33
 381 136 381 136 357 113.5 c 128,-1,34
 333 91 333 91 304.5 78.5 c 128,-1,35
 276 66 276 66 246 66 c 0,36,37
 202 66 202 66 172.5 88.5 c 128,-1,38
 143 111 143 111 131 148.5 c 128,-1,39
 119 186 119 186 125 230 c 0,22,23
168 670 m 1,40,41
 166 633 166 633 180 601 c 128,-1,42
 194 569 194 569 224.5 549.5 c 128,-1,43
 255 530 255 530 303 530 c 0,44,45
 352 530 352 530 387.5 549.5 c 128,-1,46
 423 569 423 569 445.5 601 c 128,-1,47
 468 633 468 633 476 669 c 1,48,-1
 406 669 l 1,49,50
 400 653 400 653 388.5 636 c 128,-1,51
 377 619 377 619 358 607 c 128,-1,52
 339 595 339 595 308 595 c 0,53,54
 279 596 279 596 263.5 607.5 c 128,-1,55
 248 619 248 619 242.5 636 c 128,-1,56
 237 653 237 653 237 669 c 1,57,-1
 168 670 l 1,40,41
EndSplineSet
Substitution2: "'ss01' Style Set 1 in Latin lookup 0 subtable" abreve.alt
EndChar

StartChar: aogonek
Encoding: 261 261 181
Width: 553
GlyphClass: 2
Flags: W
LayerCount: 2
Fore
SplineSet
463 460 m 1,0,-1
 386 0 l 1,1,-1
 459 1 l 1,2,-1
 539 460 l 1,3,-1
 463 460 l 1,0,-1
45 230 m 0,4,5
 36 165 36 165 56 110.5 c 128,-1,6
 76 56 76 56 120.5 23.5 c 128,-1,7
 165 -9 165 -9 230 -9 c 0,8,9
 276 -9 276 -9 314.5 9.5 c 128,-1,10
 353 28 353 28 382 61 c 128,-1,11
 411 94 411 94 430 137.5 c 128,-1,12
 449 181 449 181 456 230 c 0,13,14
 462 277 462 277 456.5 319.5 c 128,-1,15
 451 362 451 362 433 396 c 128,-1,16
 415 430 415 430 383.5 450 c 128,-1,17
 352 470 352 470 306 470 c 0,18,19
 241 471 241 471 185.5 439 c 128,-1,20
 130 407 130 407 92.5 352.5 c 128,-1,21
 55 298 55 298 45 230 c 0,4,5
125 230 m 0,22,23
 133 277 133 277 159.5 315 c 128,-1,24
 186 353 186 353 225 374.5 c 128,-1,25
 264 396 264 396 308 395 c 0,26,27
 338 394 338 394 360.5 380.5 c 128,-1,28
 383 367 383 367 398 344 c 128,-1,29
 413 321 413 321 419 292 c 128,-1,30
 425 263 425 263 420 230 c 0,31,32
 414 196 414 196 397.5 166 c 128,-1,33
 381 136 381 136 357 113.5 c 128,-1,34
 333 91 333 91 304.5 78.5 c 128,-1,35
 276 66 276 66 246 66 c 0,36,37
 202 66 202 66 172.5 88.5 c 128,-1,38
 143 111 143 111 131 148.5 c 128,-1,39
 119 186 119 186 125 230 c 0,22,23
440 -130 m 1,40,41
 430 -137 430 -137 417.5 -143.5 c 128,-1,42
 405 -150 405 -150 388 -149 c 0,43,44
 367 -147 367 -147 358 -134.5 c 128,-1,45
 349 -122 349 -122 351 -100 c 0,46,47
 355 -78 355 -78 372 -59.5 c 128,-1,48
 389 -41 389 -41 412.5 -26 c 128,-1,49
 436 -11 436 -11 459 0 c 1,50,-1
 421 25 l 1,51,52
 388 9 388 9 355 -12 c 128,-1,53
 322 -33 322 -33 298.5 -59.5 c 128,-1,54
 275 -86 275 -86 269 -119 c 0,55,56
 262 -165 262 -165 291 -192.5 c 128,-1,57
 320 -220 320 -220 374 -219 c 0,58,59
 403 -219 403 -219 426 -207.5 c 128,-1,60
 449 -196 449 -196 465 -181 c 1,61,-1
 440 -130 l 1,40,41
EndSplineSet
Substitution2: "'ss01' Style Set 1 in Latin lookup 0 subtable" aogonek.alt
EndChar

StartChar: b
Encoding: 98 98 182
Width: 553
GlyphClass: 2
Flags: W
LayerCount: 2
Fore
SplineSet
253 780 m 1,0,-1
 174 780 l 1,1,-1
 40 0 l 1,2,-1
 119 0 l 1,3,-1
 253 780 l 1,0,-1
532 230 m 0,4,5
 541 295 541 295 521.5 349.5 c 128,-1,6
 502 404 502 404 457.5 437 c 128,-1,7
 413 470 413 470 348 470 c 0,8,9
 302 470 302 470 263.5 451 c 128,-1,10
 225 432 225 432 196 399 c 128,-1,11
 167 366 167 366 148 322.5 c 128,-1,12
 129 279 129 279 122 230 c 0,13,14
 116 184 116 184 121.5 141 c 128,-1,15
 127 98 127 98 145 64 c 128,-1,16
 163 30 163 30 194.5 10 c 128,-1,17
 226 -10 226 -10 272 -10 c 0,18,19
 337 -10 337 -10 392.5 21.5 c 128,-1,20
 448 53 448 53 485.5 108 c 128,-1,21
 523 163 523 163 532 230 c 0,4,5
453 230 m 0,22,23
 446 183 446 183 419 145.5 c 128,-1,24
 392 108 392 108 353.5 86.5 c 128,-1,25
 315 65 315 65 270 66 c 0,26,27
 240 67 240 67 217.5 80 c 128,-1,28
 195 93 195 93 180 116 c 128,-1,29
 165 139 165 139 159.5 168 c 128,-1,30
 154 197 154 197 158 230 c 0,31,32
 164 265 164 265 180.5 295 c 128,-1,33
 197 325 197 325 221 347.5 c 128,-1,34
 245 370 245 370 273.5 382.5 c 128,-1,35
 302 395 302 395 332 395 c 0,36,37
 376 395 376 395 405.5 372.5 c 128,-1,38
 435 350 435 350 447.5 312.5 c 128,-1,39
 460 275 460 275 453 230 c 0,22,23
EndSplineSet
EndChar

StartChar: c
Encoding: 99 99 183
Width: 464
GlyphClass: 2
Flags: W
LayerCount: 2
Fore
SplineSet
127 230 m 0,0,1
 134 276 134 276 159 313 c 128,-1,2
 184 350 184 350 222.5 372.5 c 128,-1,3
 261 395 261 395 307 395 c 0,4,5
 357 395 357 395 394.5 372 c 128,-1,6
 432 349 432 349 448 311 c 1,7,-1
 462 411 l 1,8,9
 436 440 436 440 396.5 455 c 128,-1,10
 357 470 357 470 313 470 c 0,11,12
 245 470 245 470 188 437.5 c 128,-1,13
 131 405 131 405 93.5 351 c 128,-1,14
 56 297 56 297 47 230 c 0,15,16
 39 166 39 166 61 111.5 c 128,-1,17
 83 57 83 57 130.5 24 c 128,-1,18
 178 -9 178 -9 244 -9 c 0,19,20
 291 -9 291 -9 333.5 6.5 c 128,-1,21
 376 22 376 22 407 49 c 1,22,-1
 421 148 l 1,23,24
 395 115 395 115 349.5 90 c 128,-1,25
 304 65 304 65 251 66 c 0,26,27
 206 67 206 67 176 90 c 128,-1,28
 146 113 146 113 133.5 150.5 c 128,-1,29
 121 188 121 188 127 230 c 0,0,1
EndSplineSet
EndChar

StartChar: ccedilla
Encoding: 231 231 184
Width: 464
GlyphClass: 2
Flags: W
LayerCount: 2
Fore
SplineSet
120 230 m 0,0,1
 128 275 128 275 154 312.5 c 128,-1,2
 180 350 180 350 219 372.5 c 128,-1,3
 258 395 258 395 304 395 c 0,4,5
 354 395 354 395 391 372 c 128,-1,6
 428 349 428 349 443 311 c 1,7,-1
 459 411 l 1,8,9
 433 440 433 440 394 455 c 128,-1,10
 355 470 355 470 311 470 c 0,11,12
 243 470 243 470 185.5 437.5 c 128,-1,13
 128 405 128 405 89.5 351 c 128,-1,14
 51 297 51 297 41 230 c 0,15,16
 31 167 31 167 52.5 112.5 c 128,-1,17
 74 58 74 58 120.5 24.5 c 128,-1,18
 167 -9 167 -9 234 -9 c 0,19,20
 281 -9 281 -9 324 6.5 c 128,-1,21
 367 22 367 22 398 49 c 1,22,-1
 414 148 l 1,23,24
 387 115 387 115 341.5 90 c 128,-1,25
 296 65 296 65 242 66 c 0,26,27
 197 67 197 67 167.5 90 c 128,-1,28
 138 113 138 113 126 150.5 c 128,-1,29
 114 188 114 188 120 230 c 0,0,1
232 58 m 1,30,-1
 121 -108 l 1,31,32
 136 -100 136 -100 153.5 -95 c 128,-1,33
 171 -90 171 -90 182 -91 c 0,34,35
 195 -91 195 -91 205 -95 c 128,-1,36
 215 -99 215 -99 220 -107 c 128,-1,37
 225 -115 225 -115 223 -126 c 0,38,39
 222 -137 222 -137 213.5 -146.5 c 128,-1,40
 205 -156 205 -156 192.5 -161.5 c 128,-1,41
 180 -167 180 -167 166 -167 c 0,42,43
 149 -167 149 -167 138.5 -160 c 128,-1,44
 128 -153 128 -153 116 -143 c 1,45,-1
 77 -181 l 1,46,47
 97 -200 97 -200 115.5 -210 c 128,-1,48
 134 -220 134 -220 161 -220 c 256,49,50
 188 -220 188 -220 213.5 -208.5 c 128,-1,51
 239 -197 239 -197 257 -176.5 c 128,-1,52
 275 -156 275 -156 278 -128 c 0,53,54
 282 -95 282 -95 263.5 -75 c 128,-1,55
 245 -55 245 -55 218 -53 c 0,56,57
 217 -53 217 -53 215 -53 c 128,-1,58
 213 -53 213 -53 211 -53 c 1,59,-1
 292 58 l 1,60,-1
 232 58 l 1,30,-1
EndSplineSet
EndChar

StartChar: cacute
Encoding: 263 263 185
Width: 464
GlyphClass: 2
Flags: W
LayerCount: 2
Fore
SplineSet
120 230 m 0,0,1
 128 275 128 275 154 312.5 c 128,-1,2
 180 350 180 350 219 372.5 c 128,-1,3
 258 395 258 395 304 395 c 0,4,5
 354 395 354 395 391 372 c 128,-1,6
 428 349 428 349 443 311 c 1,7,-1
 459 411 l 1,8,9
 433 440 433 440 394 455 c 128,-1,10
 355 470 355 470 311 470 c 0,11,12
 243 470 243 470 185.5 437.5 c 128,-1,13
 128 405 128 405 89.5 351 c 128,-1,14
 51 297 51 297 41 230 c 0,15,16
 31 167 31 167 52.5 112.5 c 128,-1,17
 74 58 74 58 120.5 24.5 c 128,-1,18
 167 -9 167 -9 234 -9 c 0,19,20
 281 -9 281 -9 324 6.5 c 128,-1,21
 367 22 367 22 398 49 c 1,22,-1
 414 148 l 1,23,24
 387 115 387 115 341.5 90 c 128,-1,25
 296 65 296 65 242 66 c 0,26,27
 197 67 197 67 167.5 90 c 128,-1,28
 138 113 138 113 126 150.5 c 128,-1,29
 114 188 114 188 120 230 c 0,0,1
476 678 m 1,30,-1
 407 720 l 1,31,-1
 236 562 l 1,32,-1
 277 531 l 1,33,-1
 476 678 l 1,30,-1
EndSplineSet
EndChar

StartChar: ccircumflex
Encoding: 265 265 186
Width: 464
GlyphClass: 2
Flags: W
LayerCount: 2
Fore
SplineSet
120 230 m 0,0,1
 128 275 128 275 154 312.5 c 128,-1,2
 180 350 180 350 219 372.5 c 128,-1,3
 258 395 258 395 304 395 c 0,4,5
 354 395 354 395 391 372 c 128,-1,6
 428 349 428 349 443 311 c 1,7,-1
 459 411 l 1,8,9
 433 440 433 440 394 455 c 128,-1,10
 355 470 355 470 311 470 c 0,11,12
 243 470 243 470 185.5 437.5 c 128,-1,13
 128 405 128 405 89.5 351 c 128,-1,14
 51 297 51 297 41 230 c 0,15,16
 31 167 31 167 52.5 112.5 c 128,-1,17
 74 58 74 58 120.5 24.5 c 128,-1,18
 167 -9 167 -9 234 -9 c 0,19,20
 281 -9 281 -9 324 6.5 c 128,-1,21
 367 22 367 22 398 49 c 1,22,-1
 414 148 l 1,23,24
 387 115 387 115 341.5 90 c 128,-1,25
 296 65 296 65 242 66 c 0,26,27
 197 67 197 67 167.5 90 c 128,-1,28
 138 113 138 113 126 150.5 c 128,-1,29
 114 188 114 188 120 230 c 0,0,1
343 625 m 1,30,-1
 433 531 l 1,31,-1
 487 569 l 1,32,-1
 352 710 l 1,33,-1
 174 572 l 1,34,-1
 219 531 l 1,35,-1
 343 625 l 1,30,-1
EndSplineSet
EndChar

StartChar: cdotaccent
Encoding: 267 267 187
Width: 464
GlyphClass: 2
Flags: W
LayerCount: 2
Fore
SplineSet
120 230 m 0,0,1
 128 275 128 275 154 312.5 c 128,-1,2
 180 350 180 350 219 372.5 c 128,-1,3
 258 395 258 395 304 395 c 0,4,5
 354 395 354 395 391 372 c 128,-1,6
 428 349 428 349 443 311 c 1,7,-1
 459 411 l 1,8,9
 433 440 433 440 394 455 c 128,-1,10
 355 470 355 470 311 470 c 0,11,12
 243 470 243 470 185.5 437.5 c 128,-1,13
 128 405 128 405 89.5 351 c 128,-1,14
 51 297 51 297 41 230 c 0,15,16
 31 167 31 167 52.5 112.5 c 128,-1,17
 74 58 74 58 120.5 24.5 c 128,-1,18
 167 -9 167 -9 234 -9 c 0,19,20
 281 -9 281 -9 324 6.5 c 128,-1,21
 367 22 367 22 398 49 c 1,22,-1
 414 148 l 1,23,24
 387 115 387 115 341.5 90 c 128,-1,25
 296 65 296 65 242 66 c 0,26,27
 197 67 197 67 167.5 90 c 128,-1,28
 138 113 138 113 126 150.5 c 128,-1,29
 114 188 114 188 120 230 c 0,0,1
279 586 m 0,30,31
 277 565 277 565 290 548.5 c 128,-1,32
 303 532 303 532 325 531 c 0,33,34
 345 530 345 530 365 547 c 128,-1,35
 385 564 385 564 387 584 c 0,36,37
 389 605 389 605 376 622 c 128,-1,38
 363 639 363 639 341 640 c 0,39,40
 321 641 321 641 301 623.5 c 128,-1,41
 281 606 281 606 279 586 c 0,30,31
EndSplineSet
EndChar

StartChar: ccaron
Encoding: 269 269 188
Width: 464
GlyphClass: 2
Flags: W
LayerCount: 2
Fore
SplineSet
120 230 m 0,0,1
 128 275 128 275 154 312.5 c 128,-1,2
 180 350 180 350 219 372.5 c 128,-1,3
 258 395 258 395 304 395 c 0,4,5
 354 395 354 395 391 372 c 128,-1,6
 428 349 428 349 443 311 c 1,7,-1
 459 411 l 1,8,9
 433 440 433 440 394 455 c 128,-1,10
 355 470 355 470 311 470 c 0,11,12
 243 470 243 470 185.5 437.5 c 128,-1,13
 128 405 128 405 89.5 351 c 128,-1,14
 51 297 51 297 41 230 c 0,15,16
 31 167 31 167 52.5 112.5 c 128,-1,17
 74 58 74 58 120.5 24.5 c 128,-1,18
 167 -9 167 -9 234 -9 c 0,19,20
 281 -9 281 -9 324 6.5 c 128,-1,21
 367 22 367 22 398 49 c 1,22,-1
 414 148 l 1,23,24
 387 115 387 115 341.5 90 c 128,-1,25
 296 65 296 65 242 66 c 0,26,27
 197 67 197 67 167.5 90 c 128,-1,28
 138 113 138 113 126 150.5 c 128,-1,29
 114 188 114 188 120 230 c 0,0,1
336 616 m 1,30,-1
 245 710 l 1,31,-1
 191 671 l 1,32,-1
 326 530 l 1,33,-1
 504 669 l 1,34,-1
 459 710 l 1,35,-1
 336 616 l 1,30,-1
EndSplineSet
EndChar

StartChar: d
Encoding: 100 100 189
Width: 553
GlyphClass: 2
Flags: W
LayerCount: 2
Fore
SplineSet
512 780 m 1,0,-1
 381 0 l 1,1,-1
 458 0 l 1,2,-1
 593 780 l 1,3,-1
 512 780 l 1,0,-1
45 230 m 0,4,5
 36 165 36 165 56 110.5 c 128,-1,6
 76 56 76 56 120.5 23.5 c 128,-1,7
 165 -9 165 -9 230 -9 c 0,8,9
 276 -9 276 -9 314.5 9.5 c 128,-1,10
 353 28 353 28 382 61 c 128,-1,11
 411 94 411 94 430 137.5 c 128,-1,12
 449 181 449 181 456 230 c 0,13,14
 462 277 462 277 456.5 319.5 c 128,-1,15
 451 362 451 362 433 396 c 128,-1,16
 415 430 415 430 383.5 450 c 128,-1,17
 352 470 352 470 306 470 c 0,18,19
 241 471 241 471 185.5 439 c 128,-1,20
 130 407 130 407 92.5 352.5 c 128,-1,21
 55 298 55 298 45 230 c 0,4,5
125 230 m 0,22,23
 133 277 133 277 159.5 315 c 128,-1,24
 186 353 186 353 225 374.5 c 128,-1,25
 264 396 264 396 308 395 c 0,26,27
 338 394 338 394 360.5 380.5 c 128,-1,28
 383 367 383 367 398 344 c 128,-1,29
 413 321 413 321 419 292 c 128,-1,30
 425 263 425 263 420 230 c 0,31,32
 414 196 414 196 397.5 166 c 128,-1,33
 381 136 381 136 357 113.5 c 128,-1,34
 333 91 333 91 304.5 78.5 c 128,-1,35
 276 66 276 66 246 66 c 0,36,37
 202 66 202 66 172.5 88.5 c 128,-1,38
 143 111 143 111 131 148.5 c 128,-1,39
 119 186 119 186 125 230 c 0,22,23
EndSplineSet
EndChar

StartChar: dcaron
Encoding: 271 271 190
Width: 553
GlyphClass: 2
Flags: W
LayerCount: 2
Fore
SplineSet
512 780 m 1,0,-1
 381 0 l 1,1,-1
 458 0 l 1,2,-1
 593 780 l 1,3,-1
 512 780 l 1,0,-1
45 230 m 0,4,5
 36 165 36 165 56 110.5 c 128,-1,6
 76 56 76 56 120.5 23.5 c 128,-1,7
 165 -9 165 -9 230 -9 c 0,8,9
 276 -9 276 -9 314.5 9.5 c 128,-1,10
 353 28 353 28 382 61 c 128,-1,11
 411 94 411 94 430 137.5 c 128,-1,12
 449 181 449 181 456 230 c 0,13,14
 462 277 462 277 456.5 319.5 c 128,-1,15
 451 362 451 362 433 396 c 128,-1,16
 415 430 415 430 383.5 450 c 128,-1,17
 352 470 352 470 306 470 c 0,18,19
 241 471 241 471 185.5 439 c 128,-1,20
 130 407 130 407 92.5 352.5 c 128,-1,21
 55 298 55 298 45 230 c 0,4,5
125 230 m 0,22,23
 133 277 133 277 159.5 315 c 128,-1,24
 186 353 186 353 225 374.5 c 128,-1,25
 264 396 264 396 308 395 c 0,26,27
 338 394 338 394 360.5 380.5 c 128,-1,28
 383 367 383 367 398 344 c 128,-1,29
 413 321 413 321 419 292 c 128,-1,30
 425 263 425 263 420 230 c 0,31,32
 414 196 414 196 397.5 166 c 128,-1,33
 381 136 381 136 357 113.5 c 128,-1,34
 333 91 333 91 304.5 78.5 c 128,-1,35
 276 66 276 66 246 66 c 0,36,37
 202 66 202 66 172.5 88.5 c 128,-1,38
 143 111 143 111 131 148.5 c 128,-1,39
 119 186 119 186 125 230 c 0,22,23
704 779 m 1,40,-1
 575 522 l 1,41,-1
 631 501 l 1,42,-1
 780 748 l 1,43,-1
 704 779 l 1,40,-1
EndSplineSet
EndChar

StartChar: e
Encoding: 101 101 191
Width: 500
GlyphClass: 2
Flags: W
LayerCount: 2
Fore
SplineSet
238 -10 m 0,0,1
 312 -10 312 -10 368 23 c 128,-1,2
 424 56 424 56 460 107 c 1,3,-1
 397 148 l 1,4,5
 372 112 372 112 333.5 88.5 c 128,-1,6
 295 65 295 65 248 65 c 0,7,8
 206 65 206 65 179 82.5 c 128,-1,9
 152 100 152 100 139 132 c 128,-1,10
 126 164 126 164 126 205 c 0,11,12
 126 244 126 244 138.5 279.5 c 128,-1,13
 151 315 151 315 174 342 c 128,-1,14
 197 369 197 369 228.5 384.5 c 128,-1,15
 260 400 260 400 298 400 c 0,16,17
 335 400 335 400 359 386 c 128,-1,18
 383 372 383 372 395.5 346.5 c 128,-1,19
 408 321 408 321 408 285 c 0,20,21
 408 271 408 271 404 257.5 c 128,-1,22
 400 244 400 244 395 232 c 1,23,-1
 426 278 l 1,24,-1
 96 278 l 1,25,-1
 96 210 l 1,26,-1
 479 210 l 1,27,28
 483 218 483 218 486.5 236 c 128,-1,29
 490 254 490 254 490 269 c 0,30,31
 490 335 490 335 467 379.5 c 128,-1,32
 444 424 444 424 402.5 447 c 128,-1,33
 361 470 361 470 303 470 c 0,34,35
 248 470 248 470 201.5 448 c 128,-1,36
 155 426 155 426 120.5 388.5 c 128,-1,37
 86 351 86 351 66.5 302.5 c 128,-1,38
 47 254 47 254 47 200 c 0,39,40
 47 134 47 134 71 87 c 128,-1,41
 95 40 95 40 138 15 c 128,-1,42
 181 -10 181 -10 238 -10 c 0,0,1
EndSplineSet
EndChar

StartChar: egrave
Encoding: 232 232 192
Width: 500
GlyphClass: 2
Flags: W
LayerCount: 2
Fore
SplineSet
92 211 m 1,0,-1
 476 211 l 1,1,2
 478 217 478 217 478.5 222.5 c 128,-1,3
 479 228 479 228 480 234 c 0,4,5
 488 298 488 298 471.5 351.5 c 128,-1,6
 455 405 455 405 414 437.5 c 128,-1,7
 373 470 373 470 306 470 c 0,8,9
 246 470 246 470 196 444.5 c 128,-1,10
 146 419 146 419 110.5 376 c 128,-1,11
 75 333 75 333 57 279 c 0,12,13
 53 267 53 267 50 255 c 128,-1,14
 47 243 47 243 45 230 c 0,15,16
 37 169 37 169 54.5 114.5 c 128,-1,17
 72 60 72 60 114 26 c 128,-1,18
 156 -8 156 -8 220 -9 c 0,19,20
 274 -9 274 -9 315 5.5 c 128,-1,21
 356 20 356 20 389 46.5 c 128,-1,22
 422 73 422 73 450 106 c 1,23,-1
 391 148 l 1,24,25
 372 126 372 126 348.5 107 c 128,-1,26
 325 88 325 88 297.5 77 c 128,-1,27
 270 66 270 66 237 66 c 0,28,29
 191 67 191 67 164 89 c 128,-1,30
 137 111 137 111 128 148.5 c 128,-1,31
 119 186 119 186 125 230 c 1,32,-1
 133 260 l 2,33,34
 142 300 142 300 165.5 331.5 c 128,-1,35
 189 363 189 363 223.5 382 c 128,-1,36
 258 401 258 401 299 400 c 0,37,38
 338 400 338 400 360.5 383.5 c 128,-1,39
 383 367 383 367 392.5 339.5 c 128,-1,40
 402 312 402 312 401 278 c 1,41,-1
 103 278 l 1,42,-1
 92 211 l 1,0,-1
209 691 m 1,43,-1
 362 540 l 1,44,-1
 409 569 l 1,45,-1
 288 730 l 1,46,-1
 209 691 l 1,43,-1
EndSplineSet
EndChar

StartChar: eacute
Encoding: 233 233 193
Width: 500
GlyphClass: 2
Flags: W
LayerCount: 2
Fore
SplineSet
92 211 m 1,0,-1
 476 211 l 1,1,2
 478 217 478 217 478.5 222.5 c 128,-1,3
 479 228 479 228 480 234 c 0,4,5
 488 298 488 298 471.5 351.5 c 128,-1,6
 455 405 455 405 414 437.5 c 128,-1,7
 373 470 373 470 306 470 c 0,8,9
 246 470 246 470 196 444.5 c 128,-1,10
 146 419 146 419 110.5 376 c 128,-1,11
 75 333 75 333 57 279 c 0,12,13
 53 267 53 267 50 255 c 128,-1,14
 47 243 47 243 45 230 c 0,15,16
 37 169 37 169 54.5 114.5 c 128,-1,17
 72 60 72 60 114 26 c 128,-1,18
 156 -8 156 -8 220 -9 c 0,19,20
 274 -9 274 -9 315 5.5 c 128,-1,21
 356 20 356 20 389 46.5 c 128,-1,22
 422 73 422 73 450 106 c 1,23,-1
 391 148 l 1,24,25
 372 126 372 126 348.5 107 c 128,-1,26
 325 88 325 88 297.5 77 c 128,-1,27
 270 66 270 66 237 66 c 0,28,29
 191 67 191 67 164 89 c 128,-1,30
 137 111 137 111 128 148.5 c 128,-1,31
 119 186 119 186 125 230 c 1,32,-1
 133 260 l 2,33,34
 142 300 142 300 165.5 331.5 c 128,-1,35
 189 363 189 363 223.5 382 c 128,-1,36
 258 401 258 401 299 400 c 0,37,38
 338 400 338 400 360.5 383.5 c 128,-1,39
 383 367 383 367 392.5 339.5 c 128,-1,40
 402 312 402 312 401 278 c 1,41,-1
 103 278 l 1,42,-1
 92 211 l 1,0,-1
502 688 m 1,43,-1
 433 730 l 1,44,-1
 262 572 l 1,45,-1
 303 541 l 1,46,-1
 502 688 l 1,43,-1
EndSplineSet
EndChar

StartChar: ecircumflex
Encoding: 234 234 194
Width: 500
GlyphClass: 2
Flags: W
LayerCount: 2
Fore
SplineSet
92 211 m 1,0,-1
 476 211 l 1,1,2
 478 217 478 217 478.5 222.5 c 128,-1,3
 479 228 479 228 480 234 c 0,4,5
 488 298 488 298 471.5 351.5 c 128,-1,6
 455 405 455 405 414 437.5 c 128,-1,7
 373 470 373 470 306 470 c 0,8,9
 246 470 246 470 196 444.5 c 128,-1,10
 146 419 146 419 110.5 376 c 128,-1,11
 75 333 75 333 57 279 c 0,12,13
 53 267 53 267 50 255 c 128,-1,14
 47 243 47 243 45 230 c 0,15,16
 37 169 37 169 54.5 114.5 c 128,-1,17
 72 60 72 60 114 26 c 128,-1,18
 156 -8 156 -8 220 -9 c 0,19,20
 274 -9 274 -9 315 5.5 c 128,-1,21
 356 20 356 20 389 46.5 c 128,-1,22
 422 73 422 73 450 106 c 1,23,-1
 391 148 l 1,24,25
 372 126 372 126 348.5 107 c 128,-1,26
 325 88 325 88 297.5 77 c 128,-1,27
 270 66 270 66 237 66 c 0,28,29
 191 67 191 67 164 89 c 128,-1,30
 137 111 137 111 128 148.5 c 128,-1,31
 119 186 119 186 125 230 c 1,32,-1
 133 260 l 2,33,34
 142 300 142 300 165.5 331.5 c 128,-1,35
 189 363 189 363 223.5 382 c 128,-1,36
 258 401 258 401 299 400 c 0,37,38
 338 400 338 400 360.5 383.5 c 128,-1,39
 383 367 383 367 392.5 339.5 c 128,-1,40
 402 312 402 312 401 278 c 1,41,-1
 103 278 l 1,42,-1
 92 211 l 1,0,-1
338 625 m 1,43,-1
 428 531 l 1,44,-1
 482 569 l 1,45,-1
 348 710 l 1,46,-1
 170 572 l 1,47,-1
 214 531 l 1,48,-1
 338 625 l 1,43,-1
EndSplineSet
EndChar

StartChar: edieresis
Encoding: 235 235 195
Width: 500
GlyphClass: 2
Flags: W
LayerCount: 2
Fore
SplineSet
92 211 m 1,0,-1
 476 211 l 1,1,2
 478 217 478 217 478.5 222.5 c 128,-1,3
 479 228 479 228 480 234 c 0,4,5
 488 298 488 298 471.5 351.5 c 128,-1,6
 455 405 455 405 414 437.5 c 128,-1,7
 373 470 373 470 306 470 c 0,8,9
 246 470 246 470 196 444.5 c 128,-1,10
 146 419 146 419 110.5 376 c 128,-1,11
 75 333 75 333 57 279 c 0,12,13
 53 267 53 267 50 255 c 128,-1,14
 47 243 47 243 45 230 c 0,15,16
 37 169 37 169 54.5 114.5 c 128,-1,17
 72 60 72 60 114 26 c 128,-1,18
 156 -8 156 -8 220 -9 c 0,19,20
 274 -9 274 -9 315 5.5 c 128,-1,21
 356 20 356 20 389 46.5 c 128,-1,22
 422 73 422 73 450 106 c 1,23,-1
 391 148 l 1,24,25
 372 126 372 126 348.5 107 c 128,-1,26
 325 88 325 88 297.5 77 c 128,-1,27
 270 66 270 66 237 66 c 0,28,29
 191 67 191 67 164 89 c 128,-1,30
 137 111 137 111 128 148.5 c 128,-1,31
 119 186 119 186 125 230 c 1,32,-1
 133 260 l 2,33,34
 142 300 142 300 165.5 331.5 c 128,-1,35
 189 363 189 363 223.5 382 c 128,-1,36
 258 401 258 401 299 400 c 0,37,38
 338 400 338 400 360.5 383.5 c 128,-1,39
 383 367 383 367 392.5 339.5 c 128,-1,40
 402 312 402 312 401 278 c 1,41,-1
 103 278 l 1,42,-1
 92 211 l 1,0,-1
371 586 m 0,43,44
 369 565 369 565 382.5 548.5 c 128,-1,45
 396 532 396 532 417 531 c 256,46,47
 438 530 438 530 457.5 547 c 128,-1,48
 477 564 477 564 479 584 c 0,49,50
 481 605 481 605 468 622 c 128,-1,51
 455 639 455 639 433 640 c 0,52,53
 413 641 413 641 393 623.5 c 128,-1,54
 373 606 373 606 371 586 c 0,43,44
177 586 m 0,55,56
 175 565 175 565 188 548.5 c 128,-1,57
 201 532 201 532 223 531 c 0,58,59
 243 530 243 530 263 547 c 128,-1,60
 283 564 283 564 285 584 c 0,61,62
 287 605 287 605 274 622 c 128,-1,63
 261 639 261 639 239 640 c 0,64,65
 219 641 219 641 199 623.5 c 128,-1,66
 179 606 179 606 177 586 c 0,55,56
EndSplineSet
EndChar

StartChar: emacron
Encoding: 275 275 196
Width: 500
GlyphClass: 2
Flags: W
LayerCount: 2
Fore
SplineSet
92 211 m 1,0,-1
 476 211 l 1,1,2
 478 217 478 217 478.5 222.5 c 128,-1,3
 479 228 479 228 480 234 c 0,4,5
 488 298 488 298 471.5 351.5 c 128,-1,6
 455 405 455 405 414 437.5 c 128,-1,7
 373 470 373 470 306 470 c 0,8,9
 246 470 246 470 196 444.5 c 128,-1,10
 146 419 146 419 110.5 376 c 128,-1,11
 75 333 75 333 57 279 c 0,12,13
 53 267 53 267 50 255 c 128,-1,14
 47 243 47 243 45 230 c 0,15,16
 37 169 37 169 54.5 114.5 c 128,-1,17
 72 60 72 60 114 26 c 128,-1,18
 156 -8 156 -8 220 -9 c 0,19,20
 274 -9 274 -9 315 5.5 c 128,-1,21
 356 20 356 20 389 46.5 c 128,-1,22
 422 73 422 73 450 106 c 1,23,-1
 391 148 l 1,24,25
 372 126 372 126 348.5 107 c 128,-1,26
 325 88 325 88 297.5 77 c 128,-1,27
 270 66 270 66 237 66 c 0,28,29
 191 67 191 67 164 89 c 128,-1,30
 137 111 137 111 128 148.5 c 128,-1,31
 119 186 119 186 125 230 c 1,32,-1
 133 260 l 2,33,34
 142 300 142 300 165.5 331.5 c 128,-1,35
 189 363 189 363 223.5 382 c 128,-1,36
 258 401 258 401 299 400 c 0,37,38
 338 400 338 400 360.5 383.5 c 128,-1,39
 383 367 383 367 392.5 339.5 c 128,-1,40
 402 312 402 312 401 278 c 1,41,-1
 103 278 l 1,42,-1
 92 211 l 1,0,-1
149 531 m 1,43,-1
 490 530 l 1,44,-1
 503 605 l 1,45,-1
 162 605 l 1,46,-1
 149 531 l 1,43,-1
EndSplineSet
EndChar

StartChar: ebreve
Encoding: 277 277 197
Width: 500
GlyphClass: 2
Flags: W
LayerCount: 2
Fore
SplineSet
92 211 m 1,0,-1
 476 211 l 1,1,2
 478 217 478 217 478.5 222.5 c 128,-1,3
 479 228 479 228 480 234 c 0,4,5
 488 298 488 298 471.5 351.5 c 128,-1,6
 455 405 455 405 414 437.5 c 128,-1,7
 373 470 373 470 306 470 c 0,8,9
 246 470 246 470 196 444.5 c 128,-1,10
 146 419 146 419 110.5 376 c 128,-1,11
 75 333 75 333 57 279 c 0,12,13
 53 267 53 267 50 255 c 128,-1,14
 47 243 47 243 45 230 c 0,15,16
 37 169 37 169 54.5 114.5 c 128,-1,17
 72 60 72 60 114 26 c 128,-1,18
 156 -8 156 -8 220 -9 c 0,19,20
 274 -9 274 -9 315 5.5 c 128,-1,21
 356 20 356 20 389 46.5 c 128,-1,22
 422 73 422 73 450 106 c 1,23,-1
 391 148 l 1,24,25
 372 126 372 126 348.5 107 c 128,-1,26
 325 88 325 88 297.5 77 c 128,-1,27
 270 66 270 66 237 66 c 0,28,29
 191 67 191 67 164 89 c 128,-1,30
 137 111 137 111 128 148.5 c 128,-1,31
 119 186 119 186 125 230 c 1,32,-1
 133 260 l 2,33,34
 142 300 142 300 165.5 331.5 c 128,-1,35
 189 363 189 363 223.5 382 c 128,-1,36
 258 401 258 401 299 400 c 0,37,38
 338 400 338 400 360.5 383.5 c 128,-1,39
 383 367 383 367 392.5 339.5 c 128,-1,40
 402 312 402 312 401 278 c 1,41,-1
 103 278 l 1,42,-1
 92 211 l 1,0,-1
189 670 m 1,43,44
 186 634 186 634 199.5 602 c 128,-1,45
 213 570 213 570 243 550.5 c 128,-1,46
 273 531 273 531 321 531 c 0,47,48
 370 531 370 531 405.5 550.5 c 128,-1,49
 441 570 441 570 464.5 601.5 c 128,-1,50
 488 633 488 633 497 669 c 1,51,-1
 426 670 l 1,52,53
 419 654 419 654 407.5 636.5 c 128,-1,54
 396 619 396 619 377 607.5 c 128,-1,55
 358 596 358 596 327 596 c 0,56,57
 298 596 298 596 282.5 607.5 c 128,-1,58
 267 619 267 619 262 636.5 c 128,-1,59
 257 654 257 654 258 670 c 1,60,-1
 189 670 l 1,43,44
EndSplineSet
EndChar

StartChar: edotaccent
Encoding: 279 279 198
Width: 500
GlyphClass: 2
Flags: W
LayerCount: 2
Fore
SplineSet
92 211 m 1,0,-1
 476 211 l 1,1,2
 478 217 478 217 478.5 222.5 c 128,-1,3
 479 228 479 228 480 234 c 0,4,5
 488 298 488 298 471.5 351.5 c 128,-1,6
 455 405 455 405 414 437.5 c 128,-1,7
 373 470 373 470 306 470 c 0,8,9
 246 470 246 470 196 444.5 c 128,-1,10
 146 419 146 419 110.5 376 c 128,-1,11
 75 333 75 333 57 279 c 0,12,13
 53 267 53 267 50 255 c 128,-1,14
 47 243 47 243 45 230 c 0,15,16
 37 169 37 169 54.5 114.5 c 128,-1,17
 72 60 72 60 114 26 c 128,-1,18
 156 -8 156 -8 220 -9 c 0,19,20
 274 -9 274 -9 315 5.5 c 128,-1,21
 356 20 356 20 389 46.5 c 128,-1,22
 422 73 422 73 450 106 c 1,23,-1
 391 148 l 1,24,25
 372 126 372 126 348.5 107 c 128,-1,26
 325 88 325 88 297.5 77 c 128,-1,27
 270 66 270 66 237 66 c 0,28,29
 191 67 191 67 164 89 c 128,-1,30
 137 111 137 111 128 148.5 c 128,-1,31
 119 186 119 186 125 230 c 1,32,-1
 133 260 l 2,33,34
 142 300 142 300 165.5 331.5 c 128,-1,35
 189 363 189 363 223.5 382 c 128,-1,36
 258 401 258 401 299 400 c 0,37,38
 338 400 338 400 360.5 383.5 c 128,-1,39
 383 367 383 367 392.5 339.5 c 128,-1,40
 402 312 402 312 401 278 c 1,41,-1
 103 278 l 1,42,-1
 92 211 l 1,0,-1
274 586 m 0,43,44
 272 565 272 565 285 548.5 c 128,-1,45
 298 532 298 532 320 531 c 0,46,47
 340 530 340 530 360 547 c 128,-1,48
 380 564 380 564 382 584 c 0,49,50
 384 605 384 605 371 622 c 128,-1,51
 358 639 358 639 336 640 c 0,52,53
 316 641 316 641 296 623.5 c 128,-1,54
 276 606 276 606 274 586 c 0,43,44
EndSplineSet
EndChar

StartChar: eogonek
Encoding: 281 281 199
Width: 500
GlyphClass: 2
Flags: W
LayerCount: 2
Fore
SplineSet
92 211 m 1,0,-1
 476 211 l 1,1,2
 478 217 478 217 478.5 222.5 c 128,-1,3
 479 228 479 228 480 234 c 0,4,5
 488 298 488 298 471.5 351.5 c 128,-1,6
 455 405 455 405 414 437.5 c 128,-1,7
 373 470 373 470 306 470 c 0,8,9
 246 470 246 470 196 444.5 c 128,-1,10
 146 419 146 419 110.5 376 c 128,-1,11
 75 333 75 333 57 279 c 0,12,13
 53 267 53 267 50 255 c 128,-1,14
 47 243 47 243 45 230 c 0,15,16
 37 169 37 169 54.5 114.5 c 128,-1,17
 72 60 72 60 114 26 c 128,-1,18
 156 -8 156 -8 220 -9 c 0,19,20
 260 -9 260 -9 291.5 2.5 c 128,-1,21
 323 14 323 14 349 32 c 128,-1,22
 375 50 375 50 399.5 70 c 128,-1,23
 424 90 424 90 450 106 c 1,24,-1
 391 148 l 1,25,26
 372 126 372 126 348.5 107 c 128,-1,27
 325 88 325 88 297.5 77 c 128,-1,28
 270 66 270 66 237 66 c 0,29,30
 191 67 191 67 164 89 c 128,-1,31
 137 111 137 111 128 148.5 c 128,-1,32
 119 186 119 186 125 230 c 1,33,-1
 133 260 l 2,34,35
 142 300 142 300 165.5 331.5 c 128,-1,36
 189 363 189 363 223.5 382 c 128,-1,37
 258 401 258 401 299 400 c 0,38,39
 338 400 338 400 360.5 383.5 c 128,-1,40
 383 367 383 367 392.5 339.5 c 128,-1,41
 402 312 402 312 401 278 c 1,42,-1
 103 278 l 1,43,-1
 92 211 l 1,0,-1
400 -65 m 1,44,45
 390 -72 390 -72 377.5 -78.5 c 128,-1,46
 365 -85 365 -85 348 -84 c 0,47,48
 327 -82 327 -82 318 -70 c 128,-1,49
 309 -58 309 -58 311 -40 c 0,50,51
 315 -18 315 -18 330.5 -1 c 128,-1,52
 346 16 346 16 376 40 c 128,-1,53
 406 64 406 64 450 106 c 1,54,-1
 392 101 l 1,55,56
 361 80 361 80 325.5 54.5 c 128,-1,57
 290 29 290 29 263 -0.5 c 128,-1,58
 236 -30 236 -30 230 -63 c 0,59,60
 223 -109 223 -109 254 -132 c 128,-1,61
 285 -155 285 -155 330 -154 c 0,62,63
 359 -154 359 -154 384 -142.5 c 128,-1,64
 409 -131 409 -131 425 -116 c 1,65,-1
 400 -65 l 1,44,45
EndSplineSet
EndChar

StartChar: ecaron
Encoding: 283 283 200
Width: 500
GlyphClass: 2
Flags: W
LayerCount: 2
Fore
SplineSet
92 211 m 1,0,-1
 476 211 l 1,1,2
 478 217 478 217 478.5 222.5 c 128,-1,3
 479 228 479 228 480 234 c 0,4,5
 488 298 488 298 471.5 351.5 c 128,-1,6
 455 405 455 405 414 437.5 c 128,-1,7
 373 470 373 470 306 470 c 0,8,9
 246 470 246 470 196 444.5 c 128,-1,10
 146 419 146 419 110.5 376 c 128,-1,11
 75 333 75 333 57 279 c 0,12,13
 53 267 53 267 50 255 c 128,-1,14
 47 243 47 243 45 230 c 0,15,16
 37 169 37 169 54.5 114.5 c 128,-1,17
 72 60 72 60 114 26 c 128,-1,18
 156 -8 156 -8 220 -9 c 0,19,20
 274 -9 274 -9 315 5.5 c 128,-1,21
 356 20 356 20 389 46.5 c 128,-1,22
 422 73 422 73 450 106 c 1,23,-1
 391 148 l 1,24,25
 372 126 372 126 348.5 107 c 128,-1,26
 325 88 325 88 297.5 77 c 128,-1,27
 270 66 270 66 237 66 c 0,28,29
 191 67 191 67 164 89 c 128,-1,30
 137 111 137 111 128 148.5 c 128,-1,31
 119 186 119 186 125 230 c 1,32,-1
 133 260 l 2,33,34
 142 300 142 300 165.5 331.5 c 128,-1,35
 189 363 189 363 223.5 382 c 128,-1,36
 258 401 258 401 299 400 c 0,37,38
 338 400 338 400 360.5 383.5 c 128,-1,39
 383 367 383 367 392.5 339.5 c 128,-1,40
 402 312 402 312 401 278 c 1,41,-1
 103 278 l 1,42,-1
 92 211 l 1,0,-1
331 616 m 1,43,-1
 240 710 l 1,44,-1
 187 671 l 1,45,-1
 321 530 l 1,46,-1
 499 669 l 1,47,-1
 454 710 l 1,48,-1
 331 616 l 1,43,-1
EndSplineSet
EndChar

StartChar: f
Encoding: 102 102 201
Width: 278
GlyphClass: 2
Flags: W
LayerCount: 2
Fore
SplineSet
90 460 m 1,0,-1
 76 385 l 1,1,-1
 301 385 l 1,2,-1
 315 460 l 1,3,-1
 90 460 l 1,0,-1
346 685 m 1,4,-1
 399 749 l 1,5,6
 386 766 386 766 366 777.5 c 128,-1,7
 346 789 346 789 317 790 c 0,8,9
 273 791 273 791 241 770.5 c 128,-1,10
 209 750 209 750 189 713.5 c 128,-1,11
 169 677 169 677 162 631 c 2,12,-1
 54 0 l 1,13,-1
 134 0 l 1,14,-1
 240 620 l 2,15,16
 244 645 244 645 252 665.5 c 128,-1,17
 260 686 260 686 273 698.5 c 128,-1,18
 286 711 286 711 304 711 c 0,19,20
 317 711 317 711 327.5 704.5 c 128,-1,21
 338 698 338 698 346 685 c 1,4,-1
EndSplineSet
EndChar

StartChar: g
Encoding: 103 103 202
Width: 553
GlyphClass: 2
Flags: W
LayerCount: 2
Fore
SplineSet
11 -50 m 1,0,1
 -7.51724137931 -229 -7.51724137931 -229 207 -229 c 0,2,3
 273 -229 273 -229 326.5 -198.5 c 128,-1,4
 380 -168 380 -168 415.5 -114 c 0,5,6
 448.564267004 -62.6763616656 448.564267004 -62.6763616656 461 10 c 2,7,-1
 538 460 l 1,8,-1
 459 460 l 1,9,-1
 381 10 l 2,10,11
 372 -42 372 -42 348.5 -76.5 c 0,12,13
 323 -114 323 -114 286 -134 c 128,-1,14
 249 -154 249 -154 208 -154 c 0,15,16
 83.8823529412 -154 83.8823529412 -154 90 -50 c 1,17,-1
 11 -50 l 1,0,1
45 230 m 0,18,19
 36 165 36 165 56 110.5 c 128,-1,20
 76 56 76 56 120.5 23.5 c 128,-1,21
 165 -9 165 -9 230 -9 c 0,22,23
 276 -9 276 -9 314.5 9.5 c 128,-1,24
 353 28 353 28 382 61 c 128,-1,25
 411 94 411 94 430 137.5 c 128,-1,26
 449 181 449 181 456 230 c 0,27,28
 462 277 462 277 456.5 319.5 c 128,-1,29
 451 362 451 362 433 396 c 128,-1,30
 415 430 415 430 383.5 450 c 128,-1,31
 352 470 352 470 306 470 c 0,32,33
 241 471 241 471 185.5 439 c 128,-1,34
 130 407 130 407 92.5 352.5 c 128,-1,35
 55 298 55 298 45 230 c 0,18,19
125 230 m 0,36,37
 133 277 133 277 159.5 315 c 128,-1,38
 186 353 186 353 225 374.5 c 128,-1,39
 264 396 264 396 308 395 c 0,40,41
 338 394 338 394 360.5 380.5 c 128,-1,42
 383 367 383 367 398 344 c 128,-1,43
 413 321 413 321 419 292 c 128,-1,44
 425 263 425 263 420 230 c 0,45,46
 414 196 414 196 397.5 166 c 128,-1,47
 381 136 381 136 357 113.5 c 128,-1,48
 333 91 333 91 304.5 78.5 c 128,-1,49
 276 66 276 66 246 66 c 0,50,51
 202 66 202 66 172.5 88.5 c 128,-1,52
 143 111 143 111 131 148.5 c 128,-1,53
 119 186 119 186 125 230 c 0,36,37
EndSplineSet
EndChar

StartChar: gcircumflex
Encoding: 285 285 203
Width: 553
GlyphClass: 2
Flags: W
LayerCount: 2
Fore
SplineSet
10 -30 m 1,0,1
 4 -88 4 -88 25.5 -133 c 128,-1,2
 47 -178 47 -178 92 -203.5 c 128,-1,3
 137 -229 137 -229 201 -229 c 256,4,5
 265 -229 265 -229 320 -198.5 c 128,-1,6
 375 -168 375 -168 412.5 -114 c 128,-1,7
 450 -60 450 -60 461 10 c 2,8,-1
 538 460 l 1,9,-1
 459 460 l 1,10,-1
 381 10 l 2,11,12
 373 -39 373 -39 347.5 -76 c 128,-1,13
 322 -113 322 -113 285.5 -133.5 c 128,-1,14
 249 -154 249 -154 208 -154 c 0,15,16
 166 -154 166 -154 138.5 -137 c 128,-1,17
 111 -120 111 -120 99 -92 c 128,-1,18
 87 -64 87 -64 89 -30 c 1,19,-1
 10 -30 l 1,0,1
45 230 m 0,20,21
 36 165 36 165 56 110.5 c 128,-1,22
 76 56 76 56 120.5 23.5 c 128,-1,23
 165 -9 165 -9 230 -9 c 0,24,25
 276 -9 276 -9 314.5 9.5 c 128,-1,26
 353 28 353 28 382 61 c 128,-1,27
 411 94 411 94 430 137.5 c 128,-1,28
 449 181 449 181 456 230 c 0,29,30
 462 277 462 277 456.5 319.5 c 128,-1,31
 451 362 451 362 433 396 c 128,-1,32
 415 430 415 430 383.5 450 c 128,-1,33
 352 470 352 470 306 470 c 0,34,35
 241 471 241 471 185.5 439 c 128,-1,36
 130 407 130 407 92.5 352.5 c 128,-1,37
 55 298 55 298 45 230 c 0,20,21
125 230 m 0,38,39
 133 277 133 277 159.5 315 c 128,-1,40
 186 353 186 353 225 374.5 c 128,-1,41
 264 396 264 396 308 395 c 0,42,43
 338 394 338 394 360.5 380.5 c 128,-1,44
 383 367 383 367 398 344 c 128,-1,45
 413 321 413 321 419 292 c 128,-1,46
 425 263 425 263 420 230 c 0,47,48
 414 196 414 196 397.5 166 c 128,-1,49
 381 136 381 136 357 113.5 c 128,-1,50
 333 91 333 91 304.5 78.5 c 128,-1,51
 276 66 276 66 246 66 c 0,52,53
 202 66 202 66 172.5 88.5 c 128,-1,54
 143 111 143 111 131 148.5 c 128,-1,55
 119 186 119 186 125 230 c 0,38,39
338 625 m 1,56,-1
 428 531 l 1,57,-1
 482 569 l 1,58,-1
 348 710 l 1,59,-1
 170 572 l 1,60,-1
 214 531 l 1,61,-1
 338 625 l 1,56,-1
EndSplineSet
EndChar

StartChar: gbreve
Encoding: 287 287 204
Width: 553
GlyphClass: 2
Flags: W
LayerCount: 2
Fore
SplineSet
10 -30 m 1,0,1
 4 -88 4 -88 25.5 -133 c 128,-1,2
 47 -178 47 -178 92 -203.5 c 128,-1,3
 137 -229 137 -229 201 -229 c 256,4,5
 265 -229 265 -229 320 -198.5 c 128,-1,6
 375 -168 375 -168 412.5 -114 c 128,-1,7
 450 -60 450 -60 461 10 c 2,8,-1
 538 460 l 1,9,-1
 459 460 l 1,10,-1
 381 10 l 2,11,12
 373 -39 373 -39 347.5 -76 c 128,-1,13
 322 -113 322 -113 285.5 -133.5 c 128,-1,14
 249 -154 249 -154 208 -154 c 0,15,16
 166 -154 166 -154 138.5 -137 c 128,-1,17
 111 -120 111 -120 99 -92 c 128,-1,18
 87 -64 87 -64 89 -30 c 1,19,-1
 10 -30 l 1,0,1
45 230 m 0,20,21
 36 165 36 165 56 110.5 c 128,-1,22
 76 56 76 56 120.5 23.5 c 128,-1,23
 165 -9 165 -9 230 -9 c 0,24,25
 276 -9 276 -9 314.5 9.5 c 128,-1,26
 353 28 353 28 382 61 c 128,-1,27
 411 94 411 94 430 137.5 c 128,-1,28
 449 181 449 181 456 230 c 0,29,30
 462 277 462 277 456.5 319.5 c 128,-1,31
 451 362 451 362 433 396 c 128,-1,32
 415 430 415 430 383.5 450 c 128,-1,33
 352 470 352 470 306 470 c 0,34,35
 241 471 241 471 185.5 439 c 128,-1,36
 130 407 130 407 92.5 352.5 c 128,-1,37
 55 298 55 298 45 230 c 0,20,21
125 230 m 0,38,39
 133 277 133 277 159.5 315 c 128,-1,40
 186 353 186 353 225 374.5 c 128,-1,41
 264 396 264 396 308 395 c 0,42,43
 338 394 338 394 360.5 380.5 c 128,-1,44
 383 367 383 367 398 344 c 128,-1,45
 413 321 413 321 419 292 c 128,-1,46
 425 263 425 263 420 230 c 0,47,48
 414 196 414 196 397.5 166 c 128,-1,49
 381 136 381 136 357 113.5 c 128,-1,50
 333 91 333 91 304.5 78.5 c 128,-1,51
 276 66 276 66 246 66 c 0,52,53
 202 66 202 66 172.5 88.5 c 128,-1,54
 143 111 143 111 131 148.5 c 128,-1,55
 119 186 119 186 125 230 c 0,38,39
189 670 m 1,56,57
 186 634 186 634 199.5 602 c 128,-1,58
 213 570 213 570 243 550.5 c 128,-1,59
 273 531 273 531 321 531 c 0,60,61
 370 531 370 531 405.5 550.5 c 128,-1,62
 441 570 441 570 464.5 601.5 c 128,-1,63
 488 633 488 633 497 669 c 1,64,-1
 426 670 l 1,65,66
 419 654 419 654 407.5 636.5 c 128,-1,67
 396 619 396 619 377 607.5 c 128,-1,68
 358 596 358 596 327 596 c 0,69,70
 298 596 298 596 282.5 607.5 c 128,-1,71
 267 619 267 619 262 636.5 c 128,-1,72
 257 654 257 654 258 670 c 1,73,-1
 189 670 l 1,56,57
EndSplineSet
EndChar

StartChar: gdotaccent
Encoding: 289 289 205
Width: 553
GlyphClass: 2
Flags: W
LayerCount: 2
Fore
SplineSet
10 -30 m 1,0,1
 4 -88 4 -88 25.5 -133 c 128,-1,2
 47 -178 47 -178 92 -203.5 c 128,-1,3
 137 -229 137 -229 201 -229 c 256,4,5
 265 -229 265 -229 320 -198.5 c 128,-1,6
 375 -168 375 -168 412.5 -114 c 128,-1,7
 450 -60 450 -60 461 10 c 2,8,-1
 538 460 l 1,9,-1
 459 460 l 1,10,-1
 381 10 l 2,11,12
 373 -39 373 -39 347.5 -76 c 128,-1,13
 322 -113 322 -113 285.5 -133.5 c 128,-1,14
 249 -154 249 -154 208 -154 c 0,15,16
 166 -154 166 -154 138.5 -137 c 128,-1,17
 111 -120 111 -120 99 -92 c 128,-1,18
 87 -64 87 -64 89 -30 c 1,19,-1
 10 -30 l 1,0,1
45 230 m 0,20,21
 36 165 36 165 56 110.5 c 128,-1,22
 76 56 76 56 120.5 23.5 c 128,-1,23
 165 -9 165 -9 230 -9 c 0,24,25
 276 -9 276 -9 314.5 9.5 c 128,-1,26
 353 28 353 28 382 61 c 128,-1,27
 411 94 411 94 430 137.5 c 128,-1,28
 449 181 449 181 456 230 c 0,29,30
 462 277 462 277 456.5 319.5 c 128,-1,31
 451 362 451 362 433 396 c 128,-1,32
 415 430 415 430 383.5 450 c 128,-1,33
 352 470 352 470 306 470 c 0,34,35
 241 471 241 471 185.5 439 c 128,-1,36
 130 407 130 407 92.5 352.5 c 128,-1,37
 55 298 55 298 45 230 c 0,20,21
125 230 m 0,38,39
 133 277 133 277 159.5 315 c 128,-1,40
 186 353 186 353 225 374.5 c 128,-1,41
 264 396 264 396 308 395 c 0,42,43
 338 394 338 394 360.5 380.5 c 128,-1,44
 383 367 383 367 398 344 c 128,-1,45
 413 321 413 321 419 292 c 128,-1,46
 425 263 425 263 420 230 c 0,47,48
 414 196 414 196 397.5 166 c 128,-1,49
 381 136 381 136 357 113.5 c 128,-1,50
 333 91 333 91 304.5 78.5 c 128,-1,51
 276 66 276 66 246 66 c 0,52,53
 202 66 202 66 172.5 88.5 c 128,-1,54
 143 111 143 111 131 148.5 c 128,-1,55
 119 186 119 186 125 230 c 0,38,39
301 626 m 0,56,57
 299 605 299 605 312 588.5 c 128,-1,58
 325 572 325 572 346 571 c 256,59,60
 367 570 367 570 386.5 587 c 128,-1,61
 406 604 406 604 408 624 c 0,62,63
 410 645 410 645 397 662 c 128,-1,64
 384 679 384 679 363 680 c 256,65,66
 342 681 342 681 322.5 663.5 c 128,-1,67
 303 646 303 646 301 626 c 0,56,57
EndSplineSet
EndChar

StartChar: uni0123
Encoding: 291 291 206
Width: 553
GlyphClass: 2
Flags: W
LayerCount: 2
Fore
SplineSet
9 -30 m 1,0,1
 4 -88 4 -88 26 -133 c 128,-1,2
 48 -178 48 -178 93 -203.5 c 128,-1,3
 138 -229 138 -229 202 -229 c 256,4,5
 266 -229 266 -229 321 -198.5 c 128,-1,6
 376 -168 376 -168 413.5 -114 c 128,-1,7
 451 -60 451 -60 462 10 c 2,8,-1
 539 460 l 1,9,-1
 458 460 l 1,10,-1
 381 10 l 2,11,12
 373 -39 373 -39 347 -76 c 128,-1,13
 321 -113 321 -113 284 -133.5 c 128,-1,14
 247 -154 247 -154 206 -154 c 0,15,16
 165 -153 165 -153 137.5 -136 c 128,-1,17
 110 -119 110 -119 98 -91 c 128,-1,18
 86 -63 86 -63 88 -30 c 1,19,-1
 9 -30 l 1,0,1
45 230 m 0,20,21
 36 165 36 165 56.5 110.5 c 128,-1,22
 77 56 77 56 122 23.5 c 128,-1,23
 167 -9 167 -9 231 -9 c 0,24,25
 277 -9 277 -9 315.5 9.5 c 128,-1,26
 354 28 354 28 383 61 c 128,-1,27
 412 94 412 94 431 137.5 c 128,-1,28
 450 181 450 181 456 230 c 0,29,30
 462 277 462 277 456.5 320 c 128,-1,31
 451 363 451 363 432.5 396.5 c 128,-1,32
 414 430 414 430 382.5 450 c 128,-1,33
 351 470 351 470 304 470 c 0,34,35
 239 471 239 471 183.5 439 c 128,-1,36
 128 407 128 407 91.5 352.5 c 128,-1,37
 55 298 55 298 45 230 c 0,20,21
126 230 m 0,38,39
 134 277 134 277 160.5 315 c 128,-1,40
 187 353 187 353 226 374.5 c 128,-1,41
 265 396 265 396 310 395 c 0,42,43
 339 394 339 394 361.5 380.5 c 128,-1,44
 384 367 384 367 398.5 344 c 128,-1,45
 413 321 413 321 418.5 291.5 c 128,-1,46
 424 262 424 262 419 230 c 0,47,48
 413 196 413 196 396.5 166 c 128,-1,49
 380 136 380 136 356 113.5 c 128,-1,50
 332 91 332 91 303.5 78.5 c 128,-1,51
 275 66 275 66 245 66 c 0,52,53
 201 66 201 66 172 88.5 c 128,-1,54
 143 111 143 111 131 148.5 c 128,-1,55
 119 186 119 186 126 230 c 0,38,39
344 546 m 1,56,-1
 505 786 l 1,57,-1
 454 817 l 1,58,-1
 273 591 l 1,59,-1
 344 546 l 1,56,-1
EndSplineSet
EndChar

StartChar: h
Encoding: 104 104 207
Width: 509
GlyphClass: 2
Flags: W
LayerCount: 2
Fore
SplineSet
258 780 m 1,0,-1
 179 780 l 1,1,-1
 45 0 l 1,2,-1
 124 0 l 1,3,-1
 258 780 l 1,0,-1
380 280 m 2,4,-1
 332 0 l 1,5,-1
 410 0 l 1,6,-1
 460 290 l 2,7,8
 466 341 466 341 455 381.5 c 128,-1,9
 444 422 444 422 414 446 c 128,-1,10
 384 470 384 470 334 470 c 256,11,12
 284 470 284 470 244.5 443.5 c 128,-1,13
 205 417 205 417 180 374 c 128,-1,14
 155 331 155 331 145 281 c 1,15,-1
 172 281 l 1,16,17
 180 312 180 312 198.5 338 c 128,-1,18
 217 364 217 364 244.5 380 c 128,-1,19
 272 396 272 396 307 395 c 0,20,21
 340 394 340 394 357 378.5 c 128,-1,22
 374 363 374 363 379 337.5 c 128,-1,23
 384 312 384 312 380 280 c 2,4,-1
EndSplineSet
EndChar

StartChar: hcircumflex
Encoding: 293 293 208
Width: 509
GlyphClass: 2
Flags: W
LayerCount: 2
Fore
SplineSet
258 780 m 1,0,-1
 179 780 l 1,1,-1
 45 0 l 1,2,-1
 124 0 l 1,3,-1
 258 780 l 1,0,-1
380 280 m 2,4,-1
 332 0 l 1,5,-1
 410 0 l 1,6,-1
 460 290 l 2,7,8
 466 341 466 341 455 381.5 c 128,-1,9
 444 422 444 422 414 446 c 128,-1,10
 384 470 384 470 334 470 c 0,11,12
 283 470 283 470 242 443.5 c 128,-1,13
 201 417 201 417 173.5 374 c 128,-1,14
 146 331 146 331 136 281 c 1,15,-1
 172 281 l 1,16,17
 180 312 180 312 198.5 338 c 128,-1,18
 217 364 217 364 244.5 380 c 128,-1,19
 272 396 272 396 307 395 c 0,20,21
 340 394 340 394 357 378.5 c 128,-1,22
 374 363 374 363 379 337.5 c 128,-1,23
 384 312 384 312 380 280 c 2,4,-1
254 935 m 1,24,-1
 344 841 l 1,25,-1
 398 879 l 1,26,-1
 264 1020 l 1,27,-1
 86 882 l 1,28,-1
 130 841 l 1,29,-1
 254 935 l 1,24,-1
EndSplineSet
EndChar

StartChar: i
Encoding: 105 105 209
Width: 252
GlyphClass: 2
Flags: W
LayerCount: 2
Fore
SplineSet
156 650 m 0,0,1
 156 628 156 628 172 612 c 128,-1,2
 188 596 188 596 210 596 c 0,3,4
 233 596 233 596 249 612 c 128,-1,5
 265 628 265 628 265 650 c 0,6,7
 265 673 265 673 249 689 c 128,-1,8
 233 705 233 705 210 705 c 0,9,10
 188 705 188 705 172 689 c 128,-1,11
 156 673 156 673 156 650 c 0,0,1
137 460 m 1,12,-1
 61 0 l 1,13,-1
 140 0 l 1,14,-1
 218 460 l 1,15,-1
 137 460 l 1,12,-1
EndSplineSet
EndChar

StartChar: igrave
Encoding: 236 236 210
Width: 252
GlyphClass: 2
Flags: W
LayerCount: 2
Fore
SplineSet
137 460 m 1,0,-1
 61 0 l 1,1,-1
 138 0 l 1,2,-1
 218 460 l 1,3,-1
 137 460 l 1,0,-1
63 701 m 1,4,-1
 215 550 l 1,5,-1
 262 579 l 1,6,-1
 142 740 l 1,7,-1
 63 701 l 1,4,-1
EndSplineSet
EndChar

StartChar: iacute
Encoding: 237 237 211
Width: 252
GlyphClass: 2
Flags: W
LayerCount: 2
Fore
SplineSet
137 460 m 1,0,-1
 61 0 l 1,1,-1
 138 0 l 1,2,-1
 218 460 l 1,3,-1
 137 460 l 1,0,-1
375 698 m 1,4,-1
 306 740 l 1,5,-1
 134 582 l 1,6,-1
 176 551 l 1,7,-1
 375 698 l 1,4,-1
EndSplineSet
EndChar

StartChar: icircumflex
Encoding: 238 238 212
Width: 252
GlyphClass: 2
Flags: W
LayerCount: 2
Fore
SplineSet
137 460 m 1,0,-1
 61 0 l 1,1,-1
 138 0 l 1,2,-1
 218 460 l 1,3,-1
 137 460 l 1,0,-1
210 635 m 1,4,-1
 301 541 l 1,5,-1
 354 579 l 1,6,-1
 220 720 l 1,7,-1
 42 582 l 1,8,-1
 86 541 l 1,9,-1
 210 635 l 1,4,-1
EndSplineSet
EndChar

StartChar: idieresis
Encoding: 239 239 213
Width: 252
GlyphClass: 2
Flags: W
LayerCount: 2
Fore
SplineSet
137 460 m 1,0,-1
 61 0 l 1,1,-1
 138 0 l 1,2,-1
 218 460 l 1,3,-1
 137 460 l 1,0,-1
247 616 m 0,4,5
 245 595 245 595 258.5 578.5 c 128,-1,6
 272 562 272 562 293 561 c 256,7,8
 314 560 314 560 333.5 577 c 128,-1,9
 353 594 353 594 355 614 c 0,10,11
 357 635 357 635 344 652 c 128,-1,12
 331 669 331 669 309 670 c 0,13,14
 289 671 289 671 269 653.5 c 128,-1,15
 249 636 249 636 247 616 c 0,4,5
53 616 m 0,16,17
 51 595 51 595 64.5 578.5 c 128,-1,18
 78 562 78 562 99 561 c 256,19,20
 120 560 120 560 139.5 577 c 128,-1,21
 159 594 159 594 161 614 c 0,22,23
 163 635 163 635 150 652 c 128,-1,24
 137 669 137 669 115 670 c 0,25,26
 95 671 95 671 75 653.5 c 128,-1,27
 55 636 55 636 53 616 c 0,16,17
EndSplineSet
EndChar

StartChar: itilde
Encoding: 297 297 214
Width: 252
GlyphClass: 2
Flags: W
LayerCount: 2
Fore
SplineSet
137 460 m 1,0,-1
 61 0 l 1,1,-1
 138 0 l 1,2,-1
 218 460 l 1,3,-1
 137 460 l 1,0,-1
35 569 m 1,4,-1
 83 531 l 1,5,6
 89 545 89 545 102 562.5 c 128,-1,7
 115 580 115 580 141 581 c 0,8,9
 162 582 162 582 178 570.5 c 128,-1,10
 194 559 194 559 210.5 547.5 c 128,-1,11
 227 536 227 536 250 535 c 0,12,13
 275 534 275 534 296.5 545 c 128,-1,14
 318 556 318 556 335.5 572.5 c 128,-1,15
 353 589 353 589 364 606 c 1,16,-1
 324 650 l 1,17,18
 310 631 310 631 294 617.5 c 128,-1,19
 278 604 278 604 261 603 c 0,20,21
 238 602 238 602 222.5 613.5 c 128,-1,22
 207 625 207 625 190.5 637 c 128,-1,23
 174 649 174 649 148 649 c 0,24,25
 124 650 124 650 102 638.5 c 128,-1,26
 80 627 80 627 62.5 608.5 c 128,-1,27
 45 590 45 590 35 569 c 1,4,-1
EndSplineSet
EndChar

StartChar: imacron
Encoding: 299 299 215
Width: 252
GlyphClass: 2
Flags: W
LayerCount: 2
Fore
SplineSet
137 460 m 1,0,-1
 61 0 l 1,1,-1
 138 0 l 1,2,-1
 218 460 l 1,3,-1
 137 460 l 1,0,-1
20 531 m 1,4,-1
 361 530 l 1,5,-1
 374 605 l 1,6,-1
 33 605 l 1,7,-1
 20 531 l 1,4,-1
EndSplineSet
EndChar

StartChar: ibreve
Encoding: 301 301 216
Width: 252
GlyphClass: 2
Flags: W
LayerCount: 2
Fore
SplineSet
137 460 m 1,0,-1
 61 0 l 1,1,-1
 138 0 l 1,2,-1
 218 460 l 1,3,-1
 137 460 l 1,0,-1
59 670 m 1,4,5
 57 634 57 634 70 602 c 128,-1,6
 83 570 83 570 113.5 550.5 c 128,-1,7
 144 531 144 531 192 531 c 0,8,9
 241 531 241 531 276.5 550.5 c 128,-1,10
 312 570 312 570 335 601.5 c 128,-1,11
 358 633 358 633 367 669 c 1,12,-1
 297 670 l 1,13,14
 290 654 290 654 278.5 636.5 c 128,-1,15
 267 619 267 619 247.5 607.5 c 128,-1,16
 228 596 228 596 198 596 c 0,17,18
 169 596 169 596 153.5 607.5 c 128,-1,19
 138 619 138 619 133 636.5 c 128,-1,20
 128 654 128 654 128 670 c 1,21,-1
 59 670 l 1,4,5
EndSplineSet
EndChar

StartChar: iogonek
Encoding: 303 303 217
Width: 252
GlyphClass: 2
Flags: W
LayerCount: 2
Fore
SplineSet
156 651 m 0,0,1
 154 630 154 630 167.5 613.5 c 128,-1,2
 181 597 181 597 202 596 c 256,3,4
 223 595 223 595 242.5 612 c 128,-1,5
 262 629 262 629 264 649 c 0,6,7
 266 670 266 670 253 687 c 128,-1,8
 240 704 240 704 218 705 c 0,9,10
 198 706 198 706 178 688.5 c 128,-1,11
 158 671 158 671 156 651 c 0,0,1
137 460 m 1,12,-1
 61 0 l 1,13,-1
 138 0 l 1,14,-1
 218 460 l 1,15,-1
 137 460 l 1,12,-1
120 -130 m 1,16,17
 109 -137 109 -137 96.5 -143.5 c 128,-1,18
 84 -150 84 -150 67 -149 c 0,19,20
 47 -147 47 -147 38 -134.5 c 128,-1,21
 29 -122 29 -122 31 -100 c 0,22,23
 35 -78 35 -78 51.5 -59.5 c 128,-1,24
 68 -41 68 -41 92 -26 c 128,-1,25
 116 -11 116 -11 139 0 c 1,26,-1
 101 25 l 1,27,28
 68 9 68 9 35 -12 c 128,-1,29
 2 -33 2 -33 -21.5 -59.5 c 128,-1,30
 -45 -86 -45 -86 -51 -119 c 0,31,32
 -58 -165 -58 -165 -29 -192.5 c 128,-1,33
 0 -220 0 -220 54 -219 c 0,34,35
 83 -219 83 -219 106 -207.5 c 128,-1,36
 129 -196 129 -196 145 -181 c 1,37,-1
 120 -130 l 1,16,17
EndSplineSet
EndChar

StartChar: j
Encoding: 106 106 218
Width: 243
GlyphClass: 2
Flags: W
LayerCount: 2
Fore
SplineSet
144 650 m 0,0,1
 144 628 144 628 160 612 c 128,-1,2
 176 596 176 596 198 596 c 0,3,4
 221 596 221 596 236.5 612 c 128,-1,5
 252 628 252 628 252 650 c 0,6,7
 252 673 252 673 236.5 688.5 c 128,-1,8
 221 704 221 704 198 704 c 0,9,10
 176 704 176 704 160 688.5 c 128,-1,11
 144 673 144 673 144 650 c 0,0,1
-65 -114 m 1,12,-1
 -117 -178 l 1,13,14
 -101 -197 -101 -197 -79.5 -208 c 128,-1,15
 -58 -219 -58 -219 -30 -219 c 0,16,17
 14 -220 14 -220 45 -198.5 c 128,-1,18
 76 -177 76 -177 94.5 -140.5 c 128,-1,19
 113 -104 113 -104 120 -60 c 2,20,-1
 208 460 l 1,21,-1
 129 460 l 1,22,-1
 41 -50 l 2,23,24
 39 -73 39 -73 31 -94 c 128,-1,25
 23 -115 23 -115 10 -128 c 128,-1,26
 -3 -141 -3 -141 -22 -140 c 0,27,28
 -35 -140 -35 -140 -46.5 -132.5 c 128,-1,29
 -58 -125 -58 -125 -65 -114 c 1,12,-1
EndSplineSet
EndChar

StartChar: jcircumflex
Encoding: 309 309 219
Width: 243
GlyphClass: 2
Flags: W
LayerCount: 2
Fore
SplineSet
-65 -114 m 1,0,-1
 -117 -178 l 1,1,2
 -103 -194 -103 -194 -83.5 -206.5 c 128,-1,3
 -64 -219 -64 -219 -36 -219 c 0,4,5
 8 -220 8 -220 40.5 -199.5 c 128,-1,6
 73 -179 73 -179 93 -142.5 c 128,-1,7
 113 -106 113 -106 120 -60 c 2,8,-1
 208 460 l 1,9,-1
 129 460 l 1,10,-1
 41 -50 l 2,11,12
 38 -74 38 -74 30 -94.5 c 128,-1,13
 22 -115 22 -115 9 -127.5 c 128,-1,14
 -4 -140 -4 -140 -22 -140 c 0,15,16
 -35 -140 -35 -140 -45.5 -133.5 c 128,-1,17
 -56 -127 -56 -127 -65 -114 c 1,0,-1
199 625 m 1,18,-1
 289 531 l 1,19,-1
 343 569 l 1,20,-1
 209 710 l 1,21,-1
 31 572 l 1,22,-1
 75 531 l 1,23,-1
 199 625 l 1,18,-1
EndSplineSet
EndChar

StartChar: k
Encoding: 107 107 220
Width: 427
GlyphClass: 2
Flags: W
LayerCount: 2
Fore
SplineSet
173 780 m 1,0,-1
 41 0 l 1,1,-1
 119 0 l 1,2,-1
 254 780 l 1,3,-1
 173 780 l 1,0,-1
360 460 m 1,4,-1
 136 273 l 1,5,-1
 304 0 l 1,6,-1
 399 0 l 1,7,-1
 230 264 l 1,8,-1
 462 460 l 1,9,-1
 360 460 l 1,4,-1
EndSplineSet
EndChar

StartChar: uni0137
Encoding: 311 311 221
Width: 427
GlyphClass: 2
Flags: W
LayerCount: 2
Fore
SplineSet
173 780 m 1,0,-1
 41 0 l 1,1,-1
 119 0 l 1,2,-1
 254 780 l 1,3,-1
 173 780 l 1,0,-1
360 460 m 1,4,-1
 136 273 l 1,5,-1
 304 0 l 1,6,-1
 399 0 l 1,7,-1
 232 268 l 1,8,-1
 462 460 l 1,9,-1
 360 460 l 1,4,-1
212 -61 m 1,10,-1
 84 -318 l 1,11,-1
 139 -339 l 1,12,-1
 289 -92 l 1,13,-1
 212 -61 l 1,10,-1
EndSplineSet
EndChar

StartChar: l
Encoding: 108 108 222
Width: 223
GlyphClass: 2
Flags: W
LayerCount: 2
Fore
SplineSet
178 780 m 1,0,-1
 46 0 l 1,1,-1
 123 0 l 1,2,-1
 258 780 l 1,3,-1
 178 780 l 1,0,-1
EndSplineSet
EndChar

StartChar: lacute
Encoding: 314 314 223
Width: 223
GlyphClass: 2
Flags: W
LayerCount: 2
Fore
SplineSet
178 780 m 1,0,-1
 46 0 l 1,1,-1
 123 0 l 1,2,-1
 258 780 l 1,3,-1
 178 780 l 1,0,-1
381 988 m 1,4,-1
 312 1030 l 1,5,-1
 140 872 l 1,6,-1
 182 841 l 1,7,-1
 381 988 l 1,4,-1
EndSplineSet
EndChar

StartChar: uni013C
Encoding: 316 316 224
Width: 223
GlyphClass: 2
Flags: W
LayerCount: 2
Fore
SplineSet
178 780 m 1,0,-1
 46 0 l 1,1,-1
 123 0 l 1,2,-1
 258 780 l 1,3,-1
 178 780 l 1,0,-1
76 -61 m 1,4,-1
 -52 -318 l 1,5,-1
 3 -339 l 1,6,-1
 153 -92 l 1,7,-1
 76 -61 l 1,4,-1
EndSplineSet
EndChar

StartChar: lcaron
Encoding: 318 318 225
Width: 223
GlyphClass: 2
Flags: W
LayerCount: 2
Fore
SplineSet
178 780 m 1,0,-1
 46 0 l 1,1,-1
 123 0 l 1,2,-1
 258 780 l 1,3,-1
 178 780 l 1,0,-1
389 779 m 1,4,-1
 260 522 l 1,5,-1
 315 501 l 1,6,-1
 465 748 l 1,7,-1
 389 779 l 1,4,-1
EndSplineSet
EndChar

StartChar: m
Encoding: 109 109 226
Width: 757
GlyphClass: 2
Flags: W
LayerCount: 2
Fore
SplineSet
707 290 m 2,0,1
 713 338 713 338 704.5 379 c 128,-1,2
 696 420 696 420 668.5 445 c 128,-1,3
 641 470 641 470 591 470 c 0,4,5
 542 470 542 470 504 446 c 128,-1,6
 466 422 466 422 439 381 c 1,7,8
 433 408 433 408 418.5 428 c 128,-1,9
 404 448 404 448 380.5 459 c 128,-1,10
 357 470 357 470 324 470 c 0,11,12
 296 470 296 470 272 461 c 128,-1,13
 248 452 248 452 228.5 435.5 c 128,-1,14
 209 419 209 419 193 396 c 1,15,-1
 203 460 l 1,16,-1
 124 460 l 1,17,-1
 44 0 l 1,18,-1
 124 0 l 1,19,-1
 174 285 l 2,20,21
 179 317 179 317 195.5 341.5 c 128,-1,22
 212 366 212 366 238.5 380 c 128,-1,23
 265 394 265 394 298 394 c 0,24,25
 330 394 330 394 344.5 378.5 c 128,-1,26
 359 363 359 363 362 337 c 128,-1,27
 365 311 365 311 361 280 c 2,28,-1
 313 0 l 1,29,-1
 390 0 l 1,30,-1
 439 282 l 2,31,32
 444 314 444 314 460.5 339 c 128,-1,33
 477 364 477 364 503.5 379 c 128,-1,34
 530 394 530 394 564 394 c 0,35,36
 596 394 596 394 610.5 378.5 c 128,-1,37
 625 363 625 363 628.5 337 c 128,-1,38
 632 311 632 311 628 280 c 2,39,-1
 578 0 l 1,40,-1
 658 0 l 1,41,-1
 707 290 l 2,0,1
EndSplineSet
EndChar

StartChar: n
Encoding: 110 110 227
Width: 509
GlyphClass: 2
Flags: W
LayerCount: 2
Fore
SplineSet
380 280 m 2,0,-1
 332 0 l 1,1,-1
 410 0 l 1,2,-1
 460 290 l 2,3,4
 467 338 467 338 455.5 379 c 128,-1,5
 444 420 444 420 414.5 445 c 128,-1,6
 385 470 385 470 334 470 c 0,7,8
 288 470 288 470 253 449.5 c 128,-1,9
 218 429 218 429 192 391 c 1,10,-1
 203 460 l 1,11,-1
 124 460 l 1,12,-1
 44 0 l 1,13,-1
 124 0 l 1,14,-1
 174 284 l 2,15,16
 179 316 179 316 197.5 341 c 128,-1,17
 216 366 216 366 244.5 380.5 c 128,-1,18
 273 395 273 395 307 395 c 0,19,20
 340 395 340 395 357 379 c 128,-1,21
 374 363 374 363 379 337 c 128,-1,22
 384 311 384 311 380 280 c 2,0,-1
EndSplineSet
EndChar

StartChar: ntilde
Encoding: 241 241 228
Width: 509
GlyphClass: 2
Flags: W
LayerCount: 2
Fore
SplineSet
203 460 m 1,0,-1
 124 460 l 1,1,-1
 44 0 l 1,2,-1
 124 0 l 1,3,-1
 203 460 l 1,0,-1
380 280 m 2,4,-1
 332 0 l 1,5,-1
 410 0 l 1,6,-1
 460 290 l 2,7,8
 466 341 466 341 455 381.5 c 128,-1,9
 444 422 444 422 414 446 c 128,-1,10
 384 470 384 470 334 470 c 0,11,12
 283 470 283 470 242 443.5 c 128,-1,13
 201 417 201 417 173.5 374 c 128,-1,14
 146 331 146 331 136 281 c 1,15,-1
 172 281 l 1,16,17
 180 312 180 312 198.5 338 c 128,-1,18
 217 364 217 364 244.5 380 c 128,-1,19
 272 396 272 396 307 395 c 0,20,21
 340 394 340 394 357 378.5 c 128,-1,22
 374 363 374 363 379 337.5 c 128,-1,23
 384 312 384 312 380 280 c 2,4,-1
164 569 m 1,24,-1
 212 531 l 1,25,26
 218 545 218 545 231 562.5 c 128,-1,27
 244 580 244 580 270 581 c 0,28,29
 291 582 291 582 307 570.5 c 128,-1,30
 323 559 323 559 339.5 547.5 c 128,-1,31
 356 536 356 536 379 535 c 0,32,33
 404 534 404 534 425.5 545 c 128,-1,34
 447 556 447 556 464.5 572.5 c 128,-1,35
 482 589 482 589 493 606 c 1,36,-1
 453 650 l 1,37,38
 439 631 439 631 423 617.5 c 128,-1,39
 407 604 407 604 390 603 c 0,40,41
 367 602 367 602 351.5 613.5 c 128,-1,42
 336 625 336 625 319.5 637 c 128,-1,43
 303 649 303 649 277 649 c 0,44,45
 253 650 253 650 231 638.5 c 128,-1,46
 209 627 209 627 191.5 608.5 c 128,-1,47
 174 590 174 590 164 569 c 1,24,-1
EndSplineSet
EndChar

StartChar: nacute
Encoding: 324 324 229
Width: 509
GlyphClass: 2
Flags: W
LayerCount: 2
Fore
SplineSet
203 460 m 1,0,-1
 124 460 l 1,1,-1
 44 0 l 1,2,-1
 124 0 l 1,3,-1
 203 460 l 1,0,-1
380 280 m 2,4,-1
 332 0 l 1,5,-1
 410 0 l 1,6,-1
 460 290 l 2,7,8
 466 341 466 341 455 381.5 c 128,-1,9
 444 422 444 422 414 446 c 128,-1,10
 384 470 384 470 334 470 c 256,11,12
 284 470 284 470 244.5 443.5 c 128,-1,13
 205 417 205 417 180 374 c 128,-1,14
 155 331 155 331 145 281 c 1,15,-1
 172 281 l 1,16,17
 180 312 180 312 198.5 338 c 128,-1,18
 217 364 217 364 244.5 380 c 128,-1,19
 272 396 272 396 307 395 c 0,20,21
 340 394 340 394 357 378.5 c 128,-1,22
 374 363 374 363 379 337.5 c 128,-1,23
 384 312 384 312 380 280 c 2,4,-1
480 678 m 1,24,-1
 412 720 l 1,25,-1
 241 562 l 1,26,-1
 281 531 l 1,27,-1
 480 678 l 1,24,-1
EndSplineSet
EndChar

